<?xml version="1.0" standalone="no"?>
<!DOCTYPE svg PUBLIC "-//W3C//DTD SVG 1.1//EN" "http://www.w3.org/Graphics/SVG/1.1/DTD/svg11.dtd" >
<svg xmlns="http://www.w3.org/2000/svg" xmlns:xlink="http://www.w3.org/1999/xlink" version="1.1">
<metadata>
Created by FontForge 20170731 at Mon Aug 16 19:48:10 2021
 By Aleksey,,,
Copyright 2016 The Rokkit Project Authors (https://github.com/googlefonts/RokkittFont)
</metadata>
<defs>
<font id="Rokkitt-Thin" horiz-adv-x="0" >
  <font-face 
    font-family="Rokkitt Thin"
    font-weight="250"
    font-stretch="normal"
    units-per-em="1000"
    panose-1="0 0 0 0 0 0 0 0 0 0"
    ascent="800"
    descent="-200"
    x-height="393"
    cap-height="563"
    bbox="-182 -187.038 1229 946"
    underline-thickness="50"
    underline-position="-175"
    unicode-range="U+000D-FB02"
  />
<missing-glyph horiz-adv-x="518" 
d="M40 0v563h438v-563h-438zM100 70h318v423h-318v-423z" />
    <glyph glyph-name="fi" unicode="fi" horiz-adv-x="515" 
d="M54 0v22h80v349h-82v22h82v32q0 53 20.5 90t57 56.5t85.5 19.5q36 0 65.5 -10.5t47 -27t17.5 -35.5q0 -13 -7.5 -21t-21.5 -8q-13 0 -21.5 7t-8.5 20q0 20 19 26q-13 14 -37 21t-56 7q-60 0 -95.5 -36.5t-35.5 -107.5v-33h258v-371h75v-22h-179v22h75v349h-229v-349h97
v-22h-206z" />
    <glyph glyph-name="f_f" unicode="ff" horiz-adv-x="501" 
d="M54 0v22h73v349h-75v22h75v109q0 38 22.5 59.5t60.5 21.5q34 0 55 -17t24 -49l-22 -9q-4 26 -17.5 39.5t-37.5 13.5t-39 -15t-15 -45v-108h201v109q0 26 10 44t29 27.5t44 9.5q23 0 40 -7.5t27 -22t12 -36.5l-22 -9q-4 26 -17.5 39.5t-37.5 13.5t-39 -15t-15 -45v-108
h105v-22h-105v-349h95v-22h-199v22h73v349h-201v-349h95v-22h-199z" />
    <glyph glyph-name=".notdef" horiz-adv-x="518" 
d="M40 0v563h438v-563h-438zM100 70h318v423h-318v-423z" />
    <glyph glyph-name=".null" 
 />
    <glyph glyph-name="nonmarkingreturn" horiz-adv-x="333" 
 />
    <glyph glyph-name="NULL" 
 />
    <glyph glyph-name="NULL" 
 />
    <glyph glyph-name="CR" unicode="&#xd;" horiz-adv-x="269" 
 />
    <glyph glyph-name="space" unicode=" " horiz-adv-x="269" 
 />
    <glyph glyph-name="exclam" unicode="!" horiz-adv-x="103" 
d="M36 130l-5 235v203h30v-203l-5 -235h-20zM46 -7q-11 0 -18.5 7.5t-7.5 17.5q0 11 8 17.5t19 6.5t18.5 -6.5t7.5 -17.5q0 -10 -7.5 -17.5t-19.5 -7.5z" />
    <glyph glyph-name="quotedbl" unicode="&#x22;" horiz-adv-x="158" 
d="M45 454l-11 176h32l-7 -176h-14zM103 454l-11 176h32l-7 -176h-14z" />
    <glyph glyph-name="numbersign" unicode="#" horiz-adv-x="463" 
d="M91 0l15 187h-78l2 21h79l14 173h-76v21h78l14 162h31l-14 -162h169l13 162h31l-13 -162h81l-1 -21h-82l-15 -173h79v-21h-81l-16 -187h-31l17 187h-170l-14 -187h-32zM139 208h169l14 173h-168z" />
    <glyph glyph-name="dollar" unicode="$" horiz-adv-x="553" 
d="M272 -88v737h26v-737h-26zM308 -11q-54 0 -96 13.5t-69 38t-37 57.5h5v-98h-28v189h28q0 -53 18 -93t61 -61.5t118 -21.5q73 0 112 34.5t39 92.5q0 39 -12 64.5t-39.5 40.5t-76.5 21l-81 11q-82 11 -125 45t-43 106q0 44 20.5 76.5t60 50.5t96.5 18q73 0 121.5 -29
t62.5 -76h-7v95h28v-151h-28q0 40 -20 71t-59.5 49t-96.5 18q-72 0 -111 -33.5t-39 -87.5q0 -66 39.5 -92t104.5 -35l82 -11q53 -7 86.5 -25.5t49 -49t15.5 -74.5q0 -45 -21 -79.5t-60.5 -54t-97.5 -19.5z" />
    <glyph glyph-name="percent" unicode="%" horiz-adv-x="598" 
d="M128 308q-34 0 -60.5 17t-42 47t-15.5 69t15.5 69t42 46.5t60.5 16.5q52 0 85.5 -36.5t33.5 -95.5q0 -39 -15.5 -69t-42 -47t-61.5 -17zM128 329q41 0 67.5 31.5t26.5 80.5q0 50 -26.5 81t-67.5 31q-40 0 -66.5 -31t-26.5 -81q0 -49 26.5 -80.5t66.5 -31.5zM470 -11
q-34 0 -61 17t-42 47.5t-15 69.5q0 58 33 95t85 37t85 -37t33 -95q0 -39 -15 -69.5t-41.5 -47.5t-61.5 -17zM470 10q41 0 67.5 32t26.5 81t-26.5 80.5t-67.5 31.5q-40 0 -66.5 -31.5t-26.5 -80.5t26.5 -81t66.5 -32zM96 0l382 563h28l-381 -563h-29z" />
    <glyph glyph-name="ampersand" unicode="&#x26;" horiz-adv-x="545" 
d="M235 -11q-56 0 -96 19t-61 55t-21 87q0 41 14 73.5t43 56t72 37.5q-36 44 -58 82t-22 73q0 33 15.5 56t45 35t70.5 12t69.5 -12t43.5 -35t15 -56q0 -51 -38.5 -94t-105.5 -70l176 -218q10 16 18.5 40.5t14.5 50t6 42.5h85v-22h-65q0 -14 -7 -38.5t-17 -49.5t-21 -42
l39 -49h71v-22h-85l-41 53q-25 -30 -67 -47t-93 -17zM236 13q45 0 82.5 15t61.5 43l-181 226q-57 -16 -85.5 -53.5t-28.5 -92.5q0 -44 17.5 -75t51.5 -47t82 -16zM209 326q59 23 94 61t35 85q0 38 -26.5 59.5t-74.5 21.5q-49 0 -77.5 -21.5t-28.5 -59.5q0 -34 23.5 -70
t54.5 -76z" />
    <glyph glyph-name="quotesingle" unicode="'" horiz-adv-x="100" 
d="M45 454l-11 176h32l-7 -176h-14z" />
    <glyph glyph-name="parenleft" unicode="(" horiz-adv-x="249" 
d="M233 -56q-62 22 -103.5 70.5t-62 112.5t-20.5 131q0 68 20.5 131.5t62 112.5t103.5 71l1 -17q-52 -22 -86.5 -68t-52 -105.5t-17.5 -123.5q0 -63 17.5 -123t52 -106t86.5 -69z" />
    <glyph glyph-name="parenright" unicode=")" horiz-adv-x="249" 
d="M43 -56l-1 17q52 23 87 69t52.5 106t17.5 123q0 64 -17.5 123.5t-52.5 105.5t-87 68l1 17q62 -22 103.5 -71t62.5 -112.5t21 -131.5q0 -67 -21 -131t-62.5 -112.5t-103.5 -70.5z" />
    <glyph glyph-name="asterisk" unicode="*" horiz-adv-x="459" 
d="M115 206l-24 19l126 159l-195 66l10 29l189 -80l-8 203h33l-8 -203l188 80l11 -29l-195 -66l125 -159l-23 -18l-115 166z" />
    <glyph glyph-name="plus" unicode="+" horiz-adv-x="468" 
d="M220 91v177h-170v26h170v177h28v-177h170v-26h-170v-177h-28z" />
    <glyph glyph-name="comma" unicode="," horiz-adv-x="149" 
d="M40 -70v20q17 0 22.5 11.5t5.5 38.5h-28v54h49v-45q0 -37 -8.5 -58t-40.5 -21z" />
    <glyph glyph-name="hyphen" unicode="-" horiz-adv-x="433" 
d="M89 239v23h253v-23h-253z" />
    <glyph glyph-name="period" unicode="." horiz-adv-x="149" 
d="M40 0v54h49v-54h-49z" />
    <glyph glyph-name="slash" unicode="/" horiz-adv-x="277" 
d="M10 -140l270 733h27l-270 -733h-27z" />
    <glyph glyph-name="zero" unicode="0" horiz-adv-x="533" 
d="M266 -11q-97 0 -149.5 75.5t-52.5 214.5q0 141 52.5 217.5t149.5 76.5q98 0 150.5 -76.5t52.5 -217.5q0 -139 -52.5 -214.5t-150.5 -75.5zM266 10q85 0 130 69.5t45 199.5q0 132 -45 202t-130 70q-84 0 -129 -70t-45 -202q0 -130 45 -200t129 -69z" />
    <glyph glyph-name="one" unicode="1" horiz-adv-x="275" 
d="M51 0v22h80v510l-80 -21l-1 23l109 29v-541h80v-22h-188z" />
    <glyph glyph-name="two" unicode="2" horiz-adv-x="474" 
d="M59 0v24l199 198q43 43 69 76t38 62.5t12 61.5q0 59 -36.5 94t-101.5 35q-67 0 -106.5 -35.5t-39.5 -97.5q0 -15 2 -29t6 -31h-27q-4 16 -6.5 31t-2.5 31q0 46 21.5 80t60.5 53.5t92 19.5q77 0 121.5 -40.5t44.5 -110.5q0 -37 -15 -70t-43.5 -68t-71.5 -78l-193 -191
l-5 9h302v101h27v-125h-347z" />
    <glyph glyph-name="three" unicode="3" horiz-adv-x="462" 
d="M226 -10q-73 0 -121.5 28t-74.5 81l22 15q26 -52 69.5 -76t104.5 -24q68 0 110.5 35t42.5 97q0 68 -48.5 103.5t-140.5 35.5v22q90 0 136.5 31t46.5 89q0 59 -37.5 91t-107.5 32q-61 0 -105 -26t-65 -74l-22 10q15 36 42 61.5t65 38.5t85 13q83 0 128 -38t45 -108
q0 -42 -20.5 -72t-59 -45.5t-94.5 -15.5v4q86 1 133.5 -39t47.5 -112q0 -47 -23 -82.5t-63.5 -55t-95.5 -19.5z" />
    <glyph glyph-name="four" unicode="4" horiz-adv-x="443" 
d="M195 0v22h90v127h-260l-5 21l271 393h22v-392h100v-22h-100v-127h70v-22h-188zM49 171h236v343z" />
    <glyph glyph-name="five" unicode="5" horiz-adv-x="475" 
d="M233 -11q-58 0 -107.5 24.5t-85.5 69.5l19 17q32 -42 78 -64.5t96 -22.5q83 0 125.5 44t42.5 117q0 75 -41 116.5t-115 41.5q-48 0 -84 -16t-66 -45l-27 12l7 280h333v-118h-28v95h-280l-7 -254l-8 6q28 26 68 45t93 19q87 0 135 -49.5t48 -132.5q0 -56 -23.5 -97.5
t-67 -64.5t-105.5 -23z" />
    <glyph glyph-name="six" unicode="6" horiz-adv-x="412" 
d="M202 -11q-50 0 -89.5 21.5t-62 60t-22.5 87.5q0 32 7.5 58.5t18.5 49.5t23 43l171 292l26 -14l-188 -312l-15 -14q13 22 36.5 37t50.5 23t50 8q53 0 92 -21t60.5 -58.5t21.5 -89.5t-22 -90.5t-62 -59.5t-96 -21zM203 11q70 0 110.5 40.5t40.5 107.5q0 68 -40 108t-108 40
q-37 0 -71.5 -18t-56 -52.5t-21.5 -83.5q0 -62 40.5 -102t105.5 -40z" />
    <glyph glyph-name="seven" unicode="7" horiz-adv-x="413" 
d="M154 0l184 541h-300v-116h-28v138h357v-21l-186 -542h-27z" />
    <glyph glyph-name="eight" unicode="8" horiz-adv-x="440" 
d="M220 -11q-57 0 -98 19t-63.5 54.5t-22.5 82.5q0 58 29.5 101.5t90.5 52.5q-54 18 -77.5 51t-23.5 82q0 44 20 75.5t57.5 49t87.5 16.5q51 1 88 -16.5t57 -49t20 -75.5q0 -51 -25 -89.5t-80 -48.5q60 -11 92 -51t32 -98q0 -47 -22 -82.5t-63.5 -54.5t-98.5 -19zM220 12
q71 0 113 36t42 97q0 64 -42 101t-151 43q-38 -6 -64.5 -24t-39.5 -48t-13 -72q0 -61 42 -97t113 -36zM265 305q29 8 49.5 22t31.5 39t11 65q0 55 -36.5 87t-100.5 32q-63 0 -99.5 -32t-36.5 -87q0 -58 41 -90t140 -36z" />
    <glyph glyph-name="nine" unicode="9" horiz-adv-x="412" 
d="M162 -38l-26 14l188 312l15 14q-13 -22 -36.5 -37t-50.5 -23t-50 -8q-52 0 -91.5 21t-61 59t-21.5 89q0 52 22 90.5t62.5 59.5t95.5 21q51 0 90 -21.5t61.5 -59.5t22.5 -88q0 -31 -7.5 -58t-18.5 -50t-23 -43zM204 256q38 0 72 18t55.5 52.5t21.5 83.5q0 62 -40.5 102
t-105.5 40q-70 0 -110.5 -40t-40.5 -108t40 -108t108 -40z" />
    <glyph glyph-name="colon" unicode=":" horiz-adv-x="149" 
d="M40 0v54h49v-54h-49zM40 339v54h49v-54h-49z" />
    <glyph glyph-name="semicolon" unicode=";" horiz-adv-x="149" 
d="M40 -70v20q17 0 22.5 11.5t5.5 38.5h-28v54h49v-45q0 -37 -8.5 -58t-40.5 -21zM40 339v54h49v-54h-49z" />
    <glyph glyph-name="less" unicode="&#x3c;" horiz-adv-x="413" 
d="M383 118l-333 155v20l333 155v-30l-295 -135l295 -135v-30z" />
    <glyph glyph-name="equal" unicode="=" horiz-adv-x="467" 
d="M50 344v26h367v-26h-367zM50 186v26h367v-26h-367z" />
    <glyph glyph-name="greater" unicode="&#x3e;" horiz-adv-x="413" 
d="M30 118v30l295 135l-295 135v30l333 -155v-20z" />
    <glyph glyph-name="question" unicode="?" horiz-adv-x="343" 
d="M135 130v9q0 42 12.5 71t33.5 53t46 49q28 27 47 57.5t19 73.5q0 50 -31 79t-88 29q-55 0 -90.5 -27.5t-37.5 -75.5h-28q2 40 22.5 67.5t55.5 42.5t78 15q70 0 109.5 -36t39.5 -94q0 -46 -23 -80t-57 -68q-24 -24 -42 -45.5t-28 -47.5t-10 -63v-9h-28zM149 -10
q-12 0 -20 7.5t-8 18.5t8 18.5t20 7.5t20 -7.5t8 -18.5t-8 -18.5t-20 -7.5z" />
    <glyph glyph-name="at" unicode="@" horiz-adv-x="678" 
d="M371 -14q-80 0 -139 23t-98 63t-58 90.5t-19 104.5q0 56 20.5 109.5t60 96.5t97 69t132.5 26q69 0 118.5 -20t80.5 -54t45.5 -76t14.5 -86q0 -47 -14 -87t-37 -69t-50.5 -43.5t-54.5 -11.5q-13 2 -24.5 11.5t-14 32.5t11.5 64q-16 -46 -47 -77t-78 -31q-31 0 -57.5 15
t-42.5 44.5t-16 73.5q0 45 18 87.5t53 70.5t85 28q45 0 75 -27.5t29 -77.5l21 95h19l-44 -198q-11 -53 -6 -72.5t26 -21.5q17 -1 39 11t42 37.5t33 62t13 83.5q0 56 -25.5 106t-78.5 81t-136 31q-81 0 -145 -37t-100.5 -101.5t-36.5 -145.5q0 -79 34.5 -138t99 -91.5
t154.5 -32.5q55 0 98.5 12.5t77.5 34.5l10 -13q-36 -25 -80 -38.5t-106 -13.5zM321 139q39 0 67.5 27.5t44.5 68.5t16 83q0 53 -25.5 77.5t-68.5 24.5q-39 0 -68 -23t-45 -61t-16 -83q0 -52 23.5 -83t71.5 -31z" />
    <glyph glyph-name="A" unicode="A" horiz-adv-x="675" 
d="M42 0v22h76l193 519h-71v22h198v-22h-73l193 -519h75v-22h-179v22h72l-78 213h-221l-79 -213h73v-22h-179zM233 256h208l-103 282h-2z" />
    <glyph glyph-name="B" unicode="B" horiz-adv-x="633" 
d="M60 0v22h85v519h-85v22h318q80 0 122.5 -34.5t42.5 -102.5q0 -51 -22.5 -85.5t-62.5 -42.5q46 -8 72 -30t36.5 -52t10.5 -62q0 -45 -18 -79.5t-52.5 -54.5t-82.5 -20h-364zM175 22h247q59 0 92.5 36.5t33.5 96.5q0 55 -33.5 92.5t-106.5 37.5h-233v-263zM175 307h231
q59 0 84 33.5t25 84.5q0 61 -36 88.5t-104 27.5h-200v-234z" />
    <glyph glyph-name="C" unicode="C" horiz-adv-x="686" 
d="M348 -11q-51 0 -102 17.5t-94 53.5t-68.5 92t-25.5 132q0 80 36.5 145.5t102 104t152.5 38.5q68 0 113.5 -18.5t76.5 -52t53 -79.5l-14 6v135h27v-157l-21 -7q-37 76 -90 113t-145 37q-83 0 -141.5 -37.5t-89 -98t-30.5 -130.5q0 -68 22.5 -119t60.5 -84.5t84 -50
t94 -16.5q45 0 89 11.5t83 38.5t66 75l19 -13q-29 -49 -68.5 -79t-87 -43.5t-102.5 -13.5z" />
    <glyph glyph-name="D" unicode="D" horiz-adv-x="698" 
d="M60 0v22h85v519h-85v22h335q63 0 108.5 -26t75 -68.5t44 -92t14.5 -96.5q0 -48 -15 -97.5t-44.5 -90.5t-74.5 -66.5t-105 -25.5h-338zM175 22h218q54 0 94.5 22.5t67 60t40 83t13.5 91.5t-13.5 92t-40 84.5t-66 62t-92.5 23.5h-221v-519z" />
    <glyph glyph-name="E" unicode="E" horiz-adv-x="597" 
d="M60 0v22h85v519h-85v22h459v-161h-26v139h-318v-243h205v83h23v-194h-22v89h-206v-254h330v141h26v-163h-471z" />
    <glyph glyph-name="F" unicode="F" horiz-adv-x="570" 
d="M60 0v22h85v519h-85v22h464v-174h-24v152h-325v-240h206v76h21v-186h-21v87h-206v-256h85v-22h-200z" />
    <glyph glyph-name="G" unicode="G" horiz-adv-x="681" 
d="M347 -11q-89 0 -154 36.5t-100.5 103t-35.5 156.5q0 89 35.5 153.5t100.5 99.5t154 35q75 0 137.5 -34.5t92.5 -98.5l-14 8v115h27v-151h-22q-28 66 -87.5 102t-133.5 36q-79 0 -137.5 -32.5t-90.5 -91.5t-32 -141q0 -83 32 -144.5t90.5 -94.5t137.5 -33q34 0 74.5 10.5
t77.5 36.5t60.5 72t23.5 116l7 -2h-131v22h153v-3q0 -87 -26.5 -141t-68 -83.5t-87 -40.5t-83.5 -11z" />
    <glyph glyph-name="H" unicode="H" horiz-adv-x="730" 
d="M60 0v22h85v519h-85v22h200v-22h-85v-245h380v245h-85v22h199v-22h-85v-519h85v-22h-199v22h85v251h-380v-251h85v-22h-200z" />
    <glyph glyph-name="I" unicode="I" horiz-adv-x="311" 
d="M55 0v22h85v519h-85v22h200v-22h-85v-519h85v-22h-200z" />
    <glyph glyph-name="J" unicode="J" horiz-adv-x="277" 
d="M49 -32v23h60q30 0 37.5 20.5t7.5 66.5v463h-65v22h157v-22h-61v-468q0 -45 -9 -67.5t-26.5 -30t-45.5 -7.5h-55z" />
    <glyph glyph-name="K" unicode="K" horiz-adv-x="636" 
d="M60 0v22h85v519h-85v22h200v-22h-85v-252l286 252h-76v22h194v-22h-83l-285 -254l305 -265h79v-22h-191v22h75l-304 262v-262h85v-22h-200z" />
    <glyph glyph-name="L" unicode="L" horiz-adv-x="517" 
d="M60 0v22h85v519h-85v22h200v-22h-85v-519h291v160h25v-182h-431z" />
    <glyph glyph-name="M" unicode="M" horiz-adv-x="711" 
d="M26 0v22h75v519h-75v22h109l226 -459l213 459h111v-22h-75v-519h75v-22h-181v22h77v492l-218 -466h-6l-229 466v-492h76v-22h-178z" />
    <glyph glyph-name="N" unicode="N" horiz-adv-x="705" 
d="M64 0v22h72v519h-72v22h100l413 -521v499h-75v22h165v-22h-63v-541h-30l-410 518v-496h73v-22h-173z" />
    <glyph glyph-name="O" unicode="O" horiz-adv-x="710" 
d="M354 -11q-75 0 -130.5 25.5t-91.5 67.5t-53.5 93.5t-17.5 103.5q0 53 18 105t54 94.5t91.5 68.5t130.5 26t130.5 -26t92 -68.5t54.5 -94.5t18 -105t-17.5 -104.5t-54 -93.5t-92.5 -67t-132 -25zM355 13q68 0 117.5 23t82.5 62t49 86t16 95t-16 95.5t-49 87.5t-82.5 64
t-117.5 24t-117.5 -24t-82 -64t-48.5 -87.5t-16 -95.5q0 -49 15.5 -96.5t48 -86t82 -61t118.5 -22.5z" />
    <glyph glyph-name="P" unicode="P" horiz-adv-x="593" 
d="M60 0v22h85v519h-85v22h301q78 0 121 -39t43 -110q0 -81 -42 -126t-118 -45h-144l1 21h143q62 0 96 39.5t34 109.5q0 61 -35 94.5t-98 33.5h-187v-519h85v-22h-200z" />
    <glyph glyph-name="Q" unicode="Q" horiz-adv-x="703" 
d="M506 -103q-48 0 -86 26t-73 66q-74 2 -128 27.5t-89 67.5t-52 93t-17 102q0 53 18 105t54 94.5t91.5 68.5t130.5 26t130.5 -26t92 -68.5t54.5 -94.5t18 -105q0 -51 -16 -100.5t-49.5 -91t-85 -67.5t-121.5 -30q28 -32 59 -52t70 -20q14 0 28.5 2.5t30.5 8.5v-22
q-15 -5 -30 -7.5t-30 -2.5zM355 13q68 0 117.5 23t82.5 62t49 86t16 95t-16 95.5t-49 87.5t-82.5 64t-117.5 24t-117.5 -24t-82 -64t-48.5 -87.5t-16 -95.5q0 -49 15.5 -96.5t48 -86t82 -61t118.5 -22.5z" />
    <glyph glyph-name="R" unicode="R" horiz-adv-x="631" 
d="M60 0v22h85v519h-85v22h306q58 0 93 -22t51 -56.5t16 -71.5q0 -36 -15.5 -70t-53.5 -56t-105 -23l151 -242h83v-22h-103l-163 263h-111v22h131q65 0 98.5 20t46 50t12.5 58q0 31 -12 60t-40 48.5t-77 19.5h-193v-519h85v-22h-200z" />
    <glyph glyph-name="S" unicode="S" horiz-adv-x="553" 
d="M311 -11q-54 0 -96 13.5t-69 38t-37 57.5h5v-98h-28v189h28q0 -53 18 -93t61 -61.5t118 -21.5q73 0 112 34.5t39 92.5q0 39 -12 64.5t-39.5 40.5t-76.5 21l-81 11q-82 11 -125 45t-43 106q0 44 20.5 76.5t60 50.5t96.5 18q73 0 121.5 -29t62.5 -76h-7v95h28v-151h-28
q0 40 -20 71t-59.5 49t-96.5 18q-72 0 -111 -33.5t-39 -87.5q0 -66 39.5 -92t104.5 -35l82 -11q53 -7 86.5 -25.5t49 -49t15.5 -74.5q0 -45 -21 -79.5t-60.5 -54t-97.5 -19.5z" />
    <glyph glyph-name="T" unicode="T" horiz-adv-x="560" 
d="M177 0v22h85v519h-211v-164h-26v186h510v-186h-27v164h-216v-519h84v-22h-199z" />
    <glyph glyph-name="U" unicode="U" horiz-adv-x="729" 
d="M360 -11q-73 0 -128 24.5t-85.5 68t-30.5 101.5v358h-74v22h179v-22h-75v-358q0 -50 27 -88.5t75.5 -60t111.5 -21.5q69 0 120.5 21t80.5 59.5t29 88.5v359h-73v22h179v-22h-77v-359q0 -58 -33 -101.5t-91.5 -67.5t-134.5 -24z" />
    <glyph glyph-name="V" unicode="V" horiz-adv-x="606" 
d="M289 0l-203 541h-67v22h177v-22h-78l187 -504l185 504h-76v22h171v-22h-60l-205 -541h-31z" />
    <glyph glyph-name="W" unicode="W" horiz-adv-x="953" 
d="M286 0l-183 541h-68v22h178v-22h-78l168 -503l164 496h23l162 -496l165 503h-76v22h177v-22h-71l-180 -541h-31l-158 480l-160 -480h-32z" />
    <glyph glyph-name="X" unicode="X" horiz-adv-x="632" 
d="M54 0v21h67l178 269l-167 251h-72v22h174v-22h-74l156 -234l153 234h-75v22h177v-22h-72l-168 -255l177 -265h73v-21h-175v21h74l-167 249l-162 -249h77v-21h-174z" />
    <glyph glyph-name="Y" unicode="Y" horiz-adv-x="615" 
d="M210 0v22h82v205l-209 314h-76v22h183v-22h-74l193 -289l191 289h-78v22h184v-22h-75l-209 -314v-205h83v-22h-195z" />
    <glyph glyph-name="Z" unicode="Z" horiz-adv-x="602" 
d="M69 0v23l415 518h-376v-149h-25v171h435v-22l-415 -519h403v156h25v-178h-462z" />
    <glyph glyph-name="bracketleft" unicode="[" horiz-adv-x="173" 
d="M78 -65v649h90v-23h-58v-602h58v-24h-90z" />
    <glyph glyph-name="backslash" unicode="\" horiz-adv-x="220" 
d="M230 -140l-220 733h26l220 -733h-26z" />
    <glyph glyph-name="bracketright" unicode="]" horiz-adv-x="172" 
d="M1 -65v24h58v602h-58v23h90v-649h-90z" />
    <glyph glyph-name="asciicircum" unicode="^" horiz-adv-x="446" 
d="M35 391l174 235h34l166 -235h-27l-156 208l-163 -208h-28z" />
    <glyph glyph-name="underscore" unicode="_" horiz-adv-x="350" 
d="M6 -63v21h338v-21h-338z" />
    <glyph glyph-name="grave" unicode="`" horiz-adv-x="274" 
d="M158 483l-58 123h30l44 -123h-16z" />
    <glyph glyph-name="a" unicode="a" horiz-adv-x="442" 
d="M172 -11q-59 0 -95.5 32.5t-36.5 84.5q0 44 19 69t50.5 35.5t67.5 10.5q39 0 80 -6t81 -14l-14 -6v68q0 61 -32.5 89.5t-82.5 28.5q-35 0 -70.5 -9.5t-66.5 -22.5l-9 22q40 17 77.5 24.5t65.5 7.5q59 0 90.5 -20.5t44 -51t12.5 -60.5v-249h60v-22h-81l-8 46h12
q-48 -29 -88 -43t-76 -14zM173 11q37 0 74 14t92 45l-15 -15v135l15 -9q-43 9 -83 14.5t-78 5.5q-43 0 -76.5 -21.5t-33.5 -74.5q0 -37 27 -65.5t78 -28.5z" />
    <glyph glyph-name="b" unicode="b" horiz-adv-x="509" 
d="M270 -11q-46 0 -89 21t-72 58l20 -13v-55h-98v22h69v529h-65v22h94v-232l-23 -12q35 35 82 54.5t90 19.5q61 0 106 -24t70 -69.5t25 -108.5q0 -65 -26 -113t-73 -73.5t-110 -25.5zM268 11q83 0 132.5 49.5t49.5 134.5q0 86 -47.5 136t-127.5 50q-41 0 -87.5 -20.5
t-82.5 -55.5l24 31v-274l-21 32q30 -37 73.5 -60t86.5 -23z" />
    <glyph glyph-name="c" unicode="c" horiz-adv-x="467" 
d="M233 -11q-59 0 -105 27t-72 74t-26 108q0 60 26 106.5t72 72.5t105 26q53 0 93.5 -24t51.5 -62h-9v76h27v-115h-23q-7 45 -44.5 74t-93.5 29q-51 0 -91 -23.5t-62.5 -65t-22.5 -95.5t22.5 -95.5t62 -65.5t90.5 -24q47 0 83 16.5t70 49.5l11 -19q-33 -34 -72.5 -52
t-92.5 -18z" />
    <glyph glyph-name="d" unicode="d" horiz-adv-x="497" 
d="M238 -11q-60 0 -107 26.5t-74 73.5t-27 108q0 62 26.5 108t73 72t106.5 26q49 0 95.5 -19t71.5 -56l-20 15v208h-66v22h95v-551h67v-22h-96v52l20 10q-28 -31 -71.5 -52t-93.5 -21zM240 12q49 0 91.5 21t72.5 54l-21 -27v276l21 -33q-32 39 -75.5 58.5t-90.5 19.5
q-52 0 -92.5 -23.5t-63.5 -66t-23 -98.5q0 -53 23.5 -94t64.5 -64t93 -23z" />
    <glyph glyph-name="e" unicode="e" horiz-adv-x="474" 
d="M237 -11q-54 0 -101 24.5t-76.5 71.5t-29.5 112q0 69 29 115t75 69t96 23q51 0 94.5 -22t70 -68.5t26.5 -118.5v-6h-367v21h340q0 59 -23.5 97t-61 56.5t-79.5 18.5q-46 0 -85 -22t-62.5 -63t-23.5 -98q0 -55 23.5 -97t64.5 -66t91 -24q47 0 93 21t71 52l10 -22
q-37 -37 -83 -55.5t-92 -18.5z" />
    <glyph glyph-name="f" unicode="f" horiz-adv-x="269" 
d="M54 0v22h73v349h-75v22h75v109q0 26 10 44t29 27.5t44 9.5q34 0 55 -17t24 -49l-22 -9q-4 26 -17.5 39.5t-37.5 13.5t-39 -15t-15 -45v-108h105v-22h-105v-349h95v-22h-199z" />
    <glyph glyph-name="g" unicode="g" horiz-adv-x="497" 
d="M233 -184q-31 0 -66.5 6.5t-73.5 16.5l5 23q41 -12 74.5 -17.5t61.5 -5.5q78 0 116 39.5t38 106.5v77l19 12q-27 -34 -74.5 -55.5t-94.5 -21.5q-60 0 -106.5 26t-73.5 72t-27 106t25 105.5t69.5 70.5t101.5 25q50 0 101 -21.5t79 -54.5l-19 12v55h96v-22h-67v-379
q0 -60 -22.5 -99t-63.5 -58t-98 -19zM240 19q44 0 92 22t75 57l-19 -30v262l21 -25q-31 33 -82 54.5t-98 21.5q-50 0 -88 -23.5t-59.5 -64.5t-21.5 -96q0 -53 23 -93t64 -62.5t93 -22.5z" />
    <glyph glyph-name="h" unicode="h" horiz-adv-x="482" 
d="M10 0v22h72v529h-69v22h98v-229h-7q48 27 88.5 43t83.5 16q55 0 87.5 -32.5t32.5 -88.5v-260h76v-22h-189v22h85v268q0 42 -26 66t-69 24q-37 0 -80.5 -16.5t-88.5 -40.5l7 8v-309h72v-22h-173z" />
    <glyph glyph-name="i" unicode="i" horiz-adv-x="238" 
d="M18 0v22h86v349h-85v22h114v-371h86v-22h-201zM111 495q-12 0 -19 7t-7 18t7 17.5t19 6.5t19.5 -6.5t7.5 -17.5t-7.5 -18t-19.5 -7z" />
    <glyph glyph-name="j" unicode="j" horiz-adv-x="202" 
d="M10 -122v22h32q37 0 51.5 17.5t14.5 61.5v394h-77v20h108v-413q0 -34 -10.5 -56.5t-32 -34t-56.5 -11.5h-30zM115 496q-11 0 -19 7t-8 18q0 10 8 16.5t19 6.5q12 0 19.5 -6.5t7.5 -16.5q0 -11 -7.5 -18t-19.5 -7z" />
    <glyph glyph-name="k" unicode="k" horiz-adv-x="478" 
d="M30 0v22h73v529h-69v22h98v-366l213 164h-78v22h187v-22h-72l-215 -166l202 -183h88v-22h-102l-223 205v-183h72v-22h-174z" />
    <glyph glyph-name="l" unicode="l" horiz-adv-x="224" 
d="M28 0v22h73v529h-70v22h98v-551h73v-22h-174z" />
    <glyph glyph-name="m" unicode="m" horiz-adv-x="770" 
d="M18 0v22h86v349h-85v22h114v-47l-12 -1q44 27 90.5 42.5t80.5 15.5q59 0 89.5 -35t30.5 -88v-258h74v-22h-188v22h85v268q0 42 -26 66t-70 24q-28 0 -73 -15t-95 -42l14 15v-316h84v-22h-199zM579 0v22h85v268q0 42 -26.5 66t-70.5 24q-37 0 -81.5 -14.5t-85.5 -42.5
l-8 19q47 29 89 45t91 16q55 0 87.5 -32.5t32.5 -88.5v-260h75v-22h-188z" />
    <glyph glyph-name="n" unicode="n" horiz-adv-x="497" 
d="M18 0v22h86v349h-85v22h114v-50h-9q43 26 87.5 43t87.5 17q55 0 87.5 -32.5t32.5 -88.5v-260h75v-22h-189v22h85v268q0 42 -26 66t-70 24q-35 0 -80 -17t-90 -43l9 15v-313h84v-22h-199z" />
    <glyph glyph-name="o" unicode="o" horiz-adv-x="481" 
d="M239 -12q-61 0 -108 27t-74 74.5t-27 109.5q0 60 27 106.5t74 72.5t108 26q62 0 110 -26t75 -72t27 -107q0 -62 -27 -109.5t-75 -74.5t-110 -27zM239 11q54 0 95 24t64.5 66.5t23.5 97.5q0 54 -23.5 95.5t-64.5 64.5t-95 23q-53 0 -93.5 -23t-63.5 -64.5t-23 -95.5
q0 -55 23 -97.5t63.5 -66.5t93.5 -24z" />
    <glyph glyph-name="p" unicode="p" horiz-adv-x="507" 
d="M30 -154v21h69v504h-62v22h91v-51l-24 -13q31 33 79 53.5t96 20.5q59 0 103.5 -26t69 -72.5t24.5 -109.5q0 -62 -24.5 -108.5t-68.5 -72t-103 -25.5q-30 0 -63 10t-61.5 27.5t-46.5 39.5l19 -13l-1 -186h68v-21h-165zM278 11q77 0 123.5 51t46.5 133q0 83 -47.5 133.5
t-124.5 50.5q-29 0 -60 -9.5t-60 -26t-52 -38.5l24 32v-275l-20 30q29 -35 78 -58t92 -23z" />
    <glyph glyph-name="q" unicode="q" horiz-adv-x="515" 
d="M316 -161v22h68v189l21 14q-27 -32 -71.5 -54t-95.5 -22q-60 0 -107 26.5t-74 73.5t-27 109t27 108.5t73.5 72.5t106.5 26q50 0 95 -20t74 -54l-22 10l3 53h90v-22h-64v-510h68v-22h-165zM240 11q45 0 89.5 21.5t75.5 55.5l-21 -30v276l20 -26q-31 32 -75 53t-92 21
q-52 0 -92 -23.5t-63 -66t-23 -99.5q0 -54 23.5 -95t64.5 -64t93 -23z" />
    <glyph glyph-name="r" unicode="r" horiz-adv-x="364" 
d="M55 0v22h87v349h-85v22h114v-123l-10 -1q7 50 24.5 79t40 41.5t46.5 12.5q20 0 38 -4.5t34 -14.5l-6 -23q-16 9 -30.5 14t-34.5 5q-40 0 -71 -40.5t-31 -112.5v-204h83v-22h-199z" />
    <glyph glyph-name="s" unicode="s" horiz-adv-x="446" 
d="M246 -11q-38 0 -72.5 9.5t-57.5 25.5t-30 33l10 -12v-45h-26v117h24l3 -66l-17 37q23 -38 66.5 -57.5t98.5 -19.5q52 0 85 22.5t33 60.5q0 45 -28.5 62t-90.5 30l-65 13q-47 11 -76.5 32t-29.5 69q0 51 41 77t101 26q28 0 56.5 -8t52 -22.5t36.5 -35.5l-17 12v44h26v-128
h-24l-5 78l10 -26q-7 16 -27.5 30.5t-48 24t-57.5 9.5q-46 0 -80.5 -20t-34.5 -60q0 -38 27 -54t67 -24l65 -14q48 -10 76 -23.5t40.5 -34.5t12.5 -55q0 -37 -21 -60.5t-54 -35t-69 -11.5z" />
    <glyph glyph-name="t" unicode="t" horiz-adv-x="282" 
d="M216 0q-53 0 -87.5 22.5t-34.5 84.5v264h-74v22h74v136l29 9v-145h115v-22h-115v-262q0 -49 22.5 -68t72.5 -19h39v-22h-41z" />
    <glyph glyph-name="u" unicode="u" horiz-adv-x="502" 
d="M215 -11q-49 0 -75.5 20t-36 47t-9.5 47v268h-76v22h106v-289q0 -35 22 -63.5t71 -28.5q57 0 99 21t87 56l-26 -24v306h-73v22h103v-372h73v-21h-98l-4 62l26 6q-42 -37 -89 -58t-100 -21z" />
    <glyph glyph-name="v" unicode="v" horiz-adv-x="515" 
d="M243 0l-163 371h-72v22h186v-22h-83l150 -348l145 348h-82v22h182v-22h-69l-161 -371h-33z" />
    <glyph glyph-name="w" unicode="w" horiz-adv-x="761" 
d="M215 0l-134 371h-65v22h170v-22h-76l124 -349l128 349h-70v22h174v-22h-72l130 -348l118 348h-68v22h163v-22h-67l-128 -371h-34l-129 346l-129 -346h-35z" />
    <glyph glyph-name="x" unicode="x" horiz-adv-x="527" 
d="M24 0v22h73l152 181l-141 168h-72v22h180v-22h-79l129 -153l125 153h-79v22h188v-22h-81l-139 -170l151 -179h74v-22h-188v22h86l-140 165l-136 -165h75v-22h-178z" />
    <glyph glyph-name="y" unicode="y" horiz-adv-x="523" 
d="M115 -122v26h39q30 0 45.5 4t25.5 16t20 35l31 71h-18l-154 341h-81v22h182v-22h-71l147 -330l139 330h-83v22h177v-22h-64l-179 -418q-13 -30 -26.5 -46t-34 -22.5t-55.5 -6.5h-40z" />
    <glyph glyph-name="z" unicode="z" horiz-adv-x="462" 
d="M70 0v25l281 347h-242v-95h-26v116h296v-28l-275 -344h257v109h25v-130h-316z" />
    <glyph glyph-name="braceleft" unicode="{" horiz-adv-x="209" 
d="M159 -4q-30 0 -47 9.5t-24.5 29.5t-9.5 51.5t-2 75.5q0 39 -3.5 62t-17.5 33t-47 10v27q35 0 49 11.5t16.5 37t2.5 68.5q0 40 2 69.5t9.5 48.5t24.5 28t47 9h29v-22q-36 0 -54 -6t-24 -25t-6 -59q0 -55 -2 -88t-8.5 -51t-18.5 -25t-32 -9q19 -4 31 -11.5t18.5 -25t9 -51
t2.5 -89.5q0 -37 6 -56t24 -25t54 -6v-21h-29z" />
    <glyph glyph-name="bar" unicode="|" horiz-adv-x="105" 
d="M40 -140v733h25v-733h-25z" />
    <glyph glyph-name="braceright" unicode="}" horiz-adv-x="210" 
d="M24 -4v21q36 0 54 6t24 25t6 56q0 56 2.5 89.5t9 51t18.5 25t31 11.5q-20 2 -32 9t-18.5 25t-8.5 51t-2 88q0 40 -5.5 59t-23.5 25t-55 6v22h29q30 0 47 -9t24.5 -28t9.5 -48t2 -70q0 -43 2.5 -68.5t17 -37t48.5 -11.5v-27q-32 0 -46.5 -10t-18 -33t-3.5 -62
q0 -44 -2 -75.5t-9.5 -51.5t-24.5 -29.5t-47 -9.5h-29z" />
    <glyph glyph-name="asciitilde" unicode="~" horiz-adv-x="420" 
d="M298 259q-29 0 -59 15.5t-58.5 31t-54.5 15.5q-22 0 -36 -12t-14 -38h-26q0 21 8.5 37t25.5 25.5t40 9.5q32 0 60.5 -15.5t56 -31t55.5 -15.5q22 0 35 12t13 38h26q0 -23 -8.5 -39.5t-24.5 -24.5t-39 -8z" />
    <glyph glyph-name="DEL" horiz-adv-x="293" 
 />
    <glyph glyph-name="uni00A0" unicode="&#xa0;" horiz-adv-x="269" 
 />
    <glyph glyph-name="exclamdown" unicode="&#xa1;" horiz-adv-x="93" 
d="M46 283h20l5 -235v-203h-30v203zM57 420q11 0 18.5 -7t7.5 -18q0 -10 -7.5 -17t-19.5 -7q-11 0 -18.5 7t-7.5 17q0 11 8 18t19 7z" />
    <glyph glyph-name="cent" unicode="&#xa2;" horiz-adv-x="467" 
d="M214 -88v568h26v-568h-26zM233 -11q-59 0 -105 27t-72 74t-26 108q0 60 26 106.5t72 72.5t105 26q53 0 93.5 -24t51.5 -62h-9v76h27v-115h-23q-7 45 -44.5 74t-93.5 29q-51 0 -91 -23.5t-62.5 -65t-22.5 -95.5t22.5 -95.5t62 -65.5t90.5 -24q47 0 83 16.5t70 49.5l11 -19
q-33 -34 -72.5 -52t-92.5 -18z" />
    <glyph glyph-name="sterling" unicode="&#xa3;" horiz-adv-x="512" 
d="M115 -11q-41 0 -68 23.5t-27 60.5t25.5 62.5t69.5 25.5q34 0 59.5 -13.5t46.5 -34t40.5 -41t42.5 -34t52 -13.5q51 0 70.5 33t23.5 84h22v-6q-1 -60 -29.5 -99.5t-82.5 -39.5q-33 0 -58 14.5t-45.5 35.5t-41.5 42t-44.5 35.5t-55.5 14.5q-33 0 -51.5 -18t-18.5 -48
q0 -28 19.5 -45t50.5 -17q34 0 58.5 16.5t37.5 43t13 55.5q0 34 -13.5 62.5t-33 55t-39.5 53t-33.5 56.5t-13.5 66q0 47 23.5 82t63.5 54t89 19q78 0 120 -38.5t46 -104.5h-25q-4 51 -34.5 85t-105.5 34q-69 0 -109 -35.5t-40 -94.5q0 -35 13 -65t32 -57t38.5 -53.5
t32.5 -55.5t13 -63q0 -36 -16 -67t-45.5 -50.5t-71.5 -19.5zM53 290v22h333v-22h-333z" />
    <glyph glyph-name="currency" unicode="&#xa4;" horiz-adv-x="533" 
d="M267 66q-66 0 -118 29.5t-82 81.5t-30 117t30 116.5t82 81t118 29.5t117.5 -29.5t81.5 -81t30 -116.5t-30 -117t-81.5 -81.5t-117.5 -29.5zM49 57l-19 19l78 69l15 -15zM484 57l-74 73l15 15l78 -69zM267 88q58 0 103 27t71.5 73.5t26.5 105.5t-26.5 105t-71.5 73
t-103 27t-103.5 -27t-72 -73t-26.5 -105t26.5 -105.5t72 -73.5t103.5 -27zM108 442l-78 69l19 19l74 -73zM425 442l-15 15l74 73l19 -19z" />
    <glyph glyph-name="yen" unicode="&#xa5;" horiz-adv-x="619" 
d="M153 220v20h313v-20h-313zM153 144v20h313v-20h-313zM213 0v22h82v205l-209 314h-76v22h183v-22h-74l193 -289l191 289h-78v22h184v-22h-75l-209 -314v-205h83v-22h-195z" />
    <glyph glyph-name="brokenbar" unicode="&#xa6;" horiz-adv-x="105" 
d="M40 293v300h25v-300h-25zM40 -140v300h25v-300h-25z" />
    <glyph glyph-name="section" unicode="&#xa7;" horiz-adv-x="462" 
d="M244 -66q-45 0 -75 8.5t-45 26t-15 43.5q0 14 6.5 18.5t13.5 4.5q2 -50 32.5 -67t83.5 -17q60 0 86.5 26t26.5 69q0 28 -9.5 45.5t-38.5 36t-88 48.5q-48 25 -75.5 43t-39 38t-11.5 50q0 35 22 58t53 30q-27 18 -42.5 41.5t-15.5 60.5q0 47 34.5 77.5t97.5 30.5
q46 0 73 -14t38.5 -35t11.5 -42q0 -11 -4 -16.5t-14 -5.5q-2 29 -13 50.5t-33 33.5t-59 12q-53 0 -79.5 -25t-26.5 -65q0 -32 12 -50.5t38 -34.5t69 -40q51 -29 83 -50t47.5 -42t15.5 -49q2 -33 -11.5 -60.5t-40.5 -44.5q13 -13 21 -30.5t8 -47.5q0 -52 -33 -83.5
t-104 -31.5zM341 137q23 18 31 40.5t8 49.5q0 22 -12 39.5t-40.5 37t-78.5 46.5q-1 1 -11 6.5t-22.5 12t-22.5 12t-11 5.5q-29 -10 -45 -30.5t-16 -46.5q0 -27 11 -43.5t36 -31t67 -37.5q32 -16 59.5 -31t46.5 -29z" />
    <glyph glyph-name="dieresis" unicode="&#xa8;" horiz-adv-x="402" 
d="M123 484q-11 0 -17 6t-6 16t6 15.5t16 5.5q11 0 16.5 -5.5t5.5 -15.5t-5.5 -16t-15.5 -6zM280 484q-10 0 -16 5.5t-6 15.5q0 11 6 16.5t16 5.5t16 -5.5t6 -16.5q0 -10 -6 -15.5t-16 -5.5z" />
    <glyph glyph-name="copyright" unicode="&#xa9;" horiz-adv-x="740" 
d="M370 -22q-66 0 -123 23t-99.5 64.5t-66.5 97t-24 120.5t24 120.5t66.5 97t99.5 64.5t123 23t122.5 -23t99.5 -64.5t67 -97t24 -120.5t-24 -120.5t-67 -97t-99.5 -64.5t-122.5 -23zM370 -1q80 0 145 37.5t103 102t38 144.5q0 81 -38 145t-103 101.5t-145 37.5
t-145.5 -37.5t-103.5 -101.5t-38 -145q0 -80 38 -144.5t103.5 -102t145.5 -37.5zM371 81q-53 0 -98 25.5t-72 71.5t-27 107q0 53 18.5 91t48.5 62t65.5 35.5t68.5 11.5q43 0 77.5 -14t53.5 -47l1 51h22v-110h-23q-4 47 -37.5 73.5t-91.5 26.5q-40 0 -81 -18.5t-68.5 -58
t-27.5 -104.5q0 -54 24 -95.5t63.5 -64t85.5 -22.5q47 0 84 17t70 51l4 -22q-31 -33 -72.5 -50t-87.5 -17z" />
    <glyph glyph-name="ordfeminine" unicode="&#xaa;" horiz-adv-x="330" 
d="M120 274q-52 0 -76 26t-24 60q0 33 16.5 51t43.5 25t58 7q23 0 47 -2.5t43 -5.5v40q0 76 -82 76q-28 0 -54 -6.5t-48 -23.5l-11 20q24 18 53 25t58 7q47 0 70.5 -15.5t32 -37t8.5 -40.5v-180h51v-21h-76l-1 31q-19 -15 -49.5 -25.5t-59.5 -10.5zM121 295q29 0 57.5 9.5
t49.5 28.5v84q-21 2 -43 4t-42 2q-40 0 -68.5 -12.5t-28.5 -50.5q0 -28 19 -46.5t56 -18.5z" />
    <glyph glyph-name="guillemotleft" unicode="&#xab;" horiz-adv-x="374" 
d="M284 143l-131 186l131 183h20l-104 -183l104 -186h-20zM160 143l-131 186l131 183h20l-104 -183l104 -186h-20z" />
    <glyph glyph-name="logicalnot" unicode="&#xac;" horiz-adv-x="436" 
d="M361 156l-1 112h-310v26h335l1 -138h-25z" />
    <glyph glyph-name="uni00AD" unicode="&#xad;" horiz-adv-x="433" 
d="M89 239v23h253v-23h-253z" />
    <glyph glyph-name="registered" unicode="&#xae;" horiz-adv-x="740" 
d="M357 -11q-76 0 -131.5 25.5t-91.5 67.5t-53.5 94t-17.5 104q0 53 18 105.5t54 95.5t91.5 68.5t130.5 25.5q76 0 131.5 -26t92 -69t54.5 -95t18 -105t-17.5 -104.5t-54 -94t-92.5 -67.5t-132 -25zM357 11q68 0 118.5 23.5t84 62.5t50 87t16.5 97q0 48 -16.5 96t-50 88
t-84 64t-118.5 24q-69 0 -119.5 -24t-84 -64t-49.5 -88t-16 -96q0 -50 16 -98t49 -87t84 -62t120 -23zM209 110v18h47v325h-50v18h183q50 0 77.5 -25.5t27.5 -72.5q0 -40 -26 -63t-76 -25l88 -156h50v-19h-65l-97 173h-89v-155h48v-18h-118zM279 302h110q39 0 61 18.5
t22 52.5q0 38 -22 59t-61 21h-110v-151z" />
    <glyph glyph-name="macron" unicode="&#xaf;" horiz-adv-x="384" 
d="M100 483v20h184v-20h-184z" />
    <glyph glyph-name="degree" unicode="&#xb0;" horiz-adv-x="208" 
d="M104 399q-44 0 -73 29.5t-29 72.5q0 44 29 73t73 29t73 -29t29 -73q0 -43 -29 -72.5t-73 -29.5zM104 421q32 0 53 23.5t21 57.5t-21 56.5t-53 22.5t-53 -23t-21 -57t21 -57t53 -23z" />
    <glyph glyph-name="plusminus" unicode="&#xb1;" horiz-adv-x="467" 
d="M220 130v176h-170v24h170v168h28v-168h169v-24h-169v-176h-28zM50 62v24h367v-24h-367z" />
    <glyph glyph-name="uni00B2" unicode="&#xb2;" horiz-adv-x="265" 
d="M14 298v20l123 111q39 35 60 59.5t21 61.5q-1 40 -25 61.5t-64 21.5q-49 0 -72.5 -30t-23.5 -71q0 -8 1 -17.5t3 -18.5h-23q-2 10 -3 19t-1 19q0 33 13 60t39.5 43t66.5 16q47 0 80 -25.5t33 -78.5q0 -39 -28 -71t-63 -64l-124 -110l2 14h198v71h22v-91h-235z" />
    <glyph glyph-name="uni00B3" unicode="&#xb3;" horiz-adv-x="282" 
d="M144 286q-44 0 -78 19.5t-48 51.5l19 12q14 -31 42 -46.5t64 -15.5q44 0 69.5 19t25.5 55q0 38 -27 60.5t-86 22.5v21q54 0 79.5 21t25.5 55q0 33 -22.5 52.5t-61.5 19.5q-34 0 -61.5 -16t-41.5 -43l-18 10q15 32 48 50.5t73 18.5q50 0 79 -24.5t29 -65.5
q0 -46 -33.5 -70t-83.5 -24v10q54 0 89.5 -25.5t35.5 -71.5t-33.5 -71t-84.5 -25z" />
    <glyph glyph-name="acute" unicode="&#xb4;" horiz-adv-x="274" 
d="M100 483l44 123h30l-59 -123h-15z" />
    <glyph glyph-name="uni00B5" unicode="&#xb5;" horiz-adv-x="519" 
d="M113 -128v499h-85v22h114v-289q0 -35 22 -63.5t71 -28.5t86 17t74 42v300h-73v22h102v-372h73v-21h-97l-3 49q-37 -26 -77.5 -43t-86.5 -17q-35 0 -57 11.5t-34 27.5v-156h-29z" />
    <glyph glyph-name="paragraph" unicode="&#xb6;" horiz-adv-x="475" 
d="M239 -8v22h85v310h-118q-51 0 -84 19.5t-49 48t-16 55.5q0 26 15.5 52.5t48.5 45t83 18.5h227v-20h-78v-529h68v-22h-182zM236 352h88v191h-88v-191z" />
    <glyph glyph-name="periodcentered" unicode="&#xb7;" horiz-adv-x="196" 
d="M98 243q-12 0 -20 7.5t-8 20.5t8 20.5t20 7.5t20 -7.5t8 -20.5t-8 -20.5t-20 -7.5z" />
    <glyph glyph-name="cedilla" unicode="&#xb8;" horiz-adv-x="308" 
d="M150 -145q-26 0 -50 13v15q11 -4 21.5 -5.5t18.5 -1.5q18 0 28 5t10 17q0 13 -12.5 19.5t-47.5 7.5l29 75h16l-18 -56q32 0 47.5 -12.5t15.5 -32.5q0 -23 -17.5 -33.5t-40.5 -10.5z" />
    <glyph glyph-name="uni00B9" unicode="&#xb9;" horiz-adv-x="183" 
d="M20 298v20h58v296l-53 -11l-5 21l85 17v-323h58v-20h-143z" />
    <glyph glyph-name="ordmasculine" unicode="&#xba;" horiz-adv-x="359" 
d="M179 274q-39 0 -73 16.5t-55 50t-21 83.5t21 83t55 49.5t73 16.5q40 0 74 -16.5t55 -49.5t21 -83t-21 -83.5t-55 -50t-74 -16.5zM179 296q32 0 59.5 13.5t45 41.5t17.5 73t-17.5 73t-45 41t-59.5 13q-31 0 -58.5 -13t-45 -41.5t-17.5 -73.5q0 -44 17.5 -72.5t45 -41.5
t58.5 -13z" />
    <glyph glyph-name="guillemotright" unicode="&#xbb;" horiz-adv-x="374" 
d="M193 143l104 186l-104 183h20l132 -183l-132 -186h-20zM69 143l104 186l-104 183h20l132 -183l-132 -186h-20z" />
    <glyph glyph-name="onequarter" unicode="&#xbc;" horiz-adv-x="581" 
d="M40 220v20h58v296l-53 -11l-5 21l85 17v-323h58v-20h-143zM89 0l382 563h28l-381 -563h-29zM415 0v20h50v73h-169l-7 19l171 231h28v-230h53v-20h-53v-73h50v-20h-123zM314 113h151v202z" />
    <glyph glyph-name="onehalf" unicode="&#xbd;" horiz-adv-x="651" 
d="M40 219v20h58v296l-53 -11l-5 21l85 17v-323h58v-20h-143zM90 0l382 563h28l-381 -563h-29zM376 0v20l123 111q39 35 60 59.5t21 61.5q-1 40 -25 61.5t-64 21.5q-49 0 -72.5 -30t-23.5 -71q0 -8 1 -17.5t3 -18.5h-23q-2 10 -3 19t-1 19q0 33 13 60t39.5 43t66.5 16
q47 0 80 -25.5t33 -78.5q0 -39 -28 -71t-63 -64l-124 -110l2 14h198v71h22v-91h-235z" />
    <glyph glyph-name="threequarters" unicode="&#xbe;" horiz-adv-x="658" 
d="M166 206q-44 0 -78 19.5t-48 51.5l19 12q14 -31 42 -46.5t64 -15.5q44 0 69.5 19t25.5 55q0 38 -27 60.5t-86 22.5v21q54 0 79.5 21t25.5 55q0 33 -22.5 52.5t-61.5 19.5q-34 0 -61.5 -16t-41.5 -43l-18 10q15 32 48 50.5t73 18.5q50 0 79 -24.5t29 -65.5
q0 -46 -33.5 -70t-83.5 -24v10q54 0 89.5 -25.5t35.5 -71.5t-33.5 -71t-84.5 -25zM168 0l382 563h28l-381 -563h-29zM492 0v20h50v73h-169l-7 19l171 231h28v-230h53v-20h-53v-73h50v-20h-123zM391 113h151v202z" />
    <glyph glyph-name="questiondown" unicode="&#xbf;" horiz-adv-x="312" 
d="M184 278v-9q0 -41 -12.5 -70.5t-33 -53.5t-46.5 -49q-28 -27 -47 -57.5t-19 -73.5q0 -50 31 -79t88 -29q56 0 91 27.5t37 75.5h28q-2 -39 -22.5 -67t-55 -43t-78.5 -15q-70 0 -109.5 36t-39.5 94q0 46 23 80t57 68q24 24 42 45.5t28 47.5t10 63v9h28zM170 418
q12 0 20 -7.5t8 -18.5t-8 -18.5t-20 -7.5t-20 7.5t-8 18.5t8 18.5t20 7.5z" />
    <glyph glyph-name="Agrave" unicode="&#xc0;" horiz-adv-x="675" 
d="M42 0v22h76l193 519h-71v22h198v-22h-73l193 -519h75v-22h-179v22h72l-78 213h-221l-79 -213h73v-22h-179zM233 256h208l-103 282h-2zM327 653l-58 123h30l44 -123h-16z" />
    <glyph glyph-name="Aacute" unicode="&#xc1;" horiz-adv-x="675" 
d="M42 0v22h76l193 519h-71v22h198v-22h-73l193 -519h75v-22h-179v22h72l-78 213h-221l-79 -213h73v-22h-179zM233 256h208l-103 282h-2zM333 653l44 123h30l-59 -123h-15z" />
    <glyph glyph-name="Acircumflex" unicode="&#xc2;" horiz-adv-x="675" 
d="M42 0v22h76l193 519h-71v22h198v-22h-73l193 -519h75v-22h-179v22h72l-78 213h-221l-79 -213h73v-22h-179zM233 256h208l-103 282h-2zM242 623l86 151h21l85 -151h-24l-72 130l-72 -130h-24z" />
    <glyph glyph-name="Atilde" unicode="&#xc3;" horiz-adv-x="675" 
d="M42 0v22h76l193 519h-71v22h198v-22h-73l193 -519h75v-22h-179v22h72l-78 213h-221l-79 -213h73v-22h-179zM233 256h208l-103 282h-2zM391 653q-18 0 -36 10.5t-35 20.5t-35 10q-27 0 -27 -40h-20q0 26 12.5 44t34.5 18q19 0 36.5 -10t35 -20.5t34.5 -10.5q12 0 19.5 9.5
t7.5 29.5h20q0 -30 -10.5 -45.5t-36.5 -15.5z" />
    <glyph glyph-name="Adieresis" unicode="&#xc4;" horiz-adv-x="675" 
d="M42 0v22h76l193 519h-71v22h198v-22h-73l193 -519h75v-22h-179v22h72l-78 213h-221l-79 -213h73v-22h-179zM233 256h208l-103 282h-2zM260 654q-11 0 -17 6t-6 16t6 15.5t16 5.5q11 0 16.5 -5.5t5.5 -15.5t-5.5 -16t-15.5 -6zM417 654q-10 0 -16 5.5t-6 15.5q0 11 6 16.5
t16 5.5t16 -5.5t6 -16.5q0 -10 -6 -15.5t-16 -5.5z" />
    <glyph glyph-name="Aring" unicode="&#xc5;" horiz-adv-x="675" 
d="M42 0v22h76l193 519h-71v22h198v-22h-73l193 -519h75v-22h-179v22h72l-78 213h-221l-79 -213h73v-22h-179zM233 256h208l-103 282h-2zM339 633q-28 0 -44.5 15.5t-15.5 41.5t16 41t43 15t43.5 -15t15.5 -41t-15 -41.5t-43 -15.5zM339 648q18 0 29 11.5t11 30.5t-11 29.5
t-29 10.5q-19 0 -30 -10.5t-11 -29.5t11 -30.5t30 -11.5z" />
    <glyph glyph-name="AE" unicode="&#xc6;" horiz-adv-x="979" 
d="M32 0v22h86l295 519h-68v22h486l27 -192h-25l-25 170h-331l37 -253h213l-13 84h21l34 -201h-21l-17 95h-214l36 -244h357l-25 169h25l29 -191h-496v22h79l-29 190h-234l-106 -190h72v-22h-193zM271 233h220l-45 308h-5z" />
    <glyph glyph-name="Ccedilla" unicode="&#xc7;" horiz-adv-x="686" 
d="M348 -11q-51 0 -102 17.5t-94 53.5t-68.5 92t-25.5 132q0 80 36.5 145.5t102 104t152.5 38.5q68 0 113.5 -18.5t76.5 -52t53 -79.5l-14 6v135h27v-157l-21 -7q-37 76 -90 113t-145 37q-83 0 -141.5 -37.5t-89 -98t-30.5 -130.5q0 -68 22.5 -119t60.5 -84.5t84 -50
t94 -16.5q45 0 89 11.5t83 38.5t66 75l19 -13q-29 -49 -68.5 -79t-87 -43.5t-102.5 -13.5zM345 -145q-26 0 -50 13v15q11 -4 21.5 -5.5t18.5 -1.5q18 0 28 5t10 17q0 13 -12.5 19.5t-47.5 7.5l29 75h16l-18 -56q32 0 47.5 -12.5t15.5 -32.5q0 -23 -17.5 -33.5t-40.5 -10.5z
" />
    <glyph glyph-name="Egrave" unicode="&#xc8;" horiz-adv-x="597" 
d="M60 0v22h85v519h-85v22h459v-161h-26v139h-318v-243h205v83h23v-194h-22v89h-206v-254h330v141h26v-163h-471zM316 653l-58 123h30l44 -123h-16z" />
    <glyph glyph-name="Eacute" unicode="&#xc9;" horiz-adv-x="597" 
d="M60 0v22h85v519h-85v22h459v-161h-26v139h-318v-243h205v83h23v-194h-22v89h-206v-254h330v141h26v-163h-471zM322 653l44 123h30l-59 -123h-15z" />
    <glyph glyph-name="Ecircumflex" unicode="&#xca;" horiz-adv-x="597" 
d="M60 0v22h85v519h-85v22h459v-161h-26v139h-318v-243h205v83h23v-194h-22v89h-206v-254h330v141h26v-163h-471zM231 623l86 151h21l85 -151h-24l-72 130l-72 -130h-24z" />
    <glyph glyph-name="Edieresis" unicode="&#xcb;" horiz-adv-x="597" 
d="M60 0v22h85v519h-85v22h459v-161h-26v139h-318v-243h205v83h23v-194h-22v89h-206v-254h330v141h26v-163h-471zM249 654q-11 0 -17 6t-6 16t6 15.5t16 5.5q11 0 16.5 -5.5t5.5 -15.5t-5.5 -16t-15.5 -6zM406 654q-10 0 -16 5.5t-6 15.5q0 11 6 16.5t16 5.5t16 -5.5
t6 -16.5q0 -10 -6 -15.5t-16 -5.5z" />
    <glyph glyph-name="Igrave" unicode="&#xcc;" horiz-adv-x="311" 
d="M55 0v22h85v519h-85v22h200v-22h-85v-519h85v-22h-200zM146 653l-58 123h30l44 -123h-16z" />
    <glyph glyph-name="Iacute" unicode="&#xcd;" horiz-adv-x="311" 
d="M55 0v22h85v519h-85v22h200v-22h-85v-519h85v-22h-200zM152 653l44 123h30l-59 -123h-15z" />
    <glyph glyph-name="Icircumflex" unicode="&#xce;" horiz-adv-x="311" 
d="M55 0v22h85v519h-85v22h200v-22h-85v-519h85v-22h-200zM61 623l86 151h21l85 -151h-24l-72 130l-72 -130h-24z" />
    <glyph glyph-name="Idieresis" unicode="&#xcf;" horiz-adv-x="311" 
d="M55 0v22h85v519h-85v22h200v-22h-85v-519h85v-22h-200zM79 654q-11 0 -17 6t-6 16t6 15.5t16 5.5q11 0 16.5 -5.5t5.5 -15.5t-5.5 -16t-15.5 -6zM236 654q-10 0 -16 5.5t-6 15.5q0 11 6 16.5t16 5.5t16 -5.5t6 -16.5q0 -10 -6 -15.5t-16 -5.5z" />
    <glyph glyph-name="Eth" unicode="&#xd0;" horiz-adv-x="698" 
d="M60 0v22h85v519h-85v22h335q63 0 108.5 -26t75 -68.5t44 -92t14.5 -96.5q0 -48 -15 -97.5t-44.5 -90.5t-74.5 -66.5t-105 -25.5h-338zM175 22h218q54 0 94.5 22.5t67 60t40 83t13.5 91.5t-13.5 92t-40 84.5t-66 62t-92.5 23.5h-221v-519zM60 273v23h253v-23h-253z" />
    <glyph glyph-name="Ntilde" unicode="&#xd1;" horiz-adv-x="705" 
d="M64 0v22h72v519h-72v22h100l413 -521v499h-75v22h165v-22h-63v-541h-30l-410 518v-496h73v-22h-173zM405 653q-18 0 -36 10.5t-35 20.5t-35 10q-27 0 -27 -40h-20q0 26 12.5 44t34.5 18q19 0 36.5 -10t35 -20.5t34.5 -10.5q12 0 19.5 9.5t7.5 29.5h20q0 -30 -10.5 -45.5
t-36.5 -15.5z" />
    <glyph glyph-name="Ograve" unicode="&#xd2;" horiz-adv-x="710" 
d="M354 -11q-75 0 -130.5 25.5t-91.5 67.5t-53.5 93.5t-17.5 103.5q0 53 18 105t54 94.5t91.5 68.5t130.5 26t130.5 -26t92 -68.5t54.5 -94.5t18 -105t-17.5 -104.5t-54 -93.5t-92.5 -67t-132 -25zM355 13q68 0 117.5 23t82.5 62t49 86t16 95t-16 95.5t-49 87.5t-82.5 64
t-117.5 24t-117.5 -24t-82 -64t-48.5 -87.5t-16 -95.5q0 -49 15.5 -96.5t48 -86t82 -61t118.5 -22.5zM343 653l-58 123h30l44 -123h-16z" />
    <glyph glyph-name="Oacute" unicode="&#xd3;" horiz-adv-x="710" 
d="M354 -11q-75 0 -130.5 25.5t-91.5 67.5t-53.5 93.5t-17.5 103.5q0 53 18 105t54 94.5t91.5 68.5t130.5 26t130.5 -26t92 -68.5t54.5 -94.5t18 -105t-17.5 -104.5t-54 -93.5t-92.5 -67t-132 -25zM355 13q68 0 117.5 23t82.5 62t49 86t16 95t-16 95.5t-49 87.5t-82.5 64
t-117.5 24t-117.5 -24t-82 -64t-48.5 -87.5t-16 -95.5q0 -49 15.5 -96.5t48 -86t82 -61t118.5 -22.5zM349 653l44 123h30l-59 -123h-15z" />
    <glyph glyph-name="Ocircumflex" unicode="&#xd4;" horiz-adv-x="710" 
d="M354 -11q-75 0 -130.5 25.5t-91.5 67.5t-53.5 93.5t-17.5 103.5q0 53 18 105t54 94.5t91.5 68.5t130.5 26t130.5 -26t92 -68.5t54.5 -94.5t18 -105t-17.5 -104.5t-54 -93.5t-92.5 -67t-132 -25zM355 13q68 0 117.5 23t82.5 62t49 86t16 95t-16 95.5t-49 87.5t-82.5 64
t-117.5 24t-117.5 -24t-82 -64t-48.5 -87.5t-16 -95.5q0 -49 15.5 -96.5t48 -86t82 -61t118.5 -22.5zM258 623l86 151h21l85 -151h-24l-72 130l-72 -130h-24z" />
    <glyph glyph-name="Otilde" unicode="&#xd5;" horiz-adv-x="710" 
d="M354 -11q-75 0 -130.5 25.5t-91.5 67.5t-53.5 93.5t-17.5 103.5q0 53 18 105t54 94.5t91.5 68.5t130.5 26t130.5 -26t92 -68.5t54.5 -94.5t18 -105t-17.5 -104.5t-54 -93.5t-92.5 -67t-132 -25zM355 13q68 0 117.5 23t82.5 62t49 86t16 95t-16 95.5t-49 87.5t-82.5 64
t-117.5 24t-117.5 -24t-82 -64t-48.5 -87.5t-16 -95.5q0 -49 15.5 -96.5t48 -86t82 -61t118.5 -22.5zM407 653q-18 0 -36 10.5t-35 20.5t-35 10q-27 0 -27 -40h-20q0 26 12.5 44t34.5 18q19 0 36.5 -10t35 -20.5t34.5 -10.5q12 0 19.5 9.5t7.5 29.5h20q0 -30 -10.5 -45.5
t-36.5 -15.5z" />
    <glyph glyph-name="Odieresis" unicode="&#xd6;" horiz-adv-x="710" 
d="M354 -11q-75 0 -130.5 25.5t-91.5 67.5t-53.5 93.5t-17.5 103.5q0 53 18 105t54 94.5t91.5 68.5t130.5 26t130.5 -26t92 -68.5t54.5 -94.5t18 -105t-17.5 -104.5t-54 -93.5t-92.5 -67t-132 -25zM355 13q68 0 117.5 23t82.5 62t49 86t16 95t-16 95.5t-49 87.5t-82.5 64
t-117.5 24t-117.5 -24t-82 -64t-48.5 -87.5t-16 -95.5q0 -49 15.5 -96.5t48 -86t82 -61t118.5 -22.5zM276 654q-11 0 -17 6t-6 16t6 15.5t16 5.5q11 0 16.5 -5.5t5.5 -15.5t-5.5 -16t-15.5 -6zM433 654q-10 0 -16 5.5t-6 15.5q0 11 6 16.5t16 5.5t16 -5.5t6 -16.5
q0 -10 -6 -15.5t-16 -5.5z" />
    <glyph glyph-name="multiply" unicode="&#xd7;" horiz-adv-x="412" 
d="M38 95l-18 18l168 168l-164 163l19 19l163 -164l168 168l18 -18l-168 -168l164 -163l-19 -19l-163 164z" />
    <glyph glyph-name="Oslash" unicode="&#xd8;" horiz-adv-x="649" 
d="M98 -35l-17 12l476 616l15 -11zM323 -15q-75 0 -130.5 25.5t-91.5 67.5t-53.5 93.5t-17.5 103.5q0 53 18 105t54 94.5t91.5 68.5t130.5 26t130.5 -26t92 -68.5t54.5 -94.5t18 -105t-17.5 -104.5t-54 -93.5t-92.5 -67t-132 -25zM324 9q68 0 117.5 23t82.5 62t49 86t16 95
t-16 95.5t-49 87.5t-82.5 64t-117.5 24t-117.5 -24t-82 -64t-48.5 -87.5t-16 -95.5q0 -49 15.5 -96.5t48 -86t82 -61t118.5 -22.5z" />
    <glyph glyph-name="Ugrave" unicode="&#xd9;" horiz-adv-x="729" 
d="M360 -11q-73 0 -128 24.5t-85.5 68t-30.5 101.5v358h-74v22h179v-22h-75v-358q0 -50 27 -88.5t75.5 -60t111.5 -21.5q69 0 120.5 21t80.5 59.5t29 88.5v359h-73v22h179v-22h-77v-359q0 -58 -33 -101.5t-91.5 -67.5t-134.5 -24zM355 653l-58 123h30l44 -123h-16z" />
    <glyph glyph-name="Uacute" unicode="&#xda;" horiz-adv-x="729" 
d="M360 -11q-73 0 -128 24.5t-85.5 68t-30.5 101.5v358h-74v22h179v-22h-75v-358q0 -50 27 -88.5t75.5 -60t111.5 -21.5q69 0 120.5 21t80.5 59.5t29 88.5v359h-73v22h179v-22h-77v-359q0 -58 -33 -101.5t-91.5 -67.5t-134.5 -24zM361 653l44 123h30l-59 -123h-15z" />
    <glyph glyph-name="Ucircumflex" unicode="&#xdb;" horiz-adv-x="729" 
d="M360 -11q-73 0 -128 24.5t-85.5 68t-30.5 101.5v358h-74v22h179v-22h-75v-358q0 -50 27 -88.5t75.5 -60t111.5 -21.5q69 0 120.5 21t80.5 59.5t29 88.5v359h-73v22h179v-22h-77v-359q0 -58 -33 -101.5t-91.5 -67.5t-134.5 -24zM270 623l86 151h21l85 -151h-24l-72 130
l-72 -130h-24z" />
    <glyph glyph-name="Udieresis" unicode="&#xdc;" horiz-adv-x="729" 
d="M360 -11q-73 0 -128 24.5t-85.5 68t-30.5 101.5v358h-74v22h179v-22h-75v-358q0 -50 27 -88.5t75.5 -60t111.5 -21.5q69 0 120.5 21t80.5 59.5t29 88.5v359h-73v22h179v-22h-77v-359q0 -58 -33 -101.5t-91.5 -67.5t-134.5 -24zM288 654q-11 0 -17 6t-6 16t6 15.5t16 5.5
q11 0 16.5 -5.5t5.5 -15.5t-5.5 -16t-15.5 -6zM445 654q-10 0 -16 5.5t-6 15.5q0 11 6 16.5t16 5.5t16 -5.5t6 -16.5q0 -10 -6 -15.5t-16 -5.5z" />
    <glyph glyph-name="Yacute" unicode="&#xdd;" horiz-adv-x="615" 
d="M210 0v22h82v205l-209 314h-76v22h183v-22h-74l193 -289l191 289h-78v22h184v-22h-75l-209 -314v-205h83v-22h-195zM306 653l44 123h30l-59 -123h-15z" />
    <glyph glyph-name="Thorn" unicode="&#xde;" horiz-adv-x="583" 
d="M55 0v22h85v519h-85v22h200v-22h-85v-102l-12 7h195q77 0 119.5 -37t42.5 -103t-41.5 -103t-115.5 -37h-136v21h136q60 0 93.5 31.5t33.5 87.5q-1 56 -35.5 87.5t-96.5 31.5h-195l12 7v-410h85v-22h-200z" />
    <glyph glyph-name="germandbls" unicode="&#xdf;" horiz-adv-x="520" 
d="M26 0v24h75v369q0 92 47 141t132 49q72 0 115 -35.5t43 -92.5q0 -55 -36.5 -90.5t-107.5 -37.5v10q60 0 104 -19.5t68 -55.5t24 -88q0 -96 -62 -135t-169 -39v24q60 0 105.5 14t71 47t25.5 89q0 76 -51.5 111t-140.5 35h-2v23h2q73 0 107 31t34 81q0 48 -32.5 76.5
t-97.5 28.5q-76 0 -112 -44t-36 -121v-371h59v-24h-165z" />
    <glyph glyph-name="agrave" unicode="&#xe0;" horiz-adv-x="442" 
d="M172 -11q-59 0 -95.5 32.5t-36.5 84.5q0 44 19 69t50.5 35.5t67.5 10.5q39 0 80 -6t81 -14l-14 -6v68q0 61 -32.5 89.5t-82.5 28.5q-35 0 -70.5 -9.5t-66.5 -22.5l-9 22q40 17 77.5 24.5t65.5 7.5q59 0 90.5 -20.5t44 -51t12.5 -60.5v-249h60v-22h-81l-8 46h12
q-48 -29 -88 -43t-76 -14zM173 11q37 0 74 14t92 45l-15 -15v135l15 -9q-43 9 -83 14.5t-78 5.5q-43 0 -76.5 -21.5t-33.5 -74.5q0 -37 27 -65.5t78 -28.5zM207 483l-58 123h30l44 -123h-16z" />
    <glyph glyph-name="aacute" unicode="&#xe1;" horiz-adv-x="442" 
d="M172 -11q-59 0 -95.5 32.5t-36.5 84.5q0 44 19 69t50.5 35.5t67.5 10.5q39 0 80 -6t81 -14l-14 -6v68q0 61 -32.5 89.5t-82.5 28.5q-35 0 -70.5 -9.5t-66.5 -22.5l-9 22q40 17 77.5 24.5t65.5 7.5q59 0 90.5 -20.5t44 -51t12.5 -60.5v-249h60v-22h-81l-8 46h12
q-48 -29 -88 -43t-76 -14zM173 11q37 0 74 14t92 45l-15 -15v135l15 -9q-43 9 -83 14.5t-78 5.5q-43 0 -76.5 -21.5t-33.5 -74.5q0 -37 27 -65.5t78 -28.5zM213 483l44 123h30l-59 -123h-15z" />
    <glyph glyph-name="acircumflex" unicode="&#xe2;" horiz-adv-x="442" 
d="M172 -11q-59 0 -95.5 32.5t-36.5 84.5q0 44 19 69t50.5 35.5t67.5 10.5q39 0 80 -6t81 -14l-14 -6v68q0 61 -32.5 89.5t-82.5 28.5q-35 0 -70.5 -9.5t-66.5 -22.5l-9 22q40 17 77.5 24.5t65.5 7.5q59 0 90.5 -20.5t44 -51t12.5 -60.5v-249h60v-22h-81l-8 46h12
q-48 -29 -88 -43t-76 -14zM173 11q37 0 74 14t92 45l-15 -15v135l15 -9q-43 9 -83 14.5t-78 5.5q-43 0 -76.5 -21.5t-33.5 -74.5q0 -37 27 -65.5t78 -28.5zM122 453l86 151h21l85 -151h-24l-72 130l-72 -130h-24z" />
    <glyph glyph-name="atilde" unicode="&#xe3;" horiz-adv-x="442" 
d="M172 -11q-59 0 -95.5 32.5t-36.5 84.5q0 44 19 69t50.5 35.5t67.5 10.5q39 0 80 -6t81 -14l-14 -6v68q0 61 -32.5 89.5t-82.5 28.5q-35 0 -70.5 -9.5t-66.5 -22.5l-9 22q40 17 77.5 24.5t65.5 7.5q59 0 90.5 -20.5t44 -51t12.5 -60.5v-249h60v-22h-81l-8 46h12
q-48 -29 -88 -43t-76 -14zM173 11q37 0 74 14t92 45l-15 -15v135l15 -9q-43 9 -83 14.5t-78 5.5q-43 0 -76.5 -21.5t-33.5 -74.5q0 -37 27 -65.5t78 -28.5zM271 483q-18 0 -36 10.5t-35 20.5t-35 10q-27 0 -27 -40h-20q0 26 12.5 44t34.5 18q19 0 36.5 -10t35 -20.5
t34.5 -10.5q12 0 19.5 9.5t7.5 29.5h20q0 -30 -10.5 -45.5t-36.5 -15.5z" />
    <glyph glyph-name="adieresis" unicode="&#xe4;" horiz-adv-x="442" 
d="M172 -11q-59 0 -95.5 32.5t-36.5 84.5q0 44 19 69t50.5 35.5t67.5 10.5q39 0 80 -6t81 -14l-14 -6v68q0 61 -32.5 89.5t-82.5 28.5q-35 0 -70.5 -9.5t-66.5 -22.5l-9 22q40 17 77.5 24.5t65.5 7.5q59 0 90.5 -20.5t44 -51t12.5 -60.5v-249h60v-22h-81l-8 46h12
q-48 -29 -88 -43t-76 -14zM173 11q37 0 74 14t92 45l-15 -15v135l15 -9q-43 9 -83 14.5t-78 5.5q-43 0 -76.5 -21.5t-33.5 -74.5q0 -37 27 -65.5t78 -28.5zM140 484q-11 0 -17 6t-6 16t6 15.5t16 5.5q11 0 16.5 -5.5t5.5 -15.5t-5.5 -16t-15.5 -6zM297 484q-10 0 -16 5.5
t-6 15.5q0 11 6 16.5t16 5.5t16 -5.5t6 -16.5q0 -10 -6 -15.5t-16 -5.5z" />
    <glyph glyph-name="aring" unicode="&#xe5;" horiz-adv-x="442" 
d="M172 -11q-59 0 -95.5 32.5t-36.5 84.5q0 44 19 69t50.5 35.5t67.5 10.5q39 0 80 -6t81 -14l-14 -6v68q0 61 -32.5 89.5t-82.5 28.5q-35 0 -70.5 -9.5t-66.5 -22.5l-9 22q40 17 77.5 24.5t65.5 7.5q59 0 90.5 -20.5t44 -51t12.5 -60.5v-249h60v-22h-81l-8 46h12
q-48 -29 -88 -43t-76 -14zM173 11q37 0 74 14t92 45l-15 -15v135l15 -9q-43 9 -83 14.5t-78 5.5q-43 0 -76.5 -21.5t-33.5 -74.5q0 -37 27 -65.5t78 -28.5zM219 463q-28 0 -44.5 15.5t-15.5 41.5t16 41t43 15t43.5 -15t15.5 -41t-15 -41.5t-43 -15.5zM219 478q18 0 29 11.5
t11 30.5t-11 29.5t-29 10.5q-19 0 -30 -10.5t-11 -29.5t11 -30.5t30 -11.5z" />
    <glyph glyph-name="ae" unicode="&#xe6;" horiz-adv-x="768" 
d="M177 -11q-63 0 -100 29.5t-37 80.5q0 41 22 65.5t57.5 35t77.5 10.5h127v53q0 61 -32.5 89.5t-82.5 28.5q-35 0 -70.5 -9.5t-66.5 -22.5l-9 22q40 17 77.5 24.5t65.5 7.5q51 0 80.5 -16.5t43.5 -42.5t17 -53q26 56 76 84.5t105 28.5q50 0 92.5 -22t68.5 -68.5t26 -118.5
v-6h-363q3 -52 27 -92t64 -62.5t89 -22.5q47 0 93 21t71 52l10 -22q-37 -37 -83 -55.5t-92 -18.5q-56 0 -105.5 27t-76.5 78q-22 -50 -67.5 -77.5t-104.5 -27.5zM178 11q54 0 98.5 27.5t59.5 83.5q-5 16 -8 32.5t-4 34.5h-126q-34 0 -64 -9t-48 -28.5t-18 -53.5
q0 -40 27.5 -63.5t82.5 -23.5zM352 210h336q0 59 -23 97t-59.5 56.5t-77.5 18.5q-46 0 -85.5 -20.5t-63.5 -59t-27 -92.5z" />
    <glyph glyph-name="ccedilla" unicode="&#xe7;" horiz-adv-x="467" 
d="M233 -11q-59 0 -105 27t-72 74t-26 108q0 60 26 106.5t72 72.5t105 26q53 0 93.5 -24t51.5 -62h-9v76h27v-115h-23q-7 45 -44.5 74t-93.5 29q-51 0 -91 -23.5t-62.5 -65t-22.5 -95.5t22.5 -95.5t62 -65.5t90.5 -24q47 0 83 16.5t70 49.5l11 -19q-33 -34 -72.5 -52
t-92.5 -18zM213 -145q-26 0 -50 13v15q11 -4 21.5 -5.5t18.5 -1.5q18 0 28 5t10 17q0 13 -12.5 19.5t-47.5 7.5l29 75h16l-18 -56q32 0 47.5 -12.5t15.5 -32.5q0 -23 -17.5 -33.5t-40.5 -10.5z" />
    <glyph glyph-name="egrave" unicode="&#xe8;" horiz-adv-x="474" 
d="M237 -11q-54 0 -101 24.5t-76.5 71.5t-29.5 112q0 69 29 115t75 69t96 23q51 0 94.5 -22t70 -68.5t26.5 -118.5v-6h-367v21h340q0 59 -23.5 97t-61 56.5t-79.5 18.5q-46 0 -85 -22t-62.5 -63t-23.5 -98q0 -55 23.5 -97t64.5 -66t91 -24q47 0 93 21t71 52l10 -22
q-37 -37 -83 -55.5t-92 -18.5zM227 483l-58 123h30l44 -123h-16z" />
    <glyph glyph-name="eacute" unicode="&#xe9;" horiz-adv-x="474" 
d="M237 -11q-54 0 -101 24.5t-76.5 71.5t-29.5 112q0 69 29 115t75 69t96 23q51 0 94.5 -22t70 -68.5t26.5 -118.5v-6h-367v21h340q0 59 -23.5 97t-61 56.5t-79.5 18.5q-46 0 -85 -22t-62.5 -63t-23.5 -98q0 -55 23.5 -97t64.5 -66t91 -24q47 0 93 21t71 52l10 -22
q-37 -37 -83 -55.5t-92 -18.5zM233 483l44 123h30l-59 -123h-15z" />
    <glyph glyph-name="ecircumflex" unicode="&#xea;" horiz-adv-x="474" 
d="M237 -11q-54 0 -101 24.5t-76.5 71.5t-29.5 112q0 69 29 115t75 69t96 23q51 0 94.5 -22t70 -68.5t26.5 -118.5v-6h-367v21h340q0 59 -23.5 97t-61 56.5t-79.5 18.5q-46 0 -85 -22t-62.5 -63t-23.5 -98q0 -55 23.5 -97t64.5 -66t91 -24q47 0 93 21t71 52l10 -22
q-37 -37 -83 -55.5t-92 -18.5zM142 453l86 151h21l85 -151h-24l-72 130l-72 -130h-24z" />
    <glyph glyph-name="edieresis" unicode="&#xeb;" horiz-adv-x="474" 
d="M237 -11q-54 0 -101 24.5t-76.5 71.5t-29.5 112q0 69 29 115t75 69t96 23q51 0 94.5 -22t70 -68.5t26.5 -118.5v-6h-367v21h340q0 59 -23.5 97t-61 56.5t-79.5 18.5q-46 0 -85 -22t-62.5 -63t-23.5 -98q0 -55 23.5 -97t64.5 -66t91 -24q47 0 93 21t71 52l10 -22
q-37 -37 -83 -55.5t-92 -18.5zM160 484q-11 0 -17 6t-6 16t6 15.5t16 5.5q11 0 16.5 -5.5t5.5 -15.5t-5.5 -16t-15.5 -6zM317 484q-10 0 -16 5.5t-6 15.5q0 11 6 16.5t16 5.5t16 -5.5t6 -16.5q0 -10 -6 -15.5t-16 -5.5z" />
    <glyph glyph-name="igrave" unicode="&#xec;" horiz-adv-x="236" 
d="M18 0v22h86v349h-85v22h114v-371h84v-22h-199zM100 483l-58 123h30l44 -123h-16z" />
    <glyph glyph-name="iacute" unicode="&#xed;" horiz-adv-x="236" 
d="M18 0v22h86v349h-85v22h114v-371h84v-22h-199zM106 483l44 123h30l-59 -123h-15z" />
    <glyph glyph-name="icircumflex" unicode="&#xee;" horiz-adv-x="236" 
d="M18 0v22h86v349h-85v22h114v-371h84v-22h-199zM15 453l86 151h21l85 -151h-24l-72 130l-72 -130h-24z" />
    <glyph glyph-name="idieresis" unicode="&#xef;" horiz-adv-x="236" 
d="M18 0v22h86v349h-85v22h114v-371h84v-22h-199zM33 484q-11 0 -17 6t-6 16t6 15.5t16 5.5q11 0 16.5 -5.5t5.5 -15.5t-5.5 -16t-15.5 -6zM190 484q-10 0 -16 5.5t-6 15.5q0 11 6 16.5t16 5.5t16 -5.5t6 -16.5q0 -10 -6 -15.5t-16 -5.5z" />
    <glyph glyph-name="eth" unicode="&#xf0;" horiz-adv-x="439" 
d="M216 -11q-66 0 -109 28t-64 72.5t-21 92.5q0 57 24.5 100t67 67t96.5 24q53 0 90.5 -19.5t63.5 -52.5q-33 73 -85.5 135t-111 114t-108.5 95l16 17q34 -29 77.5 -66.5t87.5 -82.5t81.5 -95.5t60.5 -107t23 -117.5q0 -66 -26 -111.5t-69 -69t-94 -23.5zM216 15
q58 0 93.5 25.5t51.5 65t16 80.5q0 57 -24.5 93.5t-62 53.5t-77.5 17q-38 0 -75.5 -18t-61.5 -54.5t-24 -93.5q0 -41 17 -80t53.5 -64t93.5 -25zM85 446l-12 22l271 115l12 -20z" />
    <glyph glyph-name="ntilde" unicode="&#xf1;" horiz-adv-x="497" 
d="M18 0v22h86v349h-85v22h114v-50h-9q43 26 87.5 43t87.5 17q55 0 87.5 -32.5t32.5 -88.5v-260h75v-22h-189v22h85v268q0 42 -26 66t-70 24q-35 0 -80 -17t-90 -43l9 15v-313h84v-22h-199zM317 483q-18 0 -36 10.5t-35 20.5t-35 10q-27 0 -27 -40h-20q0 26 12.5 44t34.5 18
q19 0 36.5 -10t35 -20.5t34.5 -10.5q12 0 19.5 9.5t7.5 29.5h20q0 -30 -10.5 -45.5t-36.5 -15.5z" />
    <glyph glyph-name="ograve" unicode="&#xf2;" horiz-adv-x="481" 
d="M239 -12q-61 0 -108 27t-74 74.5t-27 109.5q0 60 27 106.5t74 72.5t108 26q62 0 110 -26t75 -72t27 -107q0 -62 -27 -109.5t-75 -74.5t-110 -27zM239 11q54 0 95 24t64.5 66.5t23.5 97.5q0 54 -23.5 95.5t-64.5 64.5t-95 23q-53 0 -93.5 -23t-63.5 -64.5t-23 -95.5
q0 -55 23 -97.5t63.5 -66.5t93.5 -24zM227 483l-58 123h30l44 -123h-16z" />
    <glyph glyph-name="oacute" unicode="&#xf3;" horiz-adv-x="481" 
d="M239 -12q-61 0 -108 27t-74 74.5t-27 109.5q0 60 27 106.5t74 72.5t108 26q62 0 110 -26t75 -72t27 -107q0 -62 -27 -109.5t-75 -74.5t-110 -27zM239 11q54 0 95 24t64.5 66.5t23.5 97.5q0 54 -23.5 95.5t-64.5 64.5t-95 23q-53 0 -93.5 -23t-63.5 -64.5t-23 -95.5
q0 -55 23 -97.5t63.5 -66.5t93.5 -24zM233 483l44 123h30l-59 -123h-15z" />
    <glyph glyph-name="ocircumflex" unicode="&#xf4;" horiz-adv-x="481" 
d="M239 -12q-61 0 -108 27t-74 74.5t-27 109.5q0 60 27 106.5t74 72.5t108 26q62 0 110 -26t75 -72t27 -107q0 -62 -27 -109.5t-75 -74.5t-110 -27zM239 11q54 0 95 24t64.5 66.5t23.5 97.5q0 54 -23.5 95.5t-64.5 64.5t-95 23q-53 0 -93.5 -23t-63.5 -64.5t-23 -95.5
q0 -55 23 -97.5t63.5 -66.5t93.5 -24zM142 453l86 151h21l85 -151h-24l-72 130l-72 -130h-24z" />
    <glyph glyph-name="otilde" unicode="&#xf5;" horiz-adv-x="481" 
d="M239 -12q-61 0 -108 27t-74 74.5t-27 109.5q0 60 27 106.5t74 72.5t108 26q62 0 110 -26t75 -72t27 -107q0 -62 -27 -109.5t-75 -74.5t-110 -27zM239 11q54 0 95 24t64.5 66.5t23.5 97.5q0 54 -23.5 95.5t-64.5 64.5t-95 23q-53 0 -93.5 -23t-63.5 -64.5t-23 -95.5
q0 -55 23 -97.5t63.5 -66.5t93.5 -24zM291 483q-18 0 -36 10.5t-35 20.5t-35 10q-27 0 -27 -40h-20q0 26 12.5 44t34.5 18q19 0 36.5 -10t35 -20.5t34.5 -10.5q12 0 19.5 9.5t7.5 29.5h20q0 -30 -10.5 -45.5t-36.5 -15.5z" />
    <glyph glyph-name="odieresis" unicode="&#xf6;" horiz-adv-x="481" 
d="M239 -12q-61 0 -108 27t-74 74.5t-27 109.5q0 60 27 106.5t74 72.5t108 26q62 0 110 -26t75 -72t27 -107q0 -62 -27 -109.5t-75 -74.5t-110 -27zM239 11q54 0 95 24t64.5 66.5t23.5 97.5q0 54 -23.5 95.5t-64.5 64.5t-95 23q-53 0 -93.5 -23t-63.5 -64.5t-23 -95.5
q0 -55 23 -97.5t63.5 -66.5t93.5 -24zM160 484q-11 0 -17 6t-6 16t6 15.5t16 5.5q11 0 16.5 -5.5t5.5 -15.5t-5.5 -16t-15.5 -6zM317 484q-10 0 -16 5.5t-6 15.5q0 11 6 16.5t16 5.5t16 -5.5t6 -16.5q0 -10 -6 -15.5t-16 -5.5z" />
    <glyph glyph-name="divide" unicode="&#xf7;" horiz-adv-x="455" 
d="M50 268v26h355v-26h-355zM210 91v70h36v-70h-36zM210 401v70h36v-70h-36z" />
    <glyph glyph-name="oslash" unicode="&#xf8;" horiz-adv-x="497" 
d="M96 -70l-16 9l312 509l16 -10zM239 -12q-61 0 -108 27t-74 74.5t-27 109.5q0 60 27 106.5t74 72.5t108 26q62 0 110 -26t75 -72t27 -107q0 -62 -27 -109.5t-75 -74.5t-110 -27zM239 11q54 0 95 24t64.5 66.5t23.5 97.5q0 54 -23.5 95.5t-64.5 64.5t-95 23
q-53 0 -93.5 -23t-63.5 -64.5t-23 -95.5q0 -55 23 -97.5t63.5 -66.5t93.5 -24z" />
    <glyph glyph-name="ugrave" unicode="&#xf9;" horiz-adv-x="502" 
d="M215 -11q-49 0 -75.5 20t-36 47t-9.5 47v268h-76v22h106v-289q0 -35 22 -63.5t71 -28.5q57 0 99 21t87 56l-26 -24v306h-73v22h103v-372h73v-21h-98l-4 62l26 6q-42 -37 -89 -58t-100 -21zM227 483l-58 123h30l44 -123h-16z" />
    <glyph glyph-name="uacute" unicode="&#xfa;" horiz-adv-x="502" 
d="M215 -11q-49 0 -75.5 20t-36 47t-9.5 47v268h-76v22h106v-289q0 -35 22 -63.5t71 -28.5q57 0 99 21t87 56l-26 -24v306h-73v22h103v-372h73v-21h-98l-4 62l26 6q-42 -37 -89 -58t-100 -21zM233 483l44 123h30l-59 -123h-15z" />
    <glyph glyph-name="ucircumflex" unicode="&#xfb;" horiz-adv-x="502" 
d="M215 -11q-49 0 -75.5 20t-36 47t-9.5 47v268h-76v22h106v-289q0 -35 22 -63.5t71 -28.5q57 0 99 21t87 56l-26 -24v306h-73v22h103v-372h73v-21h-98l-4 62l26 6q-42 -37 -89 -58t-100 -21zM142 453l86 151h21l85 -151h-24l-72 130l-72 -130h-24z" />
    <glyph glyph-name="udieresis" unicode="&#xfc;" horiz-adv-x="502" 
d="M215 -11q-49 0 -75.5 20t-36 47t-9.5 47v268h-76v22h106v-289q0 -35 22 -63.5t71 -28.5q57 0 99 21t87 56l-26 -24v306h-73v22h103v-372h73v-21h-98l-4 62l26 6q-42 -37 -89 -58t-100 -21zM160 484q-11 0 -17 6t-6 16t6 15.5t16 5.5q11 0 16.5 -5.5t5.5 -15.5t-5.5 -16
t-15.5 -6zM317 484q-10 0 -16 5.5t-6 15.5q0 11 6 16.5t16 5.5t16 -5.5t6 -16.5q0 -10 -6 -15.5t-16 -5.5z" />
    <glyph glyph-name="yacute" unicode="&#xfd;" horiz-adv-x="523" 
d="M115 -122v26h39q30 0 45.5 4t25.5 16t20 35l31 71h-18l-154 341h-81v22h182v-22h-71l147 -330l139 330h-83v22h177v-22h-64l-179 -418q-13 -30 -26.5 -46t-34 -22.5t-55.5 -6.5h-40zM266 483l44 123h30l-59 -123h-15z" />
    <glyph glyph-name="thorn" unicode="&#xfe;" horiz-adv-x="508" 
d="M28 -155v22h68v672h-75v24h104v-214q34 26 74 40.5t77 14.5q61 0 106 -24t70 -69.5t25 -108.5q0 -65 -25.5 -113t-72 -73.5t-109.5 -25.5q-39 0 -77.5 15.5t-67.5 43.5v-182h66v-22h-163zM268 13q83 0 131.5 49t48.5 134q0 86 -47 136t-127 50q-35 0 -74.5 -15.5
t-74.5 -41.5v-251q29 -29 67.5 -45t75.5 -16z" />
    <glyph glyph-name="ydieresis" unicode="&#xff;" horiz-adv-x="523" 
d="M115 -122v26h39q30 0 45.5 4t25.5 16t20 35l31 71h-18l-154 341h-81v22h182v-22h-71l147 -330l139 330h-83v22h177v-22h-64l-179 -418q-13 -30 -26.5 -46t-34 -22.5t-55.5 -6.5h-40zM193 484q-11 0 -17 6t-6 16t6 15.5t16 5.5q11 0 16.5 -5.5t5.5 -15.5t-5.5 -16
t-15.5 -6zM350 484q-10 0 -16 5.5t-6 15.5q0 11 6 16.5t16 5.5t16 -5.5t6 -16.5q0 -10 -6 -15.5t-16 -5.5z" />
    <glyph glyph-name="Amacron" unicode="&#x100;" horiz-adv-x="675" 
d="M42 0v22h76l193 519h-71v22h198v-22h-73l193 -519h75v-22h-179v22h72l-78 213h-221l-79 -213h73v-22h-179zM233 256h208l-103 282h-2zM246 653v20h184v-20h-184z" />
    <glyph glyph-name="amacron" unicode="&#x101;" horiz-adv-x="442" 
d="M172 -11q-59 0 -95.5 32.5t-36.5 84.5q0 44 19 69t50.5 35.5t67.5 10.5q39 0 80 -6t81 -14l-14 -6v68q0 61 -32.5 89.5t-82.5 28.5q-35 0 -70.5 -9.5t-66.5 -22.5l-9 22q40 17 77.5 24.5t65.5 7.5q59 0 90.5 -20.5t44 -51t12.5 -60.5v-249h60v-22h-81l-8 46h12
q-48 -29 -88 -43t-76 -14zM173 11q37 0 74 14t92 45l-15 -15v135l15 -9q-43 9 -83 14.5t-78 5.5q-43 0 -76.5 -21.5t-33.5 -74.5q0 -37 27 -65.5t78 -28.5zM126 483v20h184v-20h-184z" />
    <glyph glyph-name="Abreve" unicode="&#x102;" horiz-adv-x="675" 
d="M42 0v22h76l193 519h-71v22h198v-22h-73l193 -519h75v-22h-179v22h72l-78 213h-221l-79 -213h73v-22h-179zM233 256h208l-103 282h-2zM338 653q-29 0 -47.5 17t-24.5 50h19q12 -46 53 -46q20 0 32.5 11.5t19.5 34.5h19q-6 -33 -24 -50t-47 -17z" />
    <glyph glyph-name="abreve" unicode="&#x103;" horiz-adv-x="442" 
d="M172 -11q-59 0 -95.5 32.5t-36.5 84.5q0 44 19 69t50.5 35.5t67.5 10.5q39 0 80 -6t81 -14l-14 -6v68q0 61 -32.5 89.5t-82.5 28.5q-35 0 -70.5 -9.5t-66.5 -22.5l-9 22q40 17 77.5 24.5t65.5 7.5q59 0 90.5 -20.5t44 -51t12.5 -60.5v-249h60v-22h-81l-8 46h12
q-48 -29 -88 -43t-76 -14zM173 11q37 0 74 14t92 45l-15 -15v135l15 -9q-43 9 -83 14.5t-78 5.5q-43 0 -76.5 -21.5t-33.5 -74.5q0 -37 27 -65.5t78 -28.5zM218 483q-29 0 -47.5 17t-24.5 50h19q12 -46 53 -46q20 0 32.5 11.5t19.5 34.5h19q-6 -33 -24 -50t-47 -17z" />
    <glyph glyph-name="Aogonek" unicode="&#x104;" horiz-adv-x="675" 
d="M42 0v22h76l193 519h-71v22h198v-22h-73l193 -519h75v-22h-179v22h72l-78 213h-221l-79 -213h73v-22h-179zM233 256h208l-103 282h-2zM545 -153q-26 0 -45.5 16t-19.5 44q0 23 14 46.5t41 46.5h22q-23 -23 -36 -44t-13 -42q0 -22 13 -33.5t32 -11.5q24 0 47 17v-20
q-13 -9 -27 -14t-28 -5z" />
    <glyph glyph-name="aogonek" unicode="&#x105;" horiz-adv-x="442" 
d="M172 -11q-59 0 -95.5 32.5t-36.5 84.5q0 44 19 69t50.5 35.5t67.5 10.5q39 0 80 -6t81 -14l-14 -6v68q0 61 -32.5 89.5t-82.5 28.5q-35 0 -70.5 -9.5t-66.5 -22.5l-9 22q40 17 77.5 24.5t65.5 7.5q59 0 90.5 -20.5t44 -51t12.5 -60.5v-249h60v-22h-81l-8 46h12
q-48 -29 -88 -43t-76 -14zM173 11q37 0 74 14t92 45l-15 -15v135l15 -9q-43 9 -83 14.5t-78 5.5q-43 0 -76.5 -21.5t-33.5 -74.5q0 -37 27 -65.5t78 -28.5zM374 -153q-26 0 -45.5 16t-19.5 44q0 23 14 46.5t41 46.5h22q-23 -23 -36 -44t-13 -42q0 -22 13 -33.5t32 -11.5
q24 0 47 17v-20q-13 -9 -27 -14t-28 -5z" />
    <glyph glyph-name="Cacute" unicode="&#x106;" horiz-adv-x="686" 
d="M348 -11q-51 0 -102 17.5t-94 53.5t-68.5 92t-25.5 132q0 80 36.5 145.5t102 104t152.5 38.5q68 0 113.5 -18.5t76.5 -52t53 -79.5l-14 6v135h27v-157l-21 -7q-37 76 -90 113t-145 37q-83 0 -141.5 -37.5t-89 -98t-30.5 -130.5q0 -68 22.5 -119t60.5 -84.5t84 -50
t94 -16.5q45 0 89 11.5t83 38.5t66 75l19 -13q-29 -49 -68.5 -79t-87 -43.5t-102.5 -13.5zM347 653l44 123h30l-59 -123h-15z" />
    <glyph glyph-name="cacute" unicode="&#x107;" horiz-adv-x="467" 
d="M233 -11q-59 0 -105 27t-72 74t-26 108q0 60 26 106.5t72 72.5t105 26q53 0 93.5 -24t51.5 -62h-9v76h27v-115h-23q-7 45 -44.5 74t-93.5 29q-51 0 -91 -23.5t-62.5 -65t-22.5 -95.5t22.5 -95.5t62 -65.5t90.5 -24q47 0 83 16.5t70 49.5l11 -19q-33 -34 -72.5 -52
t-92.5 -18zM232 483l44 123h30l-59 -123h-15z" />
    <glyph glyph-name="Ccircumflex" unicode="&#x108;" horiz-adv-x="686" 
d="M348 -11q-51 0 -102 17.5t-94 53.5t-68.5 92t-25.5 132q0 80 36.5 145.5t102 104t152.5 38.5q68 0 113.5 -18.5t76.5 -52t53 -79.5l-14 6v135h27v-157l-21 -7q-37 76 -90 113t-145 37q-83 0 -141.5 -37.5t-89 -98t-30.5 -130.5q0 -68 22.5 -119t60.5 -84.5t84 -50
t94 -16.5q45 0 89 11.5t83 38.5t66 75l19 -13q-29 -49 -68.5 -79t-87 -43.5t-102.5 -13.5zM256 623l86 151h21l85 -151h-24l-72 130l-72 -130h-24z" />
    <glyph glyph-name="ccircumflex" unicode="&#x109;" horiz-adv-x="467" 
d="M233 -11q-59 0 -105 27t-72 74t-26 108q0 60 26 106.5t72 72.5t105 26q53 0 93.5 -24t51.5 -62h-9v76h27v-115h-23q-7 45 -44.5 74t-93.5 29q-51 0 -91 -23.5t-62.5 -65t-22.5 -95.5t22.5 -95.5t62 -65.5t90.5 -24q47 0 83 16.5t70 49.5l11 -19q-33 -34 -72.5 -52
t-92.5 -18zM141 453l86 151h21l85 -151h-24l-72 130l-72 -130h-24z" />
    <glyph glyph-name="Cdotaccent" unicode="&#x10a;" horiz-adv-x="686" 
d="M348 -11q-51 0 -102 17.5t-94 53.5t-68.5 92t-25.5 132q0 80 36.5 145.5t102 104t152.5 38.5q68 0 113.5 -18.5t76.5 -52t53 -79.5l-14 6v135h27v-157l-21 -7q-37 76 -90 113t-145 37q-83 0 -141.5 -37.5t-89 -98t-30.5 -130.5q0 -68 22.5 -119t60.5 -84.5t84 -50
t94 -16.5q45 0 89 11.5t83 38.5t66 75l19 -13q-29 -49 -68.5 -79t-87 -43.5t-102.5 -13.5zM352 653q-16 0 -23 9t-7 18q0 11 7 19.5t23 8.5t23 -8.5t7 -19.5q0 -9 -7.5 -18t-22.5 -9z" />
    <glyph glyph-name="cdotaccent" unicode="&#x10b;" horiz-adv-x="467" 
d="M233 -11q-59 0 -105 27t-72 74t-26 108q0 60 26 106.5t72 72.5t105 26q53 0 93.5 -24t51.5 -62h-9v76h27v-115h-23q-7 45 -44.5 74t-93.5 29q-51 0 -91 -23.5t-62.5 -65t-22.5 -95.5t22.5 -95.5t62 -65.5t90.5 -24q47 0 83 16.5t70 49.5l11 -19q-33 -34 -72.5 -52
t-92.5 -18zM237 483q-16 0 -23 9t-7 18q0 11 7 19.5t23 8.5t23 -8.5t7 -19.5q0 -9 -7.5 -18t-22.5 -9z" />
    <glyph glyph-name="Ccaron" unicode="&#x10c;" horiz-adv-x="686" 
d="M348 -11q-51 0 -102 17.5t-94 53.5t-68.5 92t-25.5 132q0 80 36.5 145.5t102 104t152.5 38.5q68 0 113.5 -18.5t76.5 -52t53 -79.5l-14 6v135h27v-157l-21 -7q-37 76 -90 113t-145 37q-83 0 -141.5 -37.5t-89 -98t-30.5 -130.5q0 -68 22.5 -119t60.5 -84.5t84 -50
t94 -16.5q45 0 89 11.5t83 38.5t66 75l19 -13q-29 -49 -68.5 -79t-87 -43.5t-102.5 -13.5zM343 643l-86 150h24l71 -127l71 127h23l-84 -150h-19z" />
    <glyph glyph-name="ccaron" unicode="&#x10d;" horiz-adv-x="467" 
d="M233 -11q-59 0 -105 27t-72 74t-26 108q0 60 26 106.5t72 72.5t105 26q53 0 93.5 -24t51.5 -62h-9v76h27v-115h-23q-7 45 -44.5 74t-93.5 29q-51 0 -91 -23.5t-62.5 -65t-22.5 -95.5t22.5 -95.5t62 -65.5t90.5 -24q47 0 83 16.5t70 49.5l11 -19q-33 -34 -72.5 -52
t-92.5 -18zM228 473l-86 150h24l71 -127l71 127h23l-84 -150h-19z" />
    <glyph glyph-name="Dcaron" unicode="&#x10e;" horiz-adv-x="698" 
d="M60 0v22h85v519h-85v22h335q63 0 108.5 -26t75 -68.5t44 -92t14.5 -96.5q0 -48 -15 -97.5t-44.5 -90.5t-74.5 -66.5t-105 -25.5h-338zM175 22h218q54 0 94.5 22.5t67 60t40 83t13.5 91.5t-13.5 92t-40 84.5t-66 62t-92.5 23.5h-221v-519zM367 643l-86 150h24l71 -127
l71 127h23l-84 -150h-19z" />
    <glyph glyph-name="dcaron" unicode="&#x10f;" horiz-adv-x="500" 
d="M238 -11q-60 0 -107 26.5t-74 73.5t-27 108q0 62 26.5 108t73 72t106.5 26q49 0 95.5 -19t71.5 -56l-20 15v208h-66v22h95v-551h67v-22h-96v52l20 10q-28 -31 -71.5 -52t-93.5 -21zM240 12q49 0 91.5 21t72.5 54l-21 -27v276l21 -33q-32 39 -75.5 58.5t-90.5 19.5
q-52 0 -92.5 -23.5t-63.5 -66t-23 -98.5q0 -53 23.5 -94t64.5 -64t93 -23zM448 440v12q20 3 26.5 15.5t6.5 52.5h-29v53h49l-1 -56q0 -31 -9.5 -54t-42.5 -23z" />
    <glyph glyph-name="Dcroat" unicode="&#x110;" horiz-adv-x="698" 
d="M60 0v22h85v519h-85v22h335q63 0 108.5 -26t75 -68.5t44 -92t14.5 -96.5q0 -48 -15 -97.5t-44.5 -90.5t-74.5 -66.5t-105 -25.5h-338zM175 22h218q54 0 94.5 22.5t67 60t40 83t13.5 91.5t-13.5 92t-40 84.5t-66 62t-92.5 23.5h-221v-519zM60 273v23h253v-23h-253z" />
    <glyph glyph-name="dcroat" unicode="&#x111;" horiz-adv-x="497" 
d="M238 -11q-60 0 -107 26.5t-74 73.5t-27 108q0 62 26.5 108t73 72t106.5 26q49 0 95.5 -19t71.5 -56l-20 15v231h29v-552h67v-22h-96v52l20 10q-28 -31 -71.5 -52t-93.5 -21zM240 12q49 0 91.5 21t72.5 54l-21 -27v276l21 -33q-32 39 -75.5 58.5t-90.5 19.5
q-52 0 -92.5 -23.5t-63.5 -66t-23 -98.5q0 -53 23.5 -94t64.5 -64t93 -23zM225 469v20h254v-20h-254z" />
    <glyph glyph-name="Emacron" unicode="&#x112;" horiz-adv-x="597" 
d="M60 0v22h85v519h-85v22h459v-161h-26v139h-318v-243h205v83h23v-194h-22v89h-206v-254h330v141h26v-163h-471zM235 653v20h184v-20h-184z" />
    <glyph glyph-name="emacron" unicode="&#x113;" horiz-adv-x="474" 
d="M237 -11q-54 0 -101 24.5t-76.5 71.5t-29.5 112q0 69 29 115t75 69t96 23q51 0 94.5 -22t70 -68.5t26.5 -118.5v-6h-367v21h340q0 59 -23.5 97t-61 56.5t-79.5 18.5q-46 0 -85 -22t-62.5 -63t-23.5 -98q0 -55 23.5 -97t64.5 -66t91 -24q47 0 93 21t71 52l10 -22
q-37 -37 -83 -55.5t-92 -18.5zM146 483v20h184v-20h-184z" />
    <glyph glyph-name="Ebreve" unicode="&#x114;" horiz-adv-x="597" 
d="M60 0v22h85v519h-85v22h459v-161h-26v139h-318v-243h205v83h23v-194h-22v89h-206v-254h330v141h26v-163h-471zM327 653q-29 0 -47.5 17t-24.5 50h19q12 -46 53 -46q20 0 32.5 11.5t19.5 34.5h19q-6 -33 -24 -50t-47 -17z" />
    <glyph glyph-name="ebreve" unicode="&#x115;" horiz-adv-x="474" 
d="M237 -11q-54 0 -101 24.5t-76.5 71.5t-29.5 112q0 69 29 115t75 69t96 23q51 0 94.5 -22t70 -68.5t26.5 -118.5v-6h-367v21h340q0 59 -23.5 97t-61 56.5t-79.5 18.5q-46 0 -85 -22t-62.5 -63t-23.5 -98q0 -55 23.5 -97t64.5 -66t91 -24q47 0 93 21t71 52l10 -22
q-37 -37 -83 -55.5t-92 -18.5zM238 483q-29 0 -47.5 17t-24.5 50h19q12 -46 53 -46q20 0 32.5 11.5t19.5 34.5h19q-6 -33 -24 -50t-47 -17z" />
    <glyph glyph-name="Edotaccent" unicode="&#x116;" horiz-adv-x="597" 
d="M60 0v22h85v519h-85v22h459v-161h-26v139h-318v-243h205v83h23v-194h-22v89h-206v-254h330v141h26v-163h-471zM327 653q-16 0 -23 9t-7 18q0 11 7 19.5t23 8.5t23 -8.5t7 -19.5q0 -9 -7.5 -18t-22.5 -9z" />
    <glyph glyph-name="edotaccent" unicode="&#x117;" horiz-adv-x="474" 
d="M237 -11q-54 0 -101 24.5t-76.5 71.5t-29.5 112q0 69 29 115t75 69t96 23q51 0 94.5 -22t70 -68.5t26.5 -118.5v-6h-367v21h340q0 59 -23.5 97t-61 56.5t-79.5 18.5q-46 0 -85 -22t-62.5 -63t-23.5 -98q0 -55 23.5 -97t64.5 -66t91 -24q47 0 93 21t71 52l10 -22
q-37 -37 -83 -55.5t-92 -18.5zM238 483q-16 0 -23 9t-7 18q0 11 7 19.5t23 8.5t23 -8.5t7 -19.5q0 -9 -7.5 -18t-22.5 -9z" />
    <glyph glyph-name="Eogonek" unicode="&#x118;" horiz-adv-x="597" 
d="M60 0v22h85v519h-85v22h459v-161h-26v139h-318v-243h205v83h23v-194h-22v89h-206v-254h330v141h26v-163h-471zM479 -153q-26 0 -45.5 16t-19.5 44q0 23 14 46.5t41 46.5h22q-23 -23 -36 -44t-13 -42q0 -22 13 -33.5t32 -11.5q24 0 47 17v-20q-13 -9 -27 -14t-28 -5z" />
    <glyph glyph-name="eogonek" unicode="&#x119;" horiz-adv-x="474" 
d="M237 -11q-54 0 -101 24.5t-76.5 71.5t-29.5 112q0 69 29 115t75 69t96 23q51 0 94.5 -22t70 -68.5t26.5 -118.5v-6h-367v21h340q0 59 -23.5 97t-61 56.5t-79.5 18.5q-46 0 -85 -22t-62.5 -63t-23.5 -98q0 -55 23.5 -97t64.5 -66t91 -24q47 0 93 21t71 52l10 -22
q-37 -37 -83 -55.5t-92 -18.5zM258 -153q-26 0 -45.5 16t-19.5 44q0 23 14 46.5t41 46.5h22q-23 -23 -36 -44t-13 -42q0 -22 13 -33.5t32 -11.5q24 0 47 17v-20q-13 -9 -27 -14t-28 -5z" />
    <glyph glyph-name="Ecaron" unicode="&#x11a;" horiz-adv-x="597" 
d="M60 0v22h85v519h-85v22h459v-161h-26v139h-318v-243h205v83h23v-194h-22v89h-206v-254h330v141h26v-163h-471zM318 643l-86 150h24l71 -127l71 127h23l-84 -150h-19z" />
    <glyph glyph-name="ecaron" unicode="&#x11b;" horiz-adv-x="474" 
d="M237 -11q-54 0 -101 24.5t-76.5 71.5t-29.5 112q0 69 29 115t75 69t96 23q51 0 94.5 -22t70 -68.5t26.5 -118.5v-6h-367v21h340q0 59 -23.5 97t-61 56.5t-79.5 18.5q-46 0 -85 -22t-62.5 -63t-23.5 -98q0 -55 23.5 -97t64.5 -66t91 -24q47 0 93 21t71 52l10 -22
q-37 -37 -83 -55.5t-92 -18.5zM229 473l-86 150h24l71 -127l71 127h23l-84 -150h-19z" />
    <glyph glyph-name="Gcircumflex" unicode="&#x11c;" horiz-adv-x="681" 
d="M347 -11q-89 0 -154 36.5t-100.5 103t-35.5 156.5q0 89 35.5 153.5t100.5 99.5t154 35q75 0 137.5 -34.5t92.5 -98.5l-14 8v115h27v-151h-22q-28 66 -87.5 102t-133.5 36q-79 0 -137.5 -32.5t-90.5 -91.5t-32 -141q0 -83 32 -144.5t90.5 -94.5t137.5 -33q34 0 74.5 10.5
t77.5 36.5t60.5 72t23.5 116l7 -2h-131v22h153v-3q0 -87 -26.5 -141t-68 -83.5t-87 -40.5t-83.5 -11zM250 623l86 151h21l85 -151h-24l-72 130l-72 -130h-24z" />
    <glyph glyph-name="gcircumflex" unicode="&#x11d;" horiz-adv-x="497" 
d="M233 -184q-31 0 -66.5 6.5t-73.5 16.5l5 23q41 -12 74.5 -17.5t61.5 -5.5q78 0 116 39.5t38 106.5v77l19 12q-27 -34 -74.5 -55.5t-94.5 -21.5q-60 0 -106.5 26t-73.5 72t-27 106t25 105.5t69.5 70.5t101.5 25q50 0 101 -21.5t79 -54.5l-19 12v55h96v-22h-67v-379
q0 -60 -22.5 -99t-63.5 -58t-98 -19zM240 19q44 0 92 22t75 57l-19 -30v262l21 -25q-31 33 -82 54.5t-98 21.5q-50 0 -88 -23.5t-59.5 -64.5t-21.5 -96q0 -53 23 -93t64 -62.5t93 -22.5zM143 453l86 151h21l85 -151h-24l-72 130l-72 -130h-24z" />
    <glyph glyph-name="Gbreve" unicode="&#x11e;" horiz-adv-x="681" 
d="M347 -11q-89 0 -154 36.5t-100.5 103t-35.5 156.5q0 89 35.5 153.5t100.5 99.5t154 35q75 0 137.5 -34.5t92.5 -98.5l-14 8v115h27v-151h-22q-28 66 -87.5 102t-133.5 36q-79 0 -137.5 -32.5t-90.5 -91.5t-32 -141q0 -83 32 -144.5t90.5 -94.5t137.5 -33q34 0 74.5 10.5
t77.5 36.5t60.5 72t23.5 116l7 -2h-131v22h153v-3q0 -87 -26.5 -141t-68 -83.5t-87 -40.5t-83.5 -11zM346 653q-29 0 -47.5 17t-24.5 50h19q12 -46 53 -46q20 0 32.5 11.5t19.5 34.5h19q-6 -33 -24 -50t-47 -17z" />
    <glyph glyph-name="gbreve" unicode="&#x11f;" horiz-adv-x="497" 
d="M233 -184q-31 0 -66.5 6.5t-73.5 16.5l5 23q41 -12 74.5 -17.5t61.5 -5.5q78 0 116 39.5t38 106.5v77l19 12q-27 -34 -74.5 -55.5t-94.5 -21.5q-60 0 -106.5 26t-73.5 72t-27 106t25 105.5t69.5 70.5t101.5 25q50 0 101 -21.5t79 -54.5l-19 12v55h96v-22h-67v-379
q0 -60 -22.5 -99t-63.5 -58t-98 -19zM240 19q44 0 92 22t75 57l-19 -30v262l21 -25q-31 33 -82 54.5t-98 21.5q-50 0 -88 -23.5t-59.5 -64.5t-21.5 -96q0 -53 23 -93t64 -62.5t93 -22.5zM239 483q-29 0 -47.5 17t-24.5 50h19q12 -46 53 -46q20 0 32.5 11.5t19.5 34.5h19
q-6 -33 -24 -50t-47 -17z" />
    <glyph glyph-name="Gdotaccent" unicode="&#x120;" horiz-adv-x="681" 
d="M347 -11q-89 0 -154 36.5t-100.5 103t-35.5 156.5q0 89 35.5 153.5t100.5 99.5t154 35q75 0 137.5 -34.5t92.5 -98.5l-14 8v115h27v-151h-22q-28 66 -87.5 102t-133.5 36q-79 0 -137.5 -32.5t-90.5 -91.5t-32 -141q0 -83 32 -144.5t90.5 -94.5t137.5 -33q34 0 74.5 10.5
t77.5 36.5t60.5 72t23.5 116l7 -2h-131v22h153v-3q0 -87 -26.5 -141t-68 -83.5t-87 -40.5t-83.5 -11zM346 653q-16 0 -23 9t-7 18q0 11 7 19.5t23 8.5t23 -8.5t7 -19.5q0 -9 -7.5 -18t-22.5 -9z" />
    <glyph glyph-name="gdotaccent" unicode="&#x121;" horiz-adv-x="497" 
d="M233 -184q-31 0 -66.5 6.5t-73.5 16.5l5 23q41 -12 74.5 -17.5t61.5 -5.5q78 0 116 39.5t38 106.5v77l19 12q-27 -34 -74.5 -55.5t-94.5 -21.5q-60 0 -106.5 26t-73.5 72t-27 106t25 105.5t69.5 70.5t101.5 25q50 0 101 -21.5t79 -54.5l-19 12v55h96v-22h-67v-379
q0 -60 -22.5 -99t-63.5 -58t-98 -19zM240 19q44 0 92 22t75 57l-19 -30v262l21 -25q-31 33 -82 54.5t-98 21.5q-50 0 -88 -23.5t-59.5 -64.5t-21.5 -96q0 -53 23 -93t64 -62.5t93 -22.5zM239 483q-16 0 -23 9t-7 18q0 11 7 19.5t23 8.5t23 -8.5t7 -19.5q0 -9 -7.5 -18
t-22.5 -9z" />
    <glyph glyph-name="uni0122" unicode="&#x122;" horiz-adv-x="681" 
d="M347 -11q-89 0 -154 36.5t-100.5 103t-35.5 156.5q0 89 35.5 153.5t100.5 99.5t154 35q75 0 137.5 -34.5t92.5 -98.5l-14 8v115h27v-151h-22q-28 66 -87.5 102t-133.5 36q-79 0 -137.5 -32.5t-90.5 -91.5t-32 -141q0 -83 32 -144.5t90.5 -94.5t137.5 -33q34 0 74.5 10.5
t77.5 36.5t60.5 72t23.5 116l7 -2h-131v22h153v-3q0 -87 -26.5 -141t-68 -83.5t-87 -40.5t-83.5 -11zM319 -187v12q26 2 30.5 23.5t4.5 52.5h-28v47h48v-53q0 -32 -9.5 -57.5t-45.5 -24.5z" />
    <glyph glyph-name="uni0123" unicode="&#x123;" horiz-adv-x="497" 
d="M266 607v-12q-25 -2 -30 -23.5t-5 -52.5h28v-47h-48v53q0 32 9.5 57.5t45.5 24.5zM233 -184q-31 0 -66.5 6.5t-73.5 16.5l5 23q41 -12 74.5 -17.5t61.5 -5.5q78 0 116 39.5t38 106.5v77l19 12q-27 -34 -74.5 -55.5t-94.5 -21.5q-60 0 -106.5 26t-73.5 72t-27 106
t25 105.5t69.5 70.5t101.5 25q50 0 101 -21.5t79 -54.5l-19 12v55h96v-22h-67v-379q0 -60 -22.5 -99t-63.5 -58t-98 -19zM240 19q44 0 92 22t75 57l-19 -30v262l21 -25q-31 33 -82 54.5t-98 21.5q-50 0 -88 -23.5t-59.5 -64.5t-21.5 -96q0 -53 23 -93t64 -62.5t93 -22.5z
" />
    <glyph glyph-name="Hcircumflex" unicode="&#x124;" horiz-adv-x="730" 
d="M60 0v22h85v519h-85v22h200v-22h-85v-245h380v245h-85v22h199v-22h-85v-519h85v-22h-199v22h85v251h-380v-251h85v-22h-200zM268 623l86 151h21l85 -151h-24l-72 130l-72 -130h-24z" />
    <glyph glyph-name="hcircumflex" unicode="&#x125;" horiz-adv-x="482" 
d="M10 0v22h72v529h-69v22h98v-229h-7q48 27 88.5 43t83.5 16q55 0 87.5 -32.5t32.5 -88.5v-260h76v-22h-189v22h85v268q0 42 -26 66t-69 24q-37 0 -80.5 -16.5t-88.5 -40.5l7 8v-309h72v-22h-173zM1 634l86 151h21l85 -151h-24l-72 130l-72 -130h-24z" />
    <glyph glyph-name="Hbar" unicode="&#x126;" horiz-adv-x="730" 
d="M103 424h523v-22h-523v22zM60 0v22h85v519h-85v22h200v-22h-85v-245h380v245h-85v22h199v-22h-85v-519h85v-22h-199v22h85v251h-380v-251h85v-22h-200z" />
    <glyph glyph-name="hbar" unicode="&#x127;" horiz-adv-x="482" 
d="M10 0v22h72v529h-69v22h98v-229h-7q48 27 88.5 43t83.5 16q55 0 87.5 -32.5t32.5 -88.5v-260h76v-22h-189v22h85v268q0 42 -26 66t-69 24q-37 0 -80.5 -16.5t-88.5 -40.5l7 8v-309h72v-22h-173zM5 664v20h184v-20h-184z" />
    <glyph glyph-name="Itilde" unicode="&#x128;" horiz-adv-x="311" 
d="M55 0v22h85v519h-85v22h200v-22h-85v-519h85v-22h-200zM210 653q-18 0 -36 10.5t-35 20.5t-35 10q-27 0 -27 -40h-20q0 26 12.5 44t34.5 18q19 0 36.5 -10t35 -20.5t34.5 -10.5q12 0 19.5 9.5t7.5 29.5h20q0 -30 -10.5 -45.5t-36.5 -15.5z" />
    <glyph glyph-name="itilde" unicode="&#x129;" horiz-adv-x="236" 
d="M18 0v22h86v349h-85v22h114v-371h84v-22h-199zM164 483q-18 0 -36 10.5t-35 20.5t-35 10q-27 0 -27 -40h-20q0 26 12.5 44t34.5 18q19 0 36.5 -10t35 -20.5t34.5 -10.5q12 0 19.5 9.5t7.5 29.5h20q0 -30 -10.5 -45.5t-36.5 -15.5z" />
    <glyph glyph-name="Imacron" unicode="&#x12a;" horiz-adv-x="311" 
d="M55 0v22h85v519h-85v22h200v-22h-85v-519h85v-22h-200zM65 653v20h184v-20h-184z" />
    <glyph glyph-name="imacron" unicode="&#x12b;" horiz-adv-x="236" 
d="M18 0v22h86v349h-85v22h114v-371h84v-22h-199zM19 483v20h184v-20h-184z" />
    <glyph glyph-name="Ibreve" unicode="&#x12c;" horiz-adv-x="311" 
d="M55 0v22h85v519h-85v22h200v-22h-85v-519h85v-22h-200zM157 653q-29 0 -47.5 17t-24.5 50h19q12 -46 53 -46q20 0 32.5 11.5t19.5 34.5h19q-6 -33 -24 -50t-47 -17z" />
    <glyph glyph-name="ibreve" unicode="&#x12d;" horiz-adv-x="236" 
d="M18 0v22h86v349h-85v22h114v-371h84v-22h-199zM111 483q-29 0 -47.5 17t-24.5 50h19q12 -46 53 -46q20 0 32.5 11.5t19.5 34.5h19q-6 -33 -24 -50t-47 -17z" />
    <glyph glyph-name="Iogonek" unicode="&#x12e;" horiz-adv-x="311" 
d="M55 0v22h85v519h-85v22h200v-22h-85v-519h85v-22h-200zM153 -153q-26 0 -45.5 16t-19.5 44q0 23 14 46.5t41 46.5h22q-23 -23 -36 -44t-13 -42q0 -22 13 -33.5t32 -11.5q24 0 47 17v-20q-13 -9 -27 -14t-28 -5z" />
    <glyph glyph-name="iogonek" unicode="&#x12f;" horiz-adv-x="236" 
d="M18 0v22h86v349h-85v22h114v-371h84v-22h-199zM107 -153q-26 0 -45.5 16t-19.5 44q0 23 14 46.5t41 46.5h22q-23 -23 -36 -44t-13 -42q0 -22 13 -33.5t32 -11.5q24 0 47 17v-20q-13 -9 -27 -14t-28 -5zM111 483q-16 0 -23 9t-7 18q0 11 7 19.5t23 8.5t23 -8.5t7 -19.5
q0 -9 -7.5 -18t-22.5 -9z" />
    <glyph glyph-name="Idotaccent" unicode="&#x130;" horiz-adv-x="311" 
d="M55 0v22h85v519h-85v22h200v-22h-85v-519h85v-22h-200zM157 653q-16 0 -23 9t-7 18q0 11 7 19.5t23 8.5t23 -8.5t7 -19.5q0 -9 -7.5 -18t-22.5 -9z" />
    <glyph glyph-name="dotlessi" unicode="&#x131;" horiz-adv-x="236" 
d="M18 0v22h86v349h-85v22h114v-371h84v-22h-199z" />
    <glyph glyph-name="IJ" unicode="&#x132;" horiz-adv-x="588" 
d="M55 0v22h85v519h-85v22h200v-22h-85v-519h85v-22h-200zM360 -32v23h60q30 0 37.5 20.5t7.5 66.5v463h-65v22h157v-22h-61v-468q0 -45 -9 -67.5t-26.5 -30t-45.5 -7.5h-55z" />
    <glyph glyph-name="ij" unicode="&#x133;" horiz-adv-x="440" 
d="M18 0v22h86v349h-85v22h114v-371h86v-22h-201zM111 495q-12 0 -19 7t-7 18t7 17.5t19 6.5t19.5 -6.5t7.5 -17.5t-7.5 -18t-19.5 -7zM248 -122v22h32q37 0 51.5 17.5t14.5 61.5v394h-77v20h108v-413q0 -34 -10.5 -56.5t-32 -34t-56.5 -11.5h-30zM353 496q-11 0 -19 7
t-8 18q0 10 8 16.5t19 6.5q12 0 19.5 -6.5t7.5 -16.5q0 -11 -7.5 -18t-19.5 -7z" />
    <glyph glyph-name="Jcircumflex" unicode="&#x134;" horiz-adv-x="277" 
d="M49 -32v23h60q30 0 37.5 20.5t7.5 66.5v463h-65v22h157v-22h-61v-468q0 -45 -9 -67.5t-26.5 -30t-45.5 -7.5h-55zM74 623l86 151h21l85 -151h-24l-72 130l-72 -130h-24z" />
    <glyph glyph-name="jcircumflex" unicode="&#x135;" horiz-adv-x="199" 
d="M10 -122v22h32q37 0 51.5 17.5t14.5 61.5v392h-84v22h115v-413q0 -25 -6 -44.5t-18 -32t-30.5 -19t-44.5 -6.5h-30zM-9 453l86 151h21l85 -151h-24l-72 130l-72 -130h-24z" />
    <glyph glyph-name="uni0136" unicode="&#x136;" horiz-adv-x="636" 
d="M60 0v22h85v519h-85v22h200v-22h-85v-252l286 252h-76v22h194v-22h-83l-285 -254l305 -265h79v-22h-191v22h75l-304 262v-262h85v-22h-200zM304 -187v12q26 2 30.5 23.5t4.5 52.5h-28v47h48v-53q0 -32 -9.5 -57.5t-45.5 -24.5z" />
    <glyph glyph-name="uni0137" unicode="&#x137;" horiz-adv-x="478" 
d="M30 0v22h73v529h-69v22h98v-366l213 164h-78v22h187v-22h-72l-215 -166l202 -183h88v-22h-102l-223 205v-183h72v-22h-174zM232 -187v12q26 2 30.5 23.5t4.5 52.5h-28v47h48v-53q0 -32 -9.5 -57.5t-45.5 -24.5z" />
    <glyph glyph-name="kgreenlandic" unicode="&#x138;" horiz-adv-x="462" 
d="M342 0l-197 201l187 170h-73v22h178v-22h-69l-187 -171l176 -178h83v-22h-98zM36 0v22h68v349h-65v22h94v-371h67v-22h-164z" />
    <glyph glyph-name="Lacute" unicode="&#x139;" horiz-adv-x="517" 
d="M60 0v22h85v519h-85v22h200v-22h-85v-519h291v160h25v-182h-431zM155 653l44 123h30l-59 -123h-15z" />
    <glyph glyph-name="lacute" unicode="&#x13a;" horiz-adv-x="224" 
d="M28 0v22h73v529h-70v22h98v-551h73v-22h-174zM110 663l44 123h30l-59 -123h-15z" />
    <glyph glyph-name="uni013B" unicode="&#x13b;" horiz-adv-x="517" 
d="M60 0v22h85v519h-85v22h200v-22h-85v-519h291v160h25v-182h-431zM285 -187v12q26 2 30.5 23.5t4.5 52.5h-28v47h48v-53q0 -32 -9.5 -57.5t-45.5 -24.5z" />
    <glyph glyph-name="uni013C" unicode="&#x13c;" horiz-adv-x="224" 
d="M28 0v22h73v529h-70v22h98v-551h73v-22h-174zM88 -187v12q26 2 30.5 23.5t4.5 52.5h-28v47h48v-53q0 -32 -9.5 -57.5t-45.5 -24.5z" />
    <glyph glyph-name="Lcaron" unicode="&#x13d;" horiz-adv-x="517" 
d="M60 0v22h85v519h-85v22h200v-22h-85v-519h291v160h25v-182h-431zM439 430v12q20 3 26.5 15.5t6.5 52.5h-29v53h49l-1 -56q0 -31 -9.5 -54t-42.5 -23z" />
    <glyph glyph-name="lcaron" unicode="&#x13e;" horiz-adv-x="224" 
d="M28 0v22h73v529h-70v22h98v-551h73v-22h-174zM165 440v12q20 3 26.5 15.5t6.5 52.5h-29v53h49l-1 -56q0 -31 -9.5 -54t-42.5 -23z" />
    <glyph glyph-name="Ldot" unicode="&#x13f;" horiz-adv-x="517" 
d="M60 0v22h85v519h-85v22h200v-22h-85v-519h291v160h25v-182h-431zM415 321q-12 0 -20 7.5t-8 20.5t8 20.5t20 7.5t20 -7.5t8 -20.5t-8 -20.5t-20 -7.5z" />
    <glyph glyph-name="ldot" unicode="&#x140;" horiz-adv-x="224" 
d="M28 0v22h73v529h-70v22h98v-551h73v-22h-174zM229 281q-12 0 -20 7.5t-8 20.5t8 20.5t20 7.5t20 -7.5t8 -20.5t-8 -20.5t-20 -7.5z" />
    <glyph glyph-name="Lslash" unicode="&#x141;" horiz-adv-x="517" 
d="M60 210v27l223 129v-29zM60 0v22h85v519h-85v22h200v-22h-85v-519h291v160h25v-182h-431z" />
    <glyph glyph-name="lslash" unicode="&#x142;" horiz-adv-x="223" 
d="M25 220v28l175 109v-29zM28 0v22h73v529h-70v22h98v-551h73v-22h-174z" />
    <glyph glyph-name="Nacute" unicode="&#x143;" horiz-adv-x="705" 
d="M64 0v22h72v519h-72v22h100l413 -521v499h-75v22h165v-22h-63v-541h-30l-410 518v-496h73v-22h-173zM347 653l44 123h30l-59 -123h-15z" />
    <glyph glyph-name="nacute" unicode="&#x144;" horiz-adv-x="497" 
d="M18 0v22h86v349h-85v22h114v-50h-9q43 26 87.5 43t87.5 17q55 0 87.5 -32.5t32.5 -88.5v-260h75v-22h-189v22h85v268q0 42 -26 66t-70 24q-35 0 -80 -17t-90 -43l9 15v-313h84v-22h-199zM259 483l44 123h30l-59 -123h-15z" />
    <glyph glyph-name="uni0145" unicode="&#x145;" horiz-adv-x="705" 
d="M64 0v22h72v519h-72v22h100l413 -521v499h-75v22h165v-22h-63v-541h-30l-410 518v-496h73v-22h-173zM356 -187v12q26 2 30.5 23.5t4.5 52.5h-28v47h48v-53q0 -32 -9.5 -57.5t-45.5 -24.5z" />
    <glyph glyph-name="uni0146" unicode="&#x146;" horiz-adv-x="497" 
d="M18 0v22h86v349h-85v22h114v-50h-9q43 26 87.5 43t87.5 17q55 0 87.5 -32.5t32.5 -88.5v-260h75v-22h-189v22h85v268q0 42 -26 66t-70 24q-35 0 -80 -17t-90 -43l9 15v-313h84v-22h-199zM240 -187v12q26 2 30.5 23.5t4.5 52.5h-28v47h48v-53q0 -32 -9.5 -57.5
t-45.5 -24.5z" />
    <glyph glyph-name="Ncaron" unicode="&#x147;" horiz-adv-x="705" 
d="M64 0v22h72v519h-72v22h100l413 -521v499h-75v22h165v-22h-63v-541h-30l-410 518v-496h73v-22h-173zM343 643l-86 150h24l71 -127l71 127h23l-84 -150h-19z" />
    <glyph glyph-name="ncaron" unicode="&#x148;" horiz-adv-x="497" 
d="M18 0v22h86v349h-85v22h114v-50h-9q43 26 87.5 43t87.5 17q55 0 87.5 -32.5t32.5 -88.5v-260h75v-22h-189v22h85v268q0 42 -26 66t-70 24q-35 0 -80 -17t-90 -43l9 15v-313h84v-22h-199zM255 473l-86 150h24l71 -127l71 127h23l-84 -150h-19z" />
    <glyph glyph-name="napostrophe" unicode="&#x149;" horiz-adv-x="680" 
d="M100 449v12q20 3 26.5 15.5t6.5 52.5h-29v53h49l-1 -56q0 -31 -9.5 -54t-42.5 -23zM201 0v22h86v349h-85v22h114v-50h-9q43 26 87.5 43t87.5 17q55 0 87.5 -32.5t32.5 -88.5v-260h75v-22h-189v22h85v268q0 42 -26 66t-70 24q-35 0 -80 -17t-90 -43l9 15v-313h84v-22h-199
z" />
    <glyph glyph-name="Eng" unicode="&#x14a;" horiz-adv-x="701" 
d="M416 -176v24h4q55 0 88.5 19t49 53t15.5 78l-413 520v-496h73v-22h-173v22h72v519h-72v22h100l413 -521v499h-75v22h165v-22h-63v-542q0 -59 -21.5 -98t-61.5 -58t-96 -19h-5z" />
    <glyph glyph-name="eng" unicode="&#x14b;" horiz-adv-x="497" 
d="M234 -179l1 22q80 0 117.5 39t37.5 106v302q0 42 -26 66t-70 24q-26 0 -69 -14t-92 -39v-305h84v-22h-199v22h86v349h-85v22h114v-45q44 26 88 40.5t78 14.5q55 0 87.5 -32.5t32.5 -88.5v-287q0 -45 -13 -78t-37 -54t-58 -31.5t-77 -10.5z" />
    <glyph glyph-name="Omacron" unicode="&#x14c;" horiz-adv-x="710" 
d="M354 -11q-75 0 -130.5 25.5t-91.5 67.5t-53.5 93.5t-17.5 103.5q0 53 18 105t54 94.5t91.5 68.5t130.5 26t130.5 -26t92 -68.5t54.5 -94.5t18 -105t-17.5 -104.5t-54 -93.5t-92.5 -67t-132 -25zM355 13q68 0 117.5 23t82.5 62t49 86t16 95t-16 95.5t-49 87.5t-82.5 64
t-117.5 24t-117.5 -24t-82 -64t-48.5 -87.5t-16 -95.5q0 -49 15.5 -96.5t48 -86t82 -61t118.5 -22.5zM262 653v20h184v-20h-184z" />
    <glyph glyph-name="omacron" unicode="&#x14d;" horiz-adv-x="481" 
d="M239 -12q-61 0 -108 27t-74 74.5t-27 109.5q0 60 27 106.5t74 72.5t108 26q62 0 110 -26t75 -72t27 -107q0 -62 -27 -109.5t-75 -74.5t-110 -27zM239 11q54 0 95 24t64.5 66.5t23.5 97.5q0 54 -23.5 95.5t-64.5 64.5t-95 23q-53 0 -93.5 -23t-63.5 -64.5t-23 -95.5
q0 -55 23 -97.5t63.5 -66.5t93.5 -24zM146 483v20h184v-20h-184z" />
    <glyph glyph-name="Obreve" unicode="&#x14e;" horiz-adv-x="710" 
d="M354 -11q-75 0 -130.5 25.5t-91.5 67.5t-53.5 93.5t-17.5 103.5q0 53 18 105t54 94.5t91.5 68.5t130.5 26t130.5 -26t92 -68.5t54.5 -94.5t18 -105t-17.5 -104.5t-54 -93.5t-92.5 -67t-132 -25zM355 13q68 0 117.5 23t82.5 62t49 86t16 95t-16 95.5t-49 87.5t-82.5 64
t-117.5 24t-117.5 -24t-82 -64t-48.5 -87.5t-16 -95.5q0 -49 15.5 -96.5t48 -86t82 -61t118.5 -22.5zM354 653q-29 0 -47.5 17t-24.5 50h19q12 -46 53 -46q20 0 32.5 11.5t19.5 34.5h19q-6 -33 -24 -50t-47 -17z" />
    <glyph glyph-name="obreve" unicode="&#x14f;" horiz-adv-x="481" 
d="M239 -12q-61 0 -108 27t-74 74.5t-27 109.5q0 60 27 106.5t74 72.5t108 26q62 0 110 -26t75 -72t27 -107q0 -62 -27 -109.5t-75 -74.5t-110 -27zM239 11q54 0 95 24t64.5 66.5t23.5 97.5q0 54 -23.5 95.5t-64.5 64.5t-95 23q-53 0 -93.5 -23t-63.5 -64.5t-23 -95.5
q0 -55 23 -97.5t63.5 -66.5t93.5 -24zM238 483q-29 0 -47.5 17t-24.5 50h19q12 -46 53 -46q20 0 32.5 11.5t19.5 34.5h19q-6 -33 -24 -50t-47 -17z" />
    <glyph glyph-name="Ohungarumlaut" unicode="&#x150;" horiz-adv-x="710" 
d="M354 -11q-75 0 -130.5 25.5t-91.5 67.5t-53.5 93.5t-17.5 103.5q0 53 18 105t54 94.5t91.5 68.5t130.5 26t130.5 -26t92 -68.5t54.5 -94.5t18 -105t-17.5 -104.5t-54 -93.5t-92.5 -67t-132 -25zM355 13q68 0 117.5 23t82.5 62t49 86t16 95t-16 95.5t-49 87.5t-82.5 64
t-117.5 24t-117.5 -24t-82 -64t-48.5 -87.5t-16 -95.5q0 -49 15.5 -96.5t48 -86t82 -61t118.5 -22.5zM307 653l54 145h30l-65 -145h-19zM402 653l53 145h30l-64 -145h-19z" />
    <glyph glyph-name="ohungarumlaut" unicode="&#x151;" horiz-adv-x="481" 
d="M239 -12q-61 0 -108 27t-74 74.5t-27 109.5q0 60 27 106.5t74 72.5t108 26q62 0 110 -26t75 -72t27 -107q0 -62 -27 -109.5t-75 -74.5t-110 -27zM239 11q54 0 95 24t64.5 66.5t23.5 97.5q0 54 -23.5 95.5t-64.5 64.5t-95 23q-53 0 -93.5 -23t-63.5 -64.5t-23 -95.5
q0 -55 23 -97.5t63.5 -66.5t93.5 -24zM191 483l54 145h30l-65 -145h-19zM286 483l53 145h30l-64 -145h-19z" />
    <glyph glyph-name="OE" unicode="&#x152;" horiz-adv-x="955" 
d="M380 0q-99 0 -170.5 33.5t-109.5 96t-39 149.5q1 89 39 152.5t109.5 97.5t170.5 34h495v-179h-25v154h-332v-250h230v84h22v-201h-22v93h-230v-240h345v166h26v-190h-509zM381 24h107v514h-107q-88 0 -153.5 -30.5t-101 -88.5t-35.5 -140q0 -79 35 -136t100.5 -88
t154.5 -31z" />
    <glyph glyph-name="oe" unicode="&#x153;" horiz-adv-x="866" 
d="M239 -12q-61 0 -108 27t-74 74.5t-27 109.5q0 60 27 106.5t74 72.5t108 26q71 0 123.5 -34t74.5 -91q23 62 75 93.5t110 31.5q51 0 94.5 -22t70 -68.5t26.5 -118.5v-6h-362q3 -52 27 -92t63.5 -62.5t88.5 -22.5q45 0 89.5 19.5t69.5 47.5l15 -16q-37 -37 -83 -55.5
t-92 -18.5q-62 0 -115.5 33.5t-76.5 95.5q-22 -59 -74.5 -94.5t-123.5 -35.5zM239 11q54 0 95 24t64.5 66.5t23.5 97.5q0 54 -23.5 95.5t-64.5 64.5t-95 23q-53 0 -93.5 -23t-63.5 -64.5t-23 -95.5q0 -55 23 -97.5t63.5 -66.5t93.5 -24zM451 210h335q0 59 -23.5 97t-61 56.5
t-79.5 18.5q-45 0 -83 -20.5t-61.5 -59t-26.5 -92.5z" />
    <glyph glyph-name="Racute" unicode="&#x154;" horiz-adv-x="631" 
d="M60 0v22h85v519h-85v22h306q58 0 93 -22t51 -56.5t16 -71.5q0 -36 -15.5 -70t-53.5 -56t-105 -23l151 -242h83v-22h-103l-163 263h-111v22h131q65 0 98.5 20t46 50t12.5 58q0 31 -12 60t-40 48.5t-77 19.5h-193v-519h85v-22h-200zM312 653l44 123h30l-59 -123h-15z" />
    <glyph glyph-name="racute" unicode="&#x155;" horiz-adv-x="364" 
d="M55 0v22h87v349h-85v22h114v-123l-10 -1q7 50 24.5 79t40 41.5t46.5 12.5q20 0 38 -4.5t34 -14.5l-6 -23q-16 9 -30.5 14t-34.5 5q-40 0 -71 -40.5t-31 -112.5v-204h83v-22h-199zM227 483l44 123h30l-59 -123h-15z" />
    <glyph glyph-name="uni0156" unicode="&#x156;" horiz-adv-x="631" 
d="M60 0v22h85v519h-85v22h306q58 0 93 -22t51 -56.5t16 -71.5q0 -36 -15.5 -70t-53.5 -56t-105 -23l151 -242h83v-22h-103l-163 263h-111v22h131q65 0 98.5 20t46 50t12.5 58q0 31 -12 60t-40 48.5t-77 19.5h-193v-519h85v-22h-200zM319 -187v12q26 2 30.5 23.5t4.5 52.5
h-28v47h48v-53q0 -32 -9.5 -57.5t-45.5 -24.5z" />
    <glyph glyph-name="uni0157" unicode="&#x157;" horiz-adv-x="364" 
d="M55 0v22h87v349h-85v22h114v-123l-10 -1q7 50 24.5 79t40 41.5t46.5 12.5q20 0 38 -4.5t34 -14.5l-6 -23q-16 9 -30.5 14t-34.5 5q-40 0 -71 -40.5t-31 -112.5v-204h83v-22h-199zM132 -187v12q26 2 30.5 23.5t4.5 52.5h-28v47h48v-53q0 -32 -9.5 -57.5t-45.5 -24.5z" />
    <glyph glyph-name="Rcaron" unicode="&#x158;" horiz-adv-x="631" 
d="M60 0v22h85v519h-85v22h306q58 0 93 -22t51 -56.5t16 -71.5q0 -36 -15.5 -70t-53.5 -56t-105 -23l151 -242h83v-22h-103l-163 263h-111v22h131q65 0 98.5 20t46 50t12.5 58q0 31 -12 60t-40 48.5t-77 19.5h-193v-519h85v-22h-200zM308 643l-86 150h24l71 -127l71 127h23
l-84 -150h-19z" />
    <glyph glyph-name="rcaron" unicode="&#x159;" horiz-adv-x="364" 
d="M55 0v22h87v349h-85v22h114v-123l-10 -1q7 50 24.5 79t40 41.5t46.5 12.5q20 0 38 -4.5t34 -14.5l-6 -23q-16 9 -30.5 14t-34.5 5q-40 0 -71 -40.5t-31 -112.5v-204h83v-22h-199zM223 473l-86 150h24l71 -127l71 127h23l-84 -150h-19z" />
    <glyph glyph-name="Sacute" unicode="&#x15a;" horiz-adv-x="553" 
d="M311 -11q-54 0 -96 13.5t-69 38t-37 57.5h5v-98h-28v189h28q0 -53 18 -93t61 -61.5t118 -21.5q73 0 112 34.5t39 92.5q0 39 -12 64.5t-39.5 40.5t-76.5 21l-81 11q-82 11 -125 45t-43 106q0 44 20.5 76.5t60 50.5t96.5 18q73 0 121.5 -29t62.5 -76h-7v95h28v-151h-28
q0 40 -20 71t-59.5 49t-96.5 18q-72 0 -111 -33.5t-39 -87.5q0 -66 39.5 -92t104.5 -35l82 -11q53 -7 86.5 -25.5t49 -49t15.5 -74.5q0 -45 -21 -79.5t-60.5 -54t-97.5 -19.5zM278 653l44 123h30l-59 -123h-15z" />
    <glyph glyph-name="sacute" unicode="&#x15b;" horiz-adv-x="446" 
d="M246 -11q-38 0 -72.5 9.5t-57.5 25.5t-30 33l10 -12v-45h-26v117h24l3 -66l-17 37q23 -38 66.5 -57.5t98.5 -19.5q52 0 85 22.5t33 60.5q0 45 -28.5 62t-90.5 30l-65 13q-47 11 -76.5 32t-29.5 69q0 51 41 77t101 26q28 0 56.5 -8t52 -22.5t36.5 -35.5l-17 12v44h26v-128
h-24l-5 78l10 -26q-7 16 -27.5 30.5t-48 24t-57.5 9.5q-46 0 -80.5 -20t-34.5 -60q0 -38 27 -54t67 -24l65 -14q48 -10 76 -23.5t40.5 -34.5t12.5 -55q0 -37 -21 -60.5t-54 -35t-69 -11.5zM231 483l44 123h30l-59 -123h-15z" />
    <glyph glyph-name="Scircumflex" unicode="&#x15c;" horiz-adv-x="553" 
d="M311 -11q-54 0 -96 13.5t-69 38t-37 57.5h5v-98h-28v189h28q0 -53 18 -93t61 -61.5t118 -21.5q73 0 112 34.5t39 92.5q0 39 -12 64.5t-39.5 40.5t-76.5 21l-81 11q-82 11 -125 45t-43 106q0 44 20.5 76.5t60 50.5t96.5 18q73 0 121.5 -29t62.5 -76h-7v95h28v-151h-28
q0 40 -20 71t-59.5 49t-96.5 18q-72 0 -111 -33.5t-39 -87.5q0 -66 39.5 -92t104.5 -35l82 -11q53 -7 86.5 -25.5t49 -49t15.5 -74.5q0 -45 -21 -79.5t-60.5 -54t-97.5 -19.5zM187 623l86 151h21l85 -151h-24l-72 130l-72 -130h-24z" />
    <glyph glyph-name="scircumflex" unicode="&#x15d;" horiz-adv-x="446" 
d="M246 -11q-38 0 -72.5 9.5t-57.5 25.5t-30 33l10 -12v-45h-26v117h24l3 -66l-17 37q23 -38 66.5 -57.5t98.5 -19.5q52 0 85 22.5t33 60.5q0 45 -28.5 62t-90.5 30l-65 13q-47 11 -76.5 32t-29.5 69q0 51 41 77t101 26q28 0 56.5 -8t52 -22.5t36.5 -35.5l-17 12v44h26v-128
h-24l-5 78l10 -26q-7 16 -27.5 30.5t-48 24t-57.5 9.5q-46 0 -80.5 -20t-34.5 -60q0 -38 27 -54t67 -24l65 -14q48 -10 76 -23.5t40.5 -34.5t12.5 -55q0 -37 -21 -60.5t-54 -35t-69 -11.5zM140 453l86 151h21l85 -151h-24l-72 130l-72 -130h-24z" />
    <glyph glyph-name="Scedilla" unicode="&#x15e;" horiz-adv-x="553" 
d="M311 -11q-54 0 -96 13.5t-69 38t-37 57.5h5v-98h-28v189h28q0 -53 18 -93t61 -61.5t118 -21.5q73 0 112 34.5t39 92.5q0 39 -12 64.5t-39.5 40.5t-76.5 21l-81 11q-82 11 -125 45t-43 106q0 44 20.5 76.5t60 50.5t96.5 18q73 0 121.5 -29t62.5 -76h-7v95h28v-151h-28
q0 40 -20 71t-59.5 49t-96.5 18q-72 0 -111 -33.5t-39 -87.5q0 -66 39.5 -92t104.5 -35l82 -11q53 -7 86.5 -25.5t49 -49t15.5 -74.5q0 -45 -21 -79.5t-60.5 -54t-97.5 -19.5zM308 -145q-26 0 -50 13v15q11 -4 21.5 -5.5t18.5 -1.5q18 0 28 5t10 17q0 13 -12.5 19.5
t-47.5 7.5l29 75h16l-18 -56q32 0 47.5 -12.5t15.5 -32.5q0 -23 -17.5 -33.5t-40.5 -10.5z" />
    <glyph glyph-name="scedilla" unicode="&#x15f;" horiz-adv-x="446" 
d="M246 -11q-38 0 -72.5 9.5t-57.5 25.5t-30 33l10 -12v-45h-26v117h24l3 -66l-17 37q23 -38 66.5 -57.5t98.5 -19.5q52 0 85 22.5t33 60.5q0 45 -28.5 62t-90.5 30l-65 13q-47 11 -76.5 32t-29.5 69q0 51 41 77t101 26q28 0 56.5 -8t52 -22.5t36.5 -35.5l-17 12v44h26v-128
h-24l-5 78l10 -26q-7 16 -27.5 30.5t-48 24t-57.5 9.5q-46 0 -80.5 -20t-34.5 -60q0 -38 27 -54t67 -24l65 -14q48 -10 76 -23.5t40.5 -34.5t12.5 -55q0 -37 -21 -60.5t-54 -35t-69 -11.5zM225 -145q-26 0 -50 13v15q11 -4 21.5 -5.5t18.5 -1.5q18 0 28 5t10 17
q0 13 -12.5 19.5t-47.5 7.5l29 75h16l-18 -56q32 0 47.5 -12.5t15.5 -32.5q0 -23 -17.5 -33.5t-40.5 -10.5z" />
    <glyph glyph-name="Scaron" unicode="&#x160;" horiz-adv-x="553" 
d="M311 -11q-54 0 -96 13.5t-69 38t-37 57.5h5v-98h-28v189h28q0 -53 18 -93t61 -61.5t118 -21.5q73 0 112 34.5t39 92.5q0 39 -12 64.5t-39.5 40.5t-76.5 21l-81 11q-82 11 -125 45t-43 106q0 44 20.5 76.5t60 50.5t96.5 18q73 0 121.5 -29t62.5 -76h-7v95h28v-151h-28
q0 40 -20 71t-59.5 49t-96.5 18q-72 0 -111 -33.5t-39 -87.5q0 -66 39.5 -92t104.5 -35l82 -11q53 -7 86.5 -25.5t49 -49t15.5 -74.5q0 -45 -21 -79.5t-60.5 -54t-97.5 -19.5zM274 643l-86 150h24l71 -127l71 127h23l-84 -150h-19z" />
    <glyph glyph-name="scaron" unicode="&#x161;" horiz-adv-x="446" 
d="M246 -11q-38 0 -72.5 9.5t-57.5 25.5t-30 33l10 -12v-45h-26v117h24l3 -66l-17 37q23 -38 66.5 -57.5t98.5 -19.5q52 0 85 22.5t33 60.5q0 45 -28.5 62t-90.5 30l-65 13q-47 11 -76.5 32t-29.5 69q0 51 41 77t101 26q28 0 56.5 -8t52 -22.5t36.5 -35.5l-17 12v44h26v-128
h-24l-5 78l10 -26q-7 16 -27.5 30.5t-48 24t-57.5 9.5q-46 0 -80.5 -20t-34.5 -60q0 -38 27 -54t67 -24l65 -14q48 -10 76 -23.5t40.5 -34.5t12.5 -55q0 -37 -21 -60.5t-54 -35t-69 -11.5zM227 473l-86 150h24l71 -127l71 127h23l-84 -150h-19z" />
    <glyph glyph-name="uni0162" unicode="&#x162;" horiz-adv-x="560" 
d="M177 0v22h85v519h-211v-164h-26v186h510v-186h-27v164h-216v-519h84v-22h-199zM272 -145q-26 0 -50 13v15q11 -4 21.5 -5.5t18.5 -1.5q18 0 28 5t10 17q0 13 -12.5 19.5t-47.5 7.5l29 75h16l-18 -56q32 0 47.5 -12.5t15.5 -32.5q0 -23 -17.5 -33.5t-40.5 -10.5z" />
    <glyph glyph-name="uni0163" unicode="&#x163;" horiz-adv-x="282" 
d="M216 0q-53 0 -87.5 22.5t-34.5 84.5v264h-74v22h74v136l29 9v-145h115v-22h-115v-262q0 -49 22.5 -68t72.5 -19h39v-22h-41zM187 -141q-26 0 -50 13v15q11 -4 21.5 -5.5t18.5 -1.5q18 0 28 5t10 17q0 13 -12.5 19.5t-47.5 7.5l29 75h16l-18 -56q32 0 47.5 -12.5
t15.5 -32.5q0 -23 -17.5 -33.5t-40.5 -10.5z" />
    <glyph glyph-name="Tcaron" unicode="&#x164;" horiz-adv-x="560" 
d="M177 0v22h85v519h-211v-164h-26v186h510v-186h-27v164h-216v-519h84v-22h-199zM268 643l-86 150h24l71 -127l71 127h23l-84 -150h-19z" />
    <glyph glyph-name="tcaron" unicode="&#x165;" horiz-adv-x="282" 
d="M216 0q-53 0 -87.5 22.5t-34.5 84.5v264h-74v22h74v136l29 9v-145h115v-22h-115v-262q0 -49 22.5 -68t72.5 -19h39v-22h-41zM184 450v12q20 3 26.5 15.5t6.5 52.5h-29v53h49l-1 -56q0 -31 -9.5 -54t-42.5 -23z" />
    <glyph glyph-name="Tbar" unicode="&#x166;" horiz-adv-x="560" 
d="M186 268v20h184v-20h-184zM177 0v22h85v519h-211v-164h-26v186h510v-186h-27v164h-216v-519h84v-22h-199z" />
    <glyph glyph-name="tbar" unicode="&#x167;" horiz-adv-x="282" 
d="M20 216v20h208v-20h-208zM216 0q-53 0 -87.5 22.5t-34.5 84.5v264h-74v22h74v136l29 9v-145h115v-22h-115v-262q0 -49 22.5 -68t72.5 -19h39v-22h-41z" />
    <glyph glyph-name="Utilde" unicode="&#x168;" horiz-adv-x="729" 
d="M360 -11q-73 0 -128 24.5t-85.5 68t-30.5 101.5v358h-74v22h179v-22h-75v-358q0 -50 27 -88.5t75.5 -60t111.5 -21.5q69 0 120.5 21t80.5 59.5t29 88.5v359h-73v22h179v-22h-77v-359q0 -58 -33 -101.5t-91.5 -67.5t-134.5 -24zM419 653q-18 0 -36 10.5t-35 20.5t-35 10
q-27 0 -27 -40h-20q0 26 12.5 44t34.5 18q19 0 36.5 -10t35 -20.5t34.5 -10.5q12 0 19.5 9.5t7.5 29.5h20q0 -30 -10.5 -45.5t-36.5 -15.5z" />
    <glyph glyph-name="utilde" unicode="&#x169;" horiz-adv-x="502" 
d="M215 -11q-49 0 -75.5 20t-36 47t-9.5 47v268h-76v22h106v-289q0 -35 22 -63.5t71 -28.5q57 0 99 21t87 56l-26 -24v306h-73v22h103v-372h73v-21h-98l-4 62l26 6q-42 -37 -89 -58t-100 -21zM291 483q-18 0 -36 10.5t-35 20.5t-35 10q-27 0 -27 -40h-20q0 26 12.5 44
t34.5 18q19 0 36.5 -10t35 -20.5t34.5 -10.5q12 0 19.5 9.5t7.5 29.5h20q0 -30 -10.5 -45.5t-36.5 -15.5z" />
    <glyph glyph-name="Umacron" unicode="&#x16a;" horiz-adv-x="729" 
d="M360 -11q-73 0 -128 24.5t-85.5 68t-30.5 101.5v358h-74v22h179v-22h-75v-358q0 -50 27 -88.5t75.5 -60t111.5 -21.5q69 0 120.5 21t80.5 59.5t29 88.5v359h-73v22h179v-22h-77v-359q0 -58 -33 -101.5t-91.5 -67.5t-134.5 -24zM274 653v20h184v-20h-184z" />
    <glyph glyph-name="umacron" unicode="&#x16b;" horiz-adv-x="502" 
d="M215 -11q-49 0 -75.5 20t-36 47t-9.5 47v268h-76v22h106v-289q0 -35 22 -63.5t71 -28.5q57 0 99 21t87 56l-26 -24v306h-73v22h103v-372h73v-21h-98l-4 62l26 6q-42 -37 -89 -58t-100 -21zM146 483v20h184v-20h-184z" />
    <glyph glyph-name="Ubreve" unicode="&#x16c;" horiz-adv-x="729" 
d="M360 -11q-73 0 -128 24.5t-85.5 68t-30.5 101.5v358h-74v22h179v-22h-75v-358q0 -50 27 -88.5t75.5 -60t111.5 -21.5q69 0 120.5 21t80.5 59.5t29 88.5v359h-73v22h179v-22h-77v-359q0 -58 -33 -101.5t-91.5 -67.5t-134.5 -24zM366 653q-29 0 -47.5 17t-24.5 50h19
q12 -46 53 -46q20 0 32.5 11.5t19.5 34.5h19q-6 -33 -24 -50t-47 -17z" />
    <glyph glyph-name="ubreve" unicode="&#x16d;" horiz-adv-x="502" 
d="M215 -11q-49 0 -75.5 20t-36 47t-9.5 47v268h-76v22h106v-289q0 -35 22 -63.5t71 -28.5q57 0 99 21t87 56l-26 -24v306h-73v22h103v-372h73v-21h-98l-4 62l26 6q-42 -37 -89 -58t-100 -21zM238 483q-29 0 -47.5 17t-24.5 50h19q12 -46 53 -46q20 0 32.5 11.5t19.5 34.5
h19q-6 -33 -24 -50t-47 -17z" />
    <glyph glyph-name="Uring" unicode="&#x16e;" horiz-adv-x="729" 
d="M360 -11q-73 0 -128 24.5t-85.5 68t-30.5 101.5v358h-74v22h179v-22h-75v-358q0 -50 27 -88.5t75.5 -60t111.5 -21.5q69 0 120.5 21t80.5 59.5t29 88.5v359h-73v22h179v-22h-77v-359q0 -58 -33 -101.5t-91.5 -67.5t-134.5 -24zM367 633q-28 0 -44.5 15.5t-15.5 41.5
t16 41t43 15t43.5 -15t15.5 -41t-15 -41.5t-43 -15.5zM367 648q18 0 29 11.5t11 30.5t-11 29.5t-29 10.5q-19 0 -30 -10.5t-11 -29.5t11 -30.5t30 -11.5z" />
    <glyph glyph-name="uring" unicode="&#x16f;" horiz-adv-x="502" 
d="M215 -11q-49 0 -75.5 20t-36 47t-9.5 47v268h-76v22h106v-289q0 -35 22 -63.5t71 -28.5q57 0 99 21t87 56l-26 -24v306h-73v22h103v-372h73v-21h-98l-4 62l26 6q-42 -37 -89 -58t-100 -21zM239 463q-28 0 -44.5 15.5t-15.5 41.5t16 41t43 15t43.5 -15t15.5 -41t-15 -41.5
t-43 -15.5zM239 478q18 0 29 11.5t11 30.5t-11 29.5t-29 10.5q-19 0 -30 -10.5t-11 -29.5t11 -30.5t30 -11.5z" />
    <glyph glyph-name="Uhungarumlaut" unicode="&#x170;" horiz-adv-x="729" 
d="M360 -11q-73 0 -128 24.5t-85.5 68t-30.5 101.5v358h-74v22h179v-22h-75v-358q0 -50 27 -88.5t75.5 -60t111.5 -21.5q69 0 120.5 21t80.5 59.5t29 88.5v359h-73v22h179v-22h-77v-359q0 -58 -33 -101.5t-91.5 -67.5t-134.5 -24zM319 653l54 145h30l-65 -145h-19zM414 653
l53 145h30l-64 -145h-19z" />
    <glyph glyph-name="uhungarumlaut" unicode="&#x171;" horiz-adv-x="502" 
d="M215 -11q-49 0 -75.5 20t-36 47t-9.5 47v268h-76v22h106v-289q0 -35 22 -63.5t71 -28.5q57 0 99 21t87 56l-26 -24v306h-73v22h103v-372h73v-21h-98l-4 62l26 6q-42 -37 -89 -58t-100 -21zM191 483l54 145h30l-65 -145h-19zM286 483l53 145h30l-64 -145h-19z" />
    <glyph glyph-name="Uogonek" unicode="&#x172;" horiz-adv-x="729" 
d="M360 -11q-73 0 -128 24.5t-85.5 68t-30.5 101.5v358h-74v22h179v-22h-75v-358q0 -50 27 -88.5t75.5 -60t111.5 -21.5q69 0 120.5 21t80.5 59.5t29 88.5v359h-73v22h179v-22h-77v-359q0 -58 -33 -101.5t-91.5 -67.5t-134.5 -24zM353 -153q-26 0 -45.5 16t-19.5 44
q0 23 14 46.5t41 46.5h22q-23 -23 -36 -44t-13 -42q0 -22 13 -33.5t32 -11.5q24 0 47 17v-20q-13 -9 -27 -14t-28 -5z" />
    <glyph glyph-name="uogonek" unicode="&#x173;" horiz-adv-x="502" 
d="M215 -11q-49 0 -75.5 20t-36 47t-9.5 47v268h-76v22h106v-289q0 -35 22 -63.5t71 -28.5q57 0 99 21t87 56l-26 -24v306h-73v22h103v-372h73v-21h-98l-4 62l26 6q-42 -37 -89 -58t-100 -21zM440 -143q-26 0 -45.5 16t-19.5 44q0 23 14 46.5t41 46.5h22q-23 -23 -36 -44
t-13 -42q0 -22 13 -33.5t32 -11.5q24 0 47 17v-20q-13 -9 -27 -14t-28 -5z" />
    <glyph glyph-name="Wcircumflex" unicode="&#x174;" horiz-adv-x="953" 
d="M286 0l-183 541h-68v22h178v-22h-78l168 -503l164 496h23l162 -496l165 503h-76v22h177v-22h-71l-180 -541h-31l-158 480l-160 -480h-32zM383 594l86 151h21l85 -151h-24l-72 130l-72 -130h-24z" />
    <glyph glyph-name="wcircumflex" unicode="&#x175;" horiz-adv-x="761" 
d="M215 0l-134 371h-65v22h170v-22h-76l124 -349l128 349h-70v22h174v-22h-72l130 -348l118 348h-68v22h163v-22h-67l-128 -371h-34l-129 346l-129 -346h-35zM283 453l86 151h21l85 -151h-24l-72 130l-72 -130h-24z" />
    <glyph glyph-name="Ycircumflex" unicode="&#x176;" horiz-adv-x="615" 
d="M210 0v22h82v205l-209 314h-76v22h183v-22h-74l193 -289l191 289h-78v22h184v-22h-75l-209 -314v-205h83v-22h-195zM215 623l86 151h21l85 -151h-24l-72 130l-72 -130h-24z" />
    <glyph glyph-name="ycircumflex" unicode="&#x177;" horiz-adv-x="523" 
d="M115 -122v26h39q30 0 45.5 4t25.5 16t20 35l31 71h-18l-154 341h-81v22h182v-22h-71l147 -330l139 330h-83v22h177v-22h-64l-179 -418q-13 -30 -26.5 -46t-34 -22.5t-55.5 -6.5h-40zM175 453l86 151h21l85 -151h-24l-72 130l-72 -130h-24z" />
    <glyph glyph-name="Ydieresis" unicode="&#x178;" horiz-adv-x="615" 
d="M210 0v22h82v205l-209 314h-76v22h183v-22h-74l193 -289l191 289h-78v22h184v-22h-75l-209 -314v-205h83v-22h-195zM233 654q-11 0 -17 6t-6 16t6 15.5t16 5.5q11 0 16.5 -5.5t5.5 -15.5t-5.5 -16t-15.5 -6zM390 654q-10 0 -16 5.5t-6 15.5q0 11 6 16.5t16 5.5t16 -5.5
t6 -16.5q0 -10 -6 -15.5t-16 -5.5z" />
    <glyph glyph-name="Zacute" unicode="&#x179;" horiz-adv-x="602" 
d="M69 0v23l415 518h-376v-149h-25v171h435v-22l-415 -519h403v156h25v-178h-462zM296 653l44 123h30l-59 -123h-15z" />
    <glyph glyph-name="zacute" unicode="&#x17a;" horiz-adv-x="462" 
d="M70 0v25l281 347h-242v-95h-26v116h296v-28l-275 -344h257v109h25v-130h-316zM231 483l44 123h30l-59 -123h-15z" />
    <glyph glyph-name="Zdotaccent" unicode="&#x17b;" horiz-adv-x="602" 
d="M69 0v23l415 518h-376v-149h-25v171h435v-22l-415 -519h403v156h25v-178h-462zM301 653q-16 0 -23 9t-7 18q0 11 7 19.5t23 8.5t23 -8.5t7 -19.5q0 -9 -7.5 -18t-22.5 -9z" />
    <glyph glyph-name="zdotaccent" unicode="&#x17c;" horiz-adv-x="462" 
d="M70 0v25l281 347h-242v-95h-26v116h296v-28l-275 -344h257v109h25v-130h-316zM236 483q-16 0 -23 9t-7 18q0 11 7 19.5t23 8.5t23 -8.5t7 -19.5q0 -9 -7.5 -18t-22.5 -9z" />
    <glyph glyph-name="Zcaron" unicode="&#x17d;" horiz-adv-x="602" 
d="M69 0v23l415 518h-376v-149h-25v171h435v-22l-415 -519h403v156h25v-178h-462zM292 643l-86 150h24l71 -127l71 127h23l-84 -150h-19z" />
    <glyph glyph-name="zcaron" unicode="&#x17e;" horiz-adv-x="462" 
d="M70 0v25l281 347h-242v-95h-26v116h296v-28l-275 -344h257v109h25v-130h-316zM227 473l-86 150h24l71 -127l71 127h23l-84 -150h-19z" />
    <glyph glyph-name="uni018F" unicode="&#x18f;" horiz-adv-x="659" 
d="M318 -11q-72 0 -133 31t-98 96t-37 166v9h525v-23h-495q0 -87 34.5 -143.5t89 -84t114.5 -27.5q69 0 126 32t91 91.5t34 140.5t-34 142.5t-92.5 96t-131.5 34.5q-68 0 -127.5 -28t-103.5 -72l-17 18q36 33 74.5 56.5t82 36t92.5 12.5q56 0 107.5 -20t92 -58t64 -93
t23.5 -124q0 -72 -23.5 -126t-63.5 -90t-90.5 -54.5t-103.5 -18.5z" />
    <glyph glyph-name="florin" unicode="&#x192;" horiz-adv-x="261" 
d="M14 -139q-16 0 -29.5 3.5t-24.5 9.5l5 26q13 -10 24 -13.5t24 -3.5q22 0 35.5 14t17.5 42l81 560q5 36 25.5 55.5t54.5 19.5q17 0 30 -3.5t24 -9.5l-5 -26q-13 10 -24 13.5t-24 3.5q-22 0 -35 -13.5t-18 -42.5l-81 -560q-5 -36 -25.5 -55.5t-54.5 -19.5zM46 321l3 22h204
l-3 -22h-204z" />
    <glyph glyph-name="Ohorn" unicode="&#x1a0;" horiz-adv-x="710" 
d="M354 -11q-75 0 -130.5 25.5t-91.5 67.5t-53.5 93.5t-17.5 103.5q0 53 18 105t54 94.5t91.5 68.5t130.5 26q35 0 55.5 -3.5t45.5 -3.5q28 0 48 15t23 50h30q-4 -38 -26.5 -60t-57.5 -22l-8 6q63 -22 104 -66t61 -99t20 -111q0 -53 -17.5 -104.5t-54 -93.5t-92.5 -67
t-132 -25zM355 13q68 0 117.5 23t82.5 62t49 86t16 95t-16 95.5t-49 87.5t-82.5 64t-117.5 24t-117.5 -24t-82 -64t-48.5 -87.5t-16 -95.5q0 -49 15.5 -96.5t48 -86t82 -61t118.5 -22.5z" />
    <glyph glyph-name="ohorn" unicode="&#x1a1;" horiz-adv-x="481" 
d="M239 -12q-61 0 -108 27t-74 74.5t-27 109.5q0 60 27 106.5t74 72.5t108 26q62 0 110 -26t75 -72t27 -107q0 -62 -27 -109.5t-75 -74.5t-110 -27zM239 11q54 0 95 24t64.5 66.5t23.5 97.5q0 54 -23.5 95.5t-64.5 64.5t-95 23q-53 0 -93.5 -23t-63.5 -64.5t-23 -95.5
q0 -55 23 -97.5t63.5 -66.5t93.5 -24zM293 376v17h6q28 0 48 15t23 50h30q-5 -38 -30 -60t-66 -22h-11z" />
    <glyph glyph-name="Uhorn" unicode="&#x1af;" horiz-adv-x="729" 
d="M360 -11q-73 0 -128 24.5t-85.5 68t-30.5 101.5v358h-74v22h179v-22h-75v-358q0 -50 27 -88.5t75.5 -60t111.5 -21.5q69 0 120.5 21t80.5 59.5t29 88.5v359h-73v22h102v-381q0 -58 -33 -101.5t-91.5 -67.5t-134.5 -24zM593 546v17h6q28 0 48 15t23 50h30q-5 -38 -30 -60
t-66 -22h-11z" />
    <glyph glyph-name="uhorn" unicode="&#x1b0;" horiz-adv-x="502" 
d="M215 -11q-49 0 -75.5 20t-36 47t-9.5 47v268h-76v22h106v-289q0 -35 22 -63.5t71 -28.5q57 0 99 21t87 56l-26 -24v306h-73v22h103v-372h73v-21h-98l-4 62l26 6q-42 -37 -89 -58t-100 -21zM365 376v17h6q28 0 48 15t23 50h30q-5 -38 -30 -60t-66 -22h-11z" />
    <glyph glyph-name="uni01C4" unicode="&#x1c4;" horiz-adv-x="1300" 
d="M60 0v22h85v519h-85v22h335q63 0 108.5 -26t75 -68.5t44 -92t14.5 -96.5q0 -48 -15 -97.5t-44.5 -90.5t-74.5 -66.5t-105 -25.5h-338zM175 22h218q54 0 94.5 22.5t67 60t40 83t13.5 91.5t-13.5 92t-40 84.5t-66 62t-92.5 23.5h-221v-519zM767 0v23l415 518h-376v-149h-25
v171h435v-22l-415 -519h403v156h25v-178h-462zM990 643l-86 150h24l71 -127l71 127h23l-84 -150h-19z" />
    <glyph glyph-name="uni01C5" unicode="&#x1c5;" horiz-adv-x="1160" 
d="M60 0v22h85v519h-85v22h335q63 0 108.5 -26t75 -68.5t44 -92t14.5 -96.5q0 -48 -15 -97.5t-44.5 -90.5t-74.5 -66.5t-105 -25.5h-338zM175 22h218q54 0 94.5 22.5t67 60t40 83t13.5 91.5t-13.5 92t-40 84.5t-66 62t-92.5 23.5h-221v-519zM768 0v25l281 347h-242v-95h-26
v116h296v-28l-275 -344h257v109h25v-130h-316zM925 473l-86 150h24l71 -127l71 127h23l-84 -150h-19z" />
    <glyph glyph-name="uni01C6" unicode="&#x1c6;" horiz-adv-x="959" 
d="M238 -11q-60 0 -107 26.5t-74 73.5t-27 108q0 62 26.5 108t73 72t106.5 26q49 0 95.5 -19t71.5 -56l-20 15v208h-66v22h95v-551h67v-22h-96v52l20 10q-28 -31 -71.5 -52t-93.5 -21zM240 12q49 0 91.5 21t72.5 54l-21 -27v276l21 -33q-32 39 -75.5 58.5t-90.5 19.5
q-52 0 -92.5 -23.5t-63.5 -66t-23 -98.5q0 -53 23.5 -94t64.5 -64t93 -23zM567 0v25l281 347h-242v-95h-26v116h296v-28l-275 -344h257v109h25v-130h-316zM724 473l-86 150h24l71 -127l71 127h23l-84 -150h-19z" />
    <glyph glyph-name="uni01C7" unicode="&#x1c7;" horiz-adv-x="794" 
d="M60 0v22h85v519h-85v22h200v-22h-85v-519h291v160h25v-182h-431zM566 -32v23h60q30 0 37.5 20.5t7.5 66.5v463h-65v22h157v-22h-61v-468q0 -45 -9 -67.5t-26.5 -30t-45.5 -7.5h-55z" />
    <glyph glyph-name="uni01C8" unicode="&#x1c8;" horiz-adv-x="719" 
d="M60 0v22h85v519h-85v22h200v-22h-85v-519h291v160h25v-182h-431zM527 -122v22h32q37 0 51.5 17.5t14.5 61.5v394h-77v20h108v-413q0 -34 -10.5 -56.5t-32 -34t-56.5 -11.5h-30zM632 496q-11 0 -19 7t-8 18q0 10 8 16.5t19 6.5q12 0 19.5 -6.5t7.5 -16.5q0 -11 -7.5 -18
t-19.5 -7z" />
    <glyph glyph-name="uni01C9" unicode="&#x1c9;" horiz-adv-x="426" 
d="M28 0v22h73v529h-70v22h98v-551h73v-22h-174zM234 -122v22h32q37 0 51.5 17.5t14.5 61.5v394h-77v20h108v-413q0 -34 -10.5 -56.5t-32 -34t-56.5 -11.5h-30zM339 496q-11 0 -19 7t-8 18q0 10 8 16.5t19 6.5q12 0 19.5 -6.5t7.5 -16.5q0 -11 -7.5 -18t-19.5 -7z" />
    <glyph glyph-name="uni01CA" unicode="&#x1ca;" horiz-adv-x="982" 
d="M64 0v22h72v519h-72v22h100l413 -521v499h-75v22h165v-22h-63v-541h-30l-410 518v-496h73v-22h-173zM754 -32v23h60q30 0 37.5 20.5t7.5 66.5v463h-65v22h157v-22h-61v-468q0 -45 -9 -67.5t-26.5 -30t-45.5 -7.5h-55z" />
    <glyph glyph-name="uni01CB" unicode="&#x1cb;" horiz-adv-x="907" 
d="M64 0v22h72v519h-72v22h100l413 -521v499h-75v22h165v-22h-63v-541h-30l-410 518v-496h73v-22h-173zM715 -122v22h32q37 0 51.5 17.5t14.5 61.5v394h-77v20h108v-413q0 -34 -10.5 -56.5t-32 -34t-56.5 -11.5h-30zM820 496q-11 0 -19 7t-8 18q0 10 8 16.5t19 6.5
q12 0 19.5 -6.5t7.5 -16.5q0 -11 -7.5 -18t-19.5 -7z" />
    <glyph glyph-name="uni01CC" unicode="&#x1cc;" horiz-adv-x="699" 
d="M18 0v22h86v349h-85v22h114v-50h-9q43 26 87.5 43t87.5 17q55 0 87.5 -32.5t32.5 -88.5v-260h75v-22h-189v22h85v268q0 42 -26 66t-70 24q-35 0 -80 -17t-90 -43l9 15v-313h84v-22h-199zM507 -122v22h32q37 0 51.5 17.5t14.5 61.5v394h-77v20h108v-413q0 -34 -10.5 -56.5
t-32 -34t-56.5 -11.5h-30zM612 496q-11 0 -19 7t-8 18q0 10 8 16.5t19 6.5q12 0 19.5 -6.5t7.5 -16.5q0 -11 -7.5 -18t-19.5 -7z" />
    <glyph glyph-name="uni01CD" unicode="&#x1cd;" horiz-adv-x="675" 
d="M42 0v22h76l193 519h-71v22h198v-22h-73l193 -519h75v-22h-179v22h72l-78 213h-221l-79 -213h73v-22h-179zM233 256h208l-103 282h-2zM329 643l-86 150h24l71 -127l71 127h23l-84 -150h-19z" />
    <glyph glyph-name="uni01CE" unicode="&#x1ce;" horiz-adv-x="442" 
d="M172 -11q-59 0 -95.5 32.5t-36.5 84.5q0 44 19 69t50.5 35.5t67.5 10.5q39 0 80 -6t81 -14l-14 -6v68q0 61 -32.5 89.5t-82.5 28.5q-35 0 -70.5 -9.5t-66.5 -22.5l-9 22q40 17 77.5 24.5t65.5 7.5q59 0 90.5 -20.5t44 -51t12.5 -60.5v-249h60v-22h-81l-8 46h12
q-48 -29 -88 -43t-76 -14zM173 11q37 0 74 14t92 45l-15 -15v135l15 -9q-43 9 -83 14.5t-78 5.5q-43 0 -76.5 -21.5t-33.5 -74.5q0 -37 27 -65.5t78 -28.5zM209 473l-86 150h24l71 -127l71 127h23l-84 -150h-19z" />
    <glyph glyph-name="uni01CF" unicode="&#x1cf;" horiz-adv-x="311" 
d="M55 0v22h85v519h-85v22h200v-22h-85v-519h85v-22h-200zM148 643l-86 150h24l71 -127l71 127h23l-84 -150h-19z" />
    <glyph glyph-name="uni01D0" unicode="&#x1d0;" horiz-adv-x="236" 
d="M18 0v22h86v349h-85v22h114v-371h84v-22h-199zM102 473l-86 150h24l71 -127l71 127h23l-84 -150h-19z" />
    <glyph glyph-name="uni01D1" unicode="&#x1d1;" horiz-adv-x="710" 
d="M354 -11q-75 0 -130.5 25.5t-91.5 67.5t-53.5 93.5t-17.5 103.5q0 53 18 105t54 94.5t91.5 68.5t130.5 26t130.5 -26t92 -68.5t54.5 -94.5t18 -105t-17.5 -104.5t-54 -93.5t-92.5 -67t-132 -25zM355 13q68 0 117.5 23t82.5 62t49 86t16 95t-16 95.5t-49 87.5t-82.5 64
t-117.5 24t-117.5 -24t-82 -64t-48.5 -87.5t-16 -95.5q0 -49 15.5 -96.5t48 -86t82 -61t118.5 -22.5zM345 643l-86 150h24l71 -127l71 127h23l-84 -150h-19z" />
    <glyph glyph-name="uni01D2" unicode="&#x1d2;" horiz-adv-x="481" 
d="M239 -12q-61 0 -108 27t-74 74.5t-27 109.5q0 60 27 106.5t74 72.5t108 26q62 0 110 -26t75 -72t27 -107q0 -62 -27 -109.5t-75 -74.5t-110 -27zM239 11q54 0 95 24t64.5 66.5t23.5 97.5q0 54 -23.5 95.5t-64.5 64.5t-95 23q-53 0 -93.5 -23t-63.5 -64.5t-23 -95.5
q0 -55 23 -97.5t63.5 -66.5t93.5 -24zM229 473l-86 150h24l71 -127l71 127h23l-84 -150h-19z" />
    <glyph glyph-name="uni01D3" unicode="&#x1d3;" horiz-adv-x="729" 
d="M360 -11q-73 0 -128 24.5t-85.5 68t-30.5 101.5v358h-74v22h179v-22h-75v-358q0 -50 27 -88.5t75.5 -60t111.5 -21.5q69 0 120.5 21t80.5 59.5t29 88.5v359h-73v22h179v-22h-77v-359q0 -58 -33 -101.5t-91.5 -67.5t-134.5 -24zM357 643l-86 150h24l71 -127l71 127h23
l-84 -150h-19z" />
    <glyph glyph-name="uni01D4" unicode="&#x1d4;" horiz-adv-x="502" 
d="M215 -11q-49 0 -75.5 20t-36 47t-9.5 47v268h-76v22h106v-289q0 -35 22 -63.5t71 -28.5q57 0 99 21t87 56l-26 -24v306h-73v22h103v-372h73v-21h-98l-4 62l26 6q-42 -37 -89 -58t-100 -21zM229 473l-86 150h24l71 -127l71 127h23l-84 -150h-19z" />
    <glyph glyph-name="uni01E2" unicode="&#x1e2;" horiz-adv-x="979" 
d="M32 0v22h86l295 519h-68v22h486l27 -192h-25l-25 170h-331l37 -253h213l-13 84h21l34 -201h-21l-17 95h-214l36 -244h357l-25 169h25l29 -191h-496v22h79l-29 190h-234l-106 -190h72v-22h-193zM271 233h220l-45 308h-5zM473 653v20h184v-20h-184z" />
    <glyph glyph-name="uni01E3" unicode="&#x1e3;" horiz-adv-x="768" 
d="M177 -11q-63 0 -100 29.5t-37 80.5q0 41 22 65.5t57.5 35t77.5 10.5h127v53q0 61 -32.5 89.5t-82.5 28.5q-35 0 -70.5 -9.5t-66.5 -22.5l-9 22q40 17 77.5 24.5t65.5 7.5q51 0 80.5 -16.5t43.5 -42.5t17 -53q26 56 76 84.5t105 28.5q50 0 92.5 -22t68.5 -68.5t26 -118.5
v-6h-363q3 -52 27 -92t64 -62.5t89 -22.5q47 0 93 21t71 52l10 -22q-37 -37 -83 -55.5t-92 -18.5q-56 0 -105.5 27t-76.5 78q-22 -50 -67.5 -77.5t-104.5 -27.5zM178 11q54 0 98.5 27.5t59.5 83.5q-5 16 -8 32.5t-4 34.5h-126q-34 0 -64 -9t-48 -28.5t-18 -53.5
q0 -40 27.5 -63.5t82.5 -23.5zM352 210h336q0 59 -23 97t-59.5 56.5t-77.5 18.5q-46 0 -85.5 -20.5t-63.5 -59t-27 -92.5zM264 483v20h184v-20h-184z" />
    <glyph glyph-name="Gcaron" unicode="&#x1e6;" horiz-adv-x="681" 
d="M347 -11q-89 0 -154 36.5t-100.5 103t-35.5 156.5q0 89 35.5 153.5t100.5 99.5t154 35q75 0 137.5 -34.5t92.5 -98.5l-14 8v115h27v-151h-22q-28 66 -87.5 102t-133.5 36q-79 0 -137.5 -32.5t-90.5 -91.5t-32 -141q0 -83 32 -144.5t90.5 -94.5t137.5 -33q34 0 74.5 10.5
t77.5 36.5t60.5 72t23.5 116l7 -2h-131v22h153v-3q0 -87 -26.5 -141t-68 -83.5t-87 -40.5t-83.5 -11zM337 643l-86 150h24l71 -127l71 127h23l-84 -150h-19z" />
    <glyph glyph-name="gcaron" unicode="&#x1e7;" horiz-adv-x="497" 
d="M233 -184q-31 0 -66.5 6.5t-73.5 16.5l5 23q41 -12 74.5 -17.5t61.5 -5.5q78 0 116 39.5t38 106.5v77l19 12q-27 -34 -74.5 -55.5t-94.5 -21.5q-60 0 -106.5 26t-73.5 72t-27 106t25 105.5t69.5 70.5t101.5 25q50 0 101 -21.5t79 -54.5l-19 12v55h96v-22h-67v-379
q0 -60 -22.5 -99t-63.5 -58t-98 -19zM240 19q44 0 92 22t75 57l-19 -30v262l21 -25q-31 33 -82 54.5t-98 21.5q-50 0 -88 -23.5t-59.5 -64.5t-21.5 -96q0 -53 23 -93t64 -62.5t93 -22.5zM230 473l-86 150h24l71 -127l71 127h23l-84 -150h-19z" />
    <glyph glyph-name="uni01E8" unicode="&#x1e8;" horiz-adv-x="636" 
d="M60 0v22h85v519h-85v22h200v-22h-85v-252l286 252h-76v22h194v-22h-83l-285 -254l305 -265h79v-22h-191v22h75l-304 262v-262h85v-22h-200zM314 643l-86 150h24l71 -127l71 127h23l-84 -150h-19z" />
    <glyph glyph-name="uni01E9" unicode="&#x1e9;" horiz-adv-x="478" 
d="M30 0v22h73v529h-69v22h98v-366l213 164h-78v22h187v-22h-72l-215 -166l202 -183h88v-22h-102l-223 205v-183h72v-22h-174zM109 653l-86 150h24l71 -127l71 127h23l-84 -150h-19z" />
    <glyph glyph-name="uni01EA" unicode="&#x1ea;" horiz-adv-x="710" 
d="M354 -11q-75 0 -130.5 25.5t-91.5 67.5t-53.5 93.5t-17.5 103.5q0 53 18 105t54 94.5t91.5 68.5t130.5 26t130.5 -26t92 -68.5t54.5 -94.5t18 -105t-17.5 -104.5t-54 -93.5t-92.5 -67t-132 -25zM355 13q68 0 117.5 23t82.5 62t49 86t16 95t-16 95.5t-49 87.5t-82.5 64
t-117.5 24t-117.5 -24t-82 -64t-48.5 -87.5t-16 -95.5q0 -49 15.5 -96.5t48 -86t82 -61t118.5 -22.5zM365 -153q-26 0 -45.5 16t-19.5 44q0 23 14 46.5t41 46.5h22q-23 -23 -36 -44t-13 -42q0 -22 13 -33.5t32 -11.5q24 0 47 17v-20q-13 -9 -27 -14t-28 -5z" />
    <glyph glyph-name="uni01EB" unicode="&#x1eb;" horiz-adv-x="481" 
d="M239 -12q-61 0 -108 27t-74 74.5t-27 109.5q0 60 27 106.5t74 72.5t108 26q62 0 110 -26t75 -72t27 -107q0 -62 -27 -109.5t-75 -74.5t-110 -27zM239 11q54 0 95 24t64.5 66.5t23.5 97.5q0 54 -23.5 95.5t-64.5 64.5t-95 23q-53 0 -93.5 -23t-63.5 -64.5t-23 -95.5
q0 -55 23 -97.5t63.5 -66.5t93.5 -24zM261 -153q-26 0 -45.5 16t-19.5 44q0 23 14 46.5t41 46.5h22q-23 -23 -36 -44t-13 -42q0 -22 13 -33.5t32 -11.5q24 0 47 17v-20q-13 -9 -27 -14t-28 -5z" />
    <glyph glyph-name="uni01F0" unicode="&#x1f0;" horiz-adv-x="199" 
d="M10 -122v22h32q37 0 51.5 17.5t14.5 61.5v392h-84v22h115v-413q0 -25 -6 -44.5t-18 -32t-30.5 -19t-44.5 -6.5h-30zM78 473l-86 150h24l71 -127l71 127h23l-84 -150h-19z" />
    <glyph glyph-name="uni01F1" unicode="&#x1f1;" horiz-adv-x="1300" 
d="M60 0v22h85v519h-85v22h335q63 0 108.5 -26t75 -68.5t44 -92t14.5 -96.5q0 -48 -15 -97.5t-44.5 -90.5t-74.5 -66.5t-105 -25.5h-338zM175 22h218q54 0 94.5 22.5t67 60t40 83t13.5 91.5t-13.5 92t-40 84.5t-66 62t-92.5 23.5h-221v-519zM767 0v23l415 518h-376v-149h-25
v171h435v-22l-415 -519h403v156h25v-178h-462z" />
    <glyph glyph-name="uni01F2" unicode="&#x1f2;" horiz-adv-x="1080" 
d="M60 0v22h85v519h-85v22h335q63 0 108.5 -26t75 -68.5t44 -92t14.5 -96.5q0 -48 -15 -97.5t-44.5 -90.5t-74.5 -66.5t-105 -25.5h-338zM175 22h218q54 0 94.5 22.5t67 60t40 83t13.5 91.5t-13.5 92t-40 84.5t-66 62t-92.5 23.5h-221v-519zM688 0v25l281 347h-242v-95h-26
v116h296v-28l-275 -344h257v109h25v-130h-316z" />
    <glyph glyph-name="uni01F3" unicode="&#x1f3;" horiz-adv-x="959" 
d="M238 -11q-60 0 -107 26.5t-74 73.5t-27 108q0 62 26.5 108t73 72t106.5 26q49 0 95.5 -19t71.5 -56l-20 15v208h-66v22h95v-551h67v-22h-96v52l20 10q-28 -31 -71.5 -52t-93.5 -21zM240 12q49 0 91.5 21t72.5 54l-21 -27v276l21 -33q-32 39 -75.5 58.5t-90.5 19.5
q-52 0 -92.5 -23.5t-63.5 -66t-23 -98.5q0 -53 23.5 -94t64.5 -64t93 -23zM567 0v25l281 347h-242v-95h-26v116h296v-28l-275 -344h257v109h25v-130h-316z" />
    <glyph glyph-name="uni01F4" unicode="&#x1f4;" horiz-adv-x="681" 
d="M347 -11q-89 0 -154 36.5t-100.5 103t-35.5 156.5q0 89 35.5 153.5t100.5 99.5t154 35q75 0 137.5 -34.5t92.5 -98.5l-14 8v115h27v-151h-22q-28 66 -87.5 102t-133.5 36q-79 0 -137.5 -32.5t-90.5 -91.5t-32 -141q0 -83 32 -144.5t90.5 -94.5t137.5 -33q34 0 74.5 10.5
t77.5 36.5t60.5 72t23.5 116l7 -2h-131v22h153v-3q0 -87 -26.5 -141t-68 -83.5t-87 -40.5t-83.5 -11zM341 653l44 123h30l-59 -123h-15z" />
    <glyph glyph-name="uni01F5" unicode="&#x1f5;" horiz-adv-x="497" 
d="M233 -184q-31 0 -66.5 6.5t-73.5 16.5l5 23q41 -12 74.5 -17.5t61.5 -5.5q78 0 116 39.5t38 106.5v77l19 12q-27 -34 -74.5 -55.5t-94.5 -21.5q-60 0 -106.5 26t-73.5 72t-27 106t25 105.5t69.5 70.5t101.5 25q50 0 101 -21.5t79 -54.5l-19 12v55h96v-22h-67v-379
q0 -60 -22.5 -99t-63.5 -58t-98 -19zM240 19q44 0 92 22t75 57l-19 -30v262l21 -25q-31 33 -82 54.5t-98 21.5q-50 0 -88 -23.5t-59.5 -64.5t-21.5 -96q0 -53 23 -93t64 -62.5t93 -22.5zM234 483l44 123h30l-59 -123h-15z" />
    <glyph glyph-name="uni01F8" unicode="&#x1f8;" horiz-adv-x="705" 
d="M64 0v22h72v519h-72v22h100l413 -521v499h-75v22h165v-22h-63v-541h-30l-410 518v-496h73v-22h-173zM341 653l-58 123h30l44 -123h-16z" />
    <glyph glyph-name="uni01F9" unicode="&#x1f9;" horiz-adv-x="497" 
d="M18 0v22h86v349h-85v22h114v-50h-9q43 26 87.5 43t87.5 17q55 0 87.5 -32.5t32.5 -88.5v-260h75v-22h-189v22h85v268q0 42 -26 66t-70 24q-35 0 -80 -17t-90 -43l9 15v-313h84v-22h-199zM253 483l-58 123h30l44 -123h-16z" />
    <glyph glyph-name="Aringacute" unicode="&#x1fa;" horiz-adv-x="675" 
d="M42 0v22h76l193 519h-71v22h198v-22h-73l193 -519h75v-22h-179v22h72l-78 213h-221l-79 -213h73v-22h-179zM233 256h208l-103 282h-2zM339 633q-28 0 -44.5 15.5t-15.5 41.5t16 41t43 15t43.5 -15t15.5 -41t-15 -41.5t-43 -15.5zM339 648q18 0 29 11.5t11 30.5t-11 29.5
t-29 10.5q-19 0 -30 -10.5t-11 -29.5t11 -30.5t30 -11.5zM333 782l44 123h30l-59 -123h-15z" />
    <glyph glyph-name="aringacute" unicode="&#x1fb;" horiz-adv-x="442" 
d="M172 -11q-59 0 -95.5 32.5t-36.5 84.5q0 44 19 69t50.5 35.5t67.5 10.5q39 0 80 -6t81 -14l-14 -6v68q0 61 -32.5 89.5t-82.5 28.5q-35 0 -70.5 -9.5t-66.5 -22.5l-9 22q40 17 77.5 24.5t65.5 7.5q59 0 90.5 -20.5t44 -51t12.5 -60.5v-249h60v-22h-81l-8 46h12
q-48 -29 -88 -43t-76 -14zM173 11q37 0 74 14t92 45l-15 -15v135l15 -9q-43 9 -83 14.5t-78 5.5q-43 0 -76.5 -21.5t-33.5 -74.5q0 -37 27 -65.5t78 -28.5zM219 463q-28 0 -44.5 15.5t-15.5 41.5t16 41t43 15t43.5 -15t15.5 -41t-15 -41.5t-43 -15.5zM219 478q18 0 29 11.5
t11 30.5t-11 29.5t-29 10.5q-19 0 -30 -10.5t-11 -29.5t11 -30.5t30 -11.5zM213 612l44 123h30l-59 -123h-15z" />
    <glyph glyph-name="AEacute" unicode="&#x1fc;" horiz-adv-x="979" 
d="M32 0v22h86l295 519h-68v22h486l27 -192h-25l-25 170h-331l37 -253h213l-13 84h21l34 -201h-21l-17 95h-214l36 -244h357l-25 169h25l29 -191h-496v22h79l-29 190h-234l-106 -190h72v-22h-193zM271 233h220l-45 308h-5zM560 653l44 123h30l-59 -123h-15z" />
    <glyph glyph-name="aeacute" unicode="&#x1fd;" horiz-adv-x="768" 
d="M177 -11q-63 0 -100 29.5t-37 80.5q0 41 22 65.5t57.5 35t77.5 10.5h127v53q0 61 -32.5 89.5t-82.5 28.5q-35 0 -70.5 -9.5t-66.5 -22.5l-9 22q40 17 77.5 24.5t65.5 7.5q51 0 80.5 -16.5t43.5 -42.5t17 -53q26 56 76 84.5t105 28.5q50 0 92.5 -22t68.5 -68.5t26 -118.5
v-6h-363q3 -52 27 -92t64 -62.5t89 -22.5q47 0 93 21t71 52l10 -22q-37 -37 -83 -55.5t-92 -18.5q-56 0 -105.5 27t-76.5 78q-22 -50 -67.5 -77.5t-104.5 -27.5zM178 11q54 0 98.5 27.5t59.5 83.5q-5 16 -8 32.5t-4 34.5h-126q-34 0 -64 -9t-48 -28.5t-18 -53.5
q0 -40 27.5 -63.5t82.5 -23.5zM352 210h336q0 59 -23 97t-59.5 56.5t-77.5 18.5q-46 0 -85.5 -20.5t-63.5 -59t-27 -92.5zM351 483l44 123h30l-59 -123h-15z" />
    <glyph glyph-name="Oslashacute" unicode="&#x1fe;" horiz-adv-x="649" 
d="M98 -35l-17 12l476 616l15 -11zM323 -15q-75 0 -130.5 25.5t-91.5 67.5t-53.5 93.5t-17.5 103.5q0 53 18 105t54 94.5t91.5 68.5t130.5 26t130.5 -26t92 -68.5t54.5 -94.5t18 -105t-17.5 -104.5t-54 -93.5t-92.5 -67t-132 -25zM324 9q68 0 117.5 23t82.5 62t49 86t16 95
t-16 95.5t-49 87.5t-82.5 64t-117.5 24t-117.5 -24t-82 -64t-48.5 -87.5t-16 -95.5q0 -49 15.5 -96.5t48 -86t82 -61t118.5 -22.5zM320 653l44 123h30l-59 -123h-15z" />
    <glyph glyph-name="oslashacute" unicode="&#x1ff;" horiz-adv-x="497" 
d="M96 -70l-16 9l312 509l16 -10zM239 -12q-61 0 -108 27t-74 74.5t-27 109.5q0 60 27 106.5t74 72.5t108 26q62 0 110 -26t75 -72t27 -107q0 -62 -27 -109.5t-75 -74.5t-110 -27zM239 11q54 0 95 24t64.5 66.5t23.5 97.5q0 54 -23.5 95.5t-64.5 64.5t-95 23
q-53 0 -93.5 -23t-63.5 -64.5t-23 -95.5q0 -55 23 -97.5t63.5 -66.5t93.5 -24zM236 483l44 123h30l-59 -123h-15z" />
    <glyph glyph-name="uni0200" unicode="&#x200;" horiz-adv-x="675" 
d="M42 0v22h76l193 519h-71v22h198v-22h-73l193 -519h75v-22h-179v22h72l-78 213h-221l-79 -213h73v-22h-179zM233 256h208l-103 282h-2zM274 653l-67 145h30l52 -145h-15zM369 653l-67 145h29l53 -145h-15z" />
    <glyph glyph-name="uni0201" unicode="&#x201;" horiz-adv-x="442" 
d="M172 -11q-59 0 -95.5 32.5t-36.5 84.5q0 44 19 69t50.5 35.5t67.5 10.5q39 0 80 -6t81 -14l-14 -6v68q0 61 -32.5 89.5t-82.5 28.5q-35 0 -70.5 -9.5t-66.5 -22.5l-9 22q40 17 77.5 24.5t65.5 7.5q59 0 90.5 -20.5t44 -51t12.5 -60.5v-249h60v-22h-81l-8 46h12
q-48 -29 -88 -43t-76 -14zM173 11q37 0 74 14t92 45l-15 -15v135l15 -9q-43 9 -83 14.5t-78 5.5q-43 0 -76.5 -21.5t-33.5 -74.5q0 -37 27 -65.5t78 -28.5zM154 483l-67 145h30l52 -145h-15zM249 483l-67 145h29l53 -145h-15z" />
    <glyph glyph-name="uni0202" unicode="&#x202;" horiz-adv-x="675" 
d="M42 0v22h76l193 519h-71v22h198v-22h-73l193 -519h75v-22h-179v22h72l-78 213h-221l-79 -213h73v-22h-179zM233 256h208l-103 282h-2zM266 643q7 33 25 50t47 17q30 0 48 -17t24 -50h-20q-13 45 -52 45q-40 0 -52 -45h-20z" />
    <glyph glyph-name="uni0203" unicode="&#x203;" horiz-adv-x="442" 
d="M172 -11q-59 0 -95.5 32.5t-36.5 84.5q0 44 19 69t50.5 35.5t67.5 10.5q39 0 80 -6t81 -14l-14 -6v68q0 61 -32.5 89.5t-82.5 28.5q-35 0 -70.5 -9.5t-66.5 -22.5l-9 22q40 17 77.5 24.5t65.5 7.5q59 0 90.5 -20.5t44 -51t12.5 -60.5v-249h60v-22h-81l-8 46h12
q-48 -29 -88 -43t-76 -14zM173 11q37 0 74 14t92 45l-15 -15v135l15 -9q-43 9 -83 14.5t-78 5.5q-43 0 -76.5 -21.5t-33.5 -74.5q0 -37 27 -65.5t78 -28.5zM146 473q7 33 25 50t47 17q30 0 48 -17t24 -50h-20q-13 45 -52 45q-40 0 -52 -45h-20z" />
    <glyph glyph-name="uni0204" unicode="&#x204;" horiz-adv-x="597" 
d="M60 0v22h85v519h-85v22h459v-161h-26v139h-318v-243h205v83h23v-194h-22v89h-206v-254h330v141h26v-163h-471zM263 653l-67 145h30l52 -145h-15zM358 653l-67 145h29l53 -145h-15z" />
    <glyph glyph-name="uni0205" unicode="&#x205;" horiz-adv-x="474" 
d="M237 -11q-54 0 -101 24.5t-76.5 71.5t-29.5 112q0 69 29 115t75 69t96 23q51 0 94.5 -22t70 -68.5t26.5 -118.5v-6h-367v21h340q0 59 -23.5 97t-61 56.5t-79.5 18.5q-46 0 -85 -22t-62.5 -63t-23.5 -98q0 -55 23.5 -97t64.5 -66t91 -24q47 0 93 21t71 52l10 -22
q-37 -37 -83 -55.5t-92 -18.5zM174 483l-67 145h30l52 -145h-15zM269 483l-67 145h29l53 -145h-15z" />
    <glyph glyph-name="uni0206" unicode="&#x206;" horiz-adv-x="597" 
d="M60 0v22h85v519h-85v22h459v-161h-26v139h-318v-243h205v83h23v-194h-22v89h-206v-254h330v141h26v-163h-471zM255 643q7 33 25 50t47 17q30 0 48 -17t24 -50h-20q-13 45 -52 45q-40 0 -52 -45h-20z" />
    <glyph glyph-name="uni0207" unicode="&#x207;" horiz-adv-x="474" 
d="M237 -11q-54 0 -101 24.5t-76.5 71.5t-29.5 112q0 69 29 115t75 69t96 23q51 0 94.5 -22t70 -68.5t26.5 -118.5v-6h-367v21h340q0 59 -23.5 97t-61 56.5t-79.5 18.5q-46 0 -85 -22t-62.5 -63t-23.5 -98q0 -55 23.5 -97t64.5 -66t91 -24q47 0 93 21t71 52l10 -22
q-37 -37 -83 -55.5t-92 -18.5zM166 473q7 33 25 50t47 17q30 0 48 -17t24 -50h-20q-13 45 -52 45q-40 0 -52 -45h-20z" />
    <glyph glyph-name="uni0208" unicode="&#x208;" horiz-adv-x="311" 
d="M55 0v22h85v519h-85v22h200v-22h-85v-519h85v-22h-200zM93 653l-67 145h30l52 -145h-15zM188 653l-67 145h29l53 -145h-15z" />
    <glyph glyph-name="uni0209" unicode="&#x209;" horiz-adv-x="236" 
d="M18 0v22h86v349h-85v22h114v-371h84v-22h-199zM47 483l-67 145h30l52 -145h-15zM142 483l-67 145h29l53 -145h-15z" />
    <glyph glyph-name="uni020A" unicode="&#x20a;" horiz-adv-x="311" 
d="M55 0v22h85v519h-85v22h200v-22h-85v-519h85v-22h-200zM85 643q7 33 25 50t47 17q30 0 48 -17t24 -50h-20q-13 45 -52 45q-40 0 -52 -45h-20z" />
    <glyph glyph-name="uni020B" unicode="&#x20b;" horiz-adv-x="236" 
d="M18 0v22h86v349h-85v22h114v-371h84v-22h-199zM39 473q7 33 25 50t47 17q30 0 48 -17t24 -50h-20q-13 45 -52 45q-40 0 -52 -45h-20z" />
    <glyph glyph-name="uni020C" unicode="&#x20c;" horiz-adv-x="710" 
d="M354 -11q-75 0 -130.5 25.5t-91.5 67.5t-53.5 93.5t-17.5 103.5q0 53 18 105t54 94.5t91.5 68.5t130.5 26t130.5 -26t92 -68.5t54.5 -94.5t18 -105t-17.5 -104.5t-54 -93.5t-92.5 -67t-132 -25zM355 13q68 0 117.5 23t82.5 62t49 86t16 95t-16 95.5t-49 87.5t-82.5 64
t-117.5 24t-117.5 -24t-82 -64t-48.5 -87.5t-16 -95.5q0 -49 15.5 -96.5t48 -86t82 -61t118.5 -22.5zM290 653l-67 145h30l52 -145h-15zM385 653l-67 145h29l53 -145h-15z" />
    <glyph glyph-name="uni020D" unicode="&#x20d;" horiz-adv-x="481" 
d="M239 -12q-61 0 -108 27t-74 74.5t-27 109.5q0 60 27 106.5t74 72.5t108 26q62 0 110 -26t75 -72t27 -107q0 -62 -27 -109.5t-75 -74.5t-110 -27zM239 11q54 0 95 24t64.5 66.5t23.5 97.5q0 54 -23.5 95.5t-64.5 64.5t-95 23q-53 0 -93.5 -23t-63.5 -64.5t-23 -95.5
q0 -55 23 -97.5t63.5 -66.5t93.5 -24zM174 483l-67 145h30l52 -145h-15zM269 483l-67 145h29l53 -145h-15z" />
    <glyph glyph-name="uni020E" unicode="&#x20e;" horiz-adv-x="710" 
d="M354 -11q-75 0 -130.5 25.5t-91.5 67.5t-53.5 93.5t-17.5 103.5q0 53 18 105t54 94.5t91.5 68.5t130.5 26t130.5 -26t92 -68.5t54.5 -94.5t18 -105t-17.5 -104.5t-54 -93.5t-92.5 -67t-132 -25zM355 13q68 0 117.5 23t82.5 62t49 86t16 95t-16 95.5t-49 87.5t-82.5 64
t-117.5 24t-117.5 -24t-82 -64t-48.5 -87.5t-16 -95.5q0 -49 15.5 -96.5t48 -86t82 -61t118.5 -22.5zM282 643q7 33 25 50t47 17q30 0 48 -17t24 -50h-20q-13 45 -52 45q-40 0 -52 -45h-20z" />
    <glyph glyph-name="uni020F" unicode="&#x20f;" horiz-adv-x="481" 
d="M239 -12q-61 0 -108 27t-74 74.5t-27 109.5q0 60 27 106.5t74 72.5t108 26q62 0 110 -26t75 -72t27 -107q0 -62 -27 -109.5t-75 -74.5t-110 -27zM239 11q54 0 95 24t64.5 66.5t23.5 97.5q0 54 -23.5 95.5t-64.5 64.5t-95 23q-53 0 -93.5 -23t-63.5 -64.5t-23 -95.5
q0 -55 23 -97.5t63.5 -66.5t93.5 -24zM166 473q7 33 25 50t47 17q30 0 48 -17t24 -50h-20q-13 45 -52 45q-40 0 -52 -45h-20z" />
    <glyph glyph-name="uni0210" unicode="&#x210;" horiz-adv-x="631" 
d="M60 0v22h85v519h-85v22h306q58 0 93 -22t51 -56.5t16 -71.5q0 -36 -15.5 -70t-53.5 -56t-105 -23l151 -242h83v-22h-103l-163 263h-111v22h131q65 0 98.5 20t46 50t12.5 58q0 31 -12 60t-40 48.5t-77 19.5h-193v-519h85v-22h-200zM253 653l-67 145h30l52 -145h-15z
M348 653l-67 145h29l53 -145h-15z" />
    <glyph glyph-name="uni0211" unicode="&#x211;" horiz-adv-x="364" 
d="M55 0v22h87v349h-85v22h114v-123l-10 -1q7 50 24.5 79t40 41.5t46.5 12.5q20 0 38 -4.5t34 -14.5l-6 -23q-16 9 -30.5 14t-34.5 5q-40 0 -71 -40.5t-31 -112.5v-204h83v-22h-199zM168 483l-67 145h30l52 -145h-15zM263 483l-67 145h29l53 -145h-15z" />
    <glyph glyph-name="uni0212" unicode="&#x212;" horiz-adv-x="631" 
d="M60 0v22h85v519h-85v22h306q58 0 93 -22t51 -56.5t16 -71.5q0 -36 -15.5 -70t-53.5 -56t-105 -23l151 -242h83v-22h-103l-163 263h-111v22h131q65 0 98.5 20t46 50t12.5 58q0 31 -12 60t-40 48.5t-77 19.5h-193v-519h85v-22h-200zM245 643q7 33 25 50t47 17q30 0 48 -17
t24 -50h-20q-13 45 -52 45q-40 0 -52 -45h-20z" />
    <glyph glyph-name="uni0213" unicode="&#x213;" horiz-adv-x="364" 
d="M55 0v22h87v349h-85v22h114v-123l-10 -1q7 50 24.5 79t40 41.5t46.5 12.5q20 0 38 -4.5t34 -14.5l-6 -23q-16 9 -30.5 14t-34.5 5q-40 0 -71 -40.5t-31 -112.5v-204h83v-22h-199zM160 473q7 33 25 50t47 17q30 0 48 -17t24 -50h-20q-13 45 -52 45q-40 0 -52 -45h-20z" />
    <glyph glyph-name="uni0214" unicode="&#x214;" horiz-adv-x="729" 
d="M360 -11q-73 0 -128 24.5t-85.5 68t-30.5 101.5v358h-74v22h179v-22h-75v-358q0 -50 27 -88.5t75.5 -60t111.5 -21.5q69 0 120.5 21t80.5 59.5t29 88.5v359h-73v22h179v-22h-77v-359q0 -58 -33 -101.5t-91.5 -67.5t-134.5 -24zM302 653l-67 145h30l52 -145h-15zM397 653
l-67 145h29l53 -145h-15z" />
    <glyph glyph-name="uni0215" unicode="&#x215;" horiz-adv-x="502" 
d="M215 -11q-49 0 -75.5 20t-36 47t-9.5 47v268h-76v22h106v-289q0 -35 22 -63.5t71 -28.5q57 0 99 21t87 56l-26 -24v306h-73v22h103v-372h73v-21h-98l-4 62l26 6q-42 -37 -89 -58t-100 -21zM174 483l-67 145h30l52 -145h-15zM269 483l-67 145h29l53 -145h-15z" />
    <glyph glyph-name="uni0216" unicode="&#x216;" horiz-adv-x="729" 
d="M360 -11q-73 0 -128 24.5t-85.5 68t-30.5 101.5v358h-74v22h179v-22h-75v-358q0 -50 27 -88.5t75.5 -60t111.5 -21.5q69 0 120.5 21t80.5 59.5t29 88.5v359h-73v22h179v-22h-77v-359q0 -58 -33 -101.5t-91.5 -67.5t-134.5 -24zM294 643q7 33 25 50t47 17q30 0 48 -17
t24 -50h-20q-13 45 -52 45q-40 0 -52 -45h-20z" />
    <glyph glyph-name="uni0217" unicode="&#x217;" horiz-adv-x="502" 
d="M215 -11q-49 0 -75.5 20t-36 47t-9.5 47v268h-76v22h106v-289q0 -35 22 -63.5t71 -28.5q57 0 99 21t87 56l-26 -24v306h-73v22h103v-372h73v-21h-98l-4 62l26 6q-42 -37 -89 -58t-100 -21zM166 473q7 33 25 50t47 17q30 0 48 -17t24 -50h-20q-13 45 -52 45q-40 0 -52 -45
h-20z" />
    <glyph glyph-name="uni0218" unicode="&#x218;" horiz-adv-x="553" 
d="M311 -11q-54 0 -96 13.5t-69 38t-37 57.5h5v-98h-28v189h28q0 -53 18 -93t61 -61.5t118 -21.5q73 0 112 34.5t39 92.5q0 39 -12 64.5t-39.5 40.5t-76.5 21l-81 11q-82 11 -125 45t-43 106q0 44 20.5 76.5t60 50.5t96.5 18q73 0 121.5 -29t62.5 -76h-7v95h28v-151h-28
q0 40 -20 71t-59.5 49t-96.5 18q-72 0 -111 -33.5t-39 -87.5q0 -66 39.5 -92t104.5 -35l82 -11q53 -7 86.5 -25.5t49 -49t15.5 -74.5q0 -45 -21 -79.5t-60.5 -54t-97.5 -19.5zM285 -187v12q26 2 30.5 23.5t4.5 52.5h-28v47h48v-53q0 -32 -9.5 -57.5t-45.5 -24.5z" />
    <glyph glyph-name="uni0219" unicode="&#x219;" horiz-adv-x="446" 
d="M246 -11q-38 0 -72.5 9.5t-57.5 25.5t-30 33l10 -12v-45h-26v117h24l3 -66l-17 37q23 -38 66.5 -57.5t98.5 -19.5q52 0 85 22.5t33 60.5q0 45 -28.5 62t-90.5 30l-65 13q-47 11 -76.5 32t-29.5 69q0 51 41 77t101 26q28 0 56.5 -8t52 -22.5t36.5 -35.5l-17 12v44h26v-128
h-24l-5 78l10 -26q-7 16 -27.5 30.5t-48 24t-57.5 9.5q-46 0 -80.5 -20t-34.5 -60q0 -38 27 -54t67 -24l65 -14q48 -10 76 -23.5t40.5 -34.5t12.5 -55q0 -37 -21 -60.5t-54 -35t-69 -11.5zM202 -187v12q26 2 30.5 23.5t4.5 52.5h-28v47h48v-53q0 -32 -9.5 -57.5t-45.5 -24.5
z" />
    <glyph glyph-name="uni021A" unicode="&#x21a;" horiz-adv-x="560" 
d="M177 0v22h85v519h-211v-164h-26v186h510v-186h-27v164h-216v-519h84v-22h-199zM249 -187v12q26 2 30.5 23.5t4.5 52.5h-28v47h48v-53q0 -32 -9.5 -57.5t-45.5 -24.5z" />
    <glyph glyph-name="uni021B" unicode="&#x21b;" horiz-adv-x="282" 
d="M216 0q-53 0 -87.5 22.5t-34.5 84.5v264h-74v22h74v136l29 9v-145h115v-22h-115v-262q0 -49 22.5 -68t72.5 -19h39v-22h-41zM164 -183v12q26 2 30.5 23.5t4.5 52.5h-28v47h48v-53q0 -32 -9.5 -57.5t-45.5 -24.5z" />
    <glyph glyph-name="uni021E" unicode="&#x21e;" horiz-adv-x="730" 
d="M60 0v22h85v519h-85v22h200v-22h-85v-245h380v245h-85v22h199v-22h-85v-519h85v-22h-199v22h85v251h-380v-251h85v-22h-200zM355 643l-86 150h24l71 -127l71 127h23l-84 -150h-19z" />
    <glyph glyph-name="uni021F" unicode="&#x21f;" horiz-adv-x="482" 
d="M10 0v22h72v529h-69v22h98v-229h-7q48 27 88.5 43t83.5 16q55 0 87.5 -32.5t32.5 -88.5v-260h76v-22h-189v22h85v268q0 42 -26 66t-69 24q-37 0 -80.5 -16.5t-88.5 -40.5l7 8v-309h72v-22h-173zM88 654l-86 150h24l71 -127l71 127h23l-84 -150h-19z" />
    <glyph glyph-name="uni0226" unicode="&#x226;" horiz-adv-x="675" 
d="M42 0v22h76l193 519h-71v22h198v-22h-73l193 -519h75v-22h-179v22h72l-78 213h-221l-79 -213h73v-22h-179zM233 256h208l-103 282h-2zM338 653q-16 0 -23 9t-7 18q0 11 7 19.5t23 8.5t23 -8.5t7 -19.5q0 -9 -7.5 -18t-22.5 -9z" />
    <glyph glyph-name="uni0227" unicode="&#x227;" horiz-adv-x="442" 
d="M172 -11q-59 0 -95.5 32.5t-36.5 84.5q0 44 19 69t50.5 35.5t67.5 10.5q39 0 80 -6t81 -14l-14 -6v68q0 61 -32.5 89.5t-82.5 28.5q-35 0 -70.5 -9.5t-66.5 -22.5l-9 22q40 17 77.5 24.5t65.5 7.5q59 0 90.5 -20.5t44 -51t12.5 -60.5v-249h60v-22h-81l-8 46h12
q-48 -29 -88 -43t-76 -14zM173 11q37 0 74 14t92 45l-15 -15v135l15 -9q-43 9 -83 14.5t-78 5.5q-43 0 -76.5 -21.5t-33.5 -74.5q0 -37 27 -65.5t78 -28.5zM218 483q-16 0 -23 9t-7 18q0 11 7 19.5t23 8.5t23 -8.5t7 -19.5q0 -9 -7.5 -18t-22.5 -9z" />
    <glyph glyph-name="uni0228" unicode="&#x228;" horiz-adv-x="597" 
d="M60 0v22h85v519h-85v22h459v-161h-26v139h-318v-243h205v83h23v-194h-22v89h-206v-254h330v141h26v-163h-471zM333 -145q-26 0 -50 13v15q11 -4 21.5 -5.5t18.5 -1.5q18 0 28 5t10 17q0 13 -12.5 19.5t-47.5 7.5l29 75h16l-18 -56q32 0 47.5 -12.5t15.5 -32.5
q0 -23 -17.5 -33.5t-40.5 -10.5z" />
    <glyph glyph-name="uni0229" unicode="&#x229;" horiz-adv-x="474" 
d="M237 -11q-54 0 -101 24.5t-76.5 71.5t-29.5 112q0 69 29 115t75 69t96 23q51 0 94.5 -22t70 -68.5t26.5 -118.5v-6h-367v21h340q0 59 -23.5 97t-61 56.5t-79.5 18.5q-46 0 -85 -22t-62.5 -63t-23.5 -98q0 -55 23.5 -97t64.5 -66t91 -24q47 0 93 21t71 52l10 -22
q-37 -37 -83 -55.5t-92 -18.5zM233 -145q-26 0 -50 13v15q11 -4 21.5 -5.5t18.5 -1.5q18 0 28 5t10 17q0 13 -12.5 19.5t-47.5 7.5l29 75h16l-18 -56q32 0 47.5 -12.5t15.5 -32.5q0 -23 -17.5 -33.5t-40.5 -10.5z" />
    <glyph glyph-name="uni022A" unicode="&#x22a;" horiz-adv-x="710" 
d="M354 -11q-75 0 -130.5 25.5t-91.5 67.5t-53.5 93.5t-17.5 103.5q0 53 18 105t54 94.5t91.5 68.5t130.5 26t130.5 -26t92 -68.5t54.5 -94.5t18 -105t-17.5 -104.5t-54 -93.5t-92.5 -67t-132 -25zM355 13q68 0 117.5 23t82.5 62t49 86t16 95t-16 95.5t-49 87.5t-82.5 64
t-117.5 24t-117.5 -24t-82 -64t-48.5 -87.5t-16 -95.5q0 -49 15.5 -96.5t48 -86t82 -61t118.5 -22.5zM276 654q-11 0 -17 6t-6 16t6 15.5t16 5.5q11 0 16.5 -5.5t5.5 -15.5t-5.5 -16t-15.5 -6zM433 654q-10 0 -16 5.5t-6 15.5q0 11 6 16.5t16 5.5t16 -5.5t6 -16.5
q0 -10 -6 -15.5t-16 -5.5zM262 797v20h184v-20h-184z" />
    <glyph glyph-name="uni022B" unicode="&#x22b;" horiz-adv-x="481" 
d="M239 -12q-61 0 -108 27t-74 74.5t-27 109.5q0 60 27 106.5t74 72.5t108 26q62 0 110 -26t75 -72t27 -107q0 -62 -27 -109.5t-75 -74.5t-110 -27zM239 11q54 0 95 24t64.5 66.5t23.5 97.5q0 54 -23.5 95.5t-64.5 64.5t-95 23q-53 0 -93.5 -23t-63.5 -64.5t-23 -95.5
q0 -55 23 -97.5t63.5 -66.5t93.5 -24zM160 484q-11 0 -17 6t-6 16t6 15.5t16 5.5q11 0 16.5 -5.5t5.5 -15.5t-5.5 -16t-15.5 -6zM317 484q-10 0 -16 5.5t-6 15.5q0 11 6 16.5t16 5.5t16 -5.5t6 -16.5q0 -10 -6 -15.5t-16 -5.5zM146 627v20h184v-20h-184z" />
    <glyph glyph-name="uni022C" unicode="&#x22c;" horiz-adv-x="710" 
d="M354 -11q-75 0 -130.5 25.5t-91.5 67.5t-53.5 93.5t-17.5 103.5q0 53 18 105t54 94.5t91.5 68.5t130.5 26t130.5 -26t92 -68.5t54.5 -94.5t18 -105t-17.5 -104.5t-54 -93.5t-92.5 -67t-132 -25zM355 13q68 0 117.5 23t82.5 62t49 86t16 95t-16 95.5t-49 87.5t-82.5 64
t-117.5 24t-117.5 -24t-82 -64t-48.5 -87.5t-16 -95.5q0 -49 15.5 -96.5t48 -86t82 -61t118.5 -22.5zM407 653q-18 0 -36 10.5t-35 20.5t-35 10q-27 0 -27 -40h-20q0 26 12.5 44t34.5 18q19 0 36.5 -10t35 -20.5t34.5 -10.5q12 0 19.5 9.5t7.5 29.5h20q0 -30 -10.5 -45.5
t-36.5 -15.5zM262 792v20h184v-20h-184z" />
    <glyph glyph-name="uni022D" unicode="&#x22d;" horiz-adv-x="481" 
d="M239 -12q-61 0 -108 27t-74 74.5t-27 109.5q0 60 27 106.5t74 72.5t108 26q62 0 110 -26t75 -72t27 -107q0 -62 -27 -109.5t-75 -74.5t-110 -27zM239 11q54 0 95 24t64.5 66.5t23.5 97.5q0 54 -23.5 95.5t-64.5 64.5t-95 23q-53 0 -93.5 -23t-63.5 -64.5t-23 -95.5
q0 -55 23 -97.5t63.5 -66.5t93.5 -24zM291 483q-18 0 -36 10.5t-35 20.5t-35 10q-27 0 -27 -40h-20q0 26 12.5 44t34.5 18q19 0 36.5 -10t35 -20.5t34.5 -10.5q12 0 19.5 9.5t7.5 29.5h20q0 -30 -10.5 -45.5t-36.5 -15.5zM146 622v20h184v-20h-184z" />
    <glyph glyph-name="uni022E" unicode="&#x22e;" horiz-adv-x="710" 
d="M354 -11q-75 0 -130.5 25.5t-91.5 67.5t-53.5 93.5t-17.5 103.5q0 53 18 105t54 94.5t91.5 68.5t130.5 26t130.5 -26t92 -68.5t54.5 -94.5t18 -105t-17.5 -104.5t-54 -93.5t-92.5 -67t-132 -25zM355 13q68 0 117.5 23t82.5 62t49 86t16 95t-16 95.5t-49 87.5t-82.5 64
t-117.5 24t-117.5 -24t-82 -64t-48.5 -87.5t-16 -95.5q0 -49 15.5 -96.5t48 -86t82 -61t118.5 -22.5zM354 653q-16 0 -23 9t-7 18q0 11 7 19.5t23 8.5t23 -8.5t7 -19.5q0 -9 -7.5 -18t-22.5 -9z" />
    <glyph glyph-name="uni022F" unicode="&#x22f;" horiz-adv-x="481" 
d="M239 -12q-61 0 -108 27t-74 74.5t-27 109.5q0 60 27 106.5t74 72.5t108 26q62 0 110 -26t75 -72t27 -107q0 -62 -27 -109.5t-75 -74.5t-110 -27zM239 11q54 0 95 24t64.5 66.5t23.5 97.5q0 54 -23.5 95.5t-64.5 64.5t-95 23q-53 0 -93.5 -23t-63.5 -64.5t-23 -95.5
q0 -55 23 -97.5t63.5 -66.5t93.5 -24zM238 483q-16 0 -23 9t-7 18q0 11 7 19.5t23 8.5t23 -8.5t7 -19.5q0 -9 -7.5 -18t-22.5 -9z" />
    <glyph glyph-name="uni0230" unicode="&#x230;" horiz-adv-x="710" 
d="M354 -11q-75 0 -130.5 25.5t-91.5 67.5t-53.5 93.5t-17.5 103.5q0 53 18 105t54 94.5t91.5 68.5t130.5 26t130.5 -26t92 -68.5t54.5 -94.5t18 -105t-17.5 -104.5t-54 -93.5t-92.5 -67t-132 -25zM355 13q68 0 117.5 23t82.5 62t49 86t16 95t-16 95.5t-49 87.5t-82.5 64
t-117.5 24t-117.5 -24t-82 -64t-48.5 -87.5t-16 -95.5q0 -49 15.5 -96.5t48 -86t82 -61t118.5 -22.5zM354 653q-16 0 -23 9t-7 18q0 11 7 19.5t23 8.5t23 -8.5t7 -19.5q0 -9 -7.5 -18t-22.5 -9zM262 798v20h184v-20h-184z" />
    <glyph glyph-name="uni0231" unicode="&#x231;" horiz-adv-x="481" 
d="M239 -12q-61 0 -108 27t-74 74.5t-27 109.5q0 60 27 106.5t74 72.5t108 26q62 0 110 -26t75 -72t27 -107q0 -62 -27 -109.5t-75 -74.5t-110 -27zM239 11q54 0 95 24t64.5 66.5t23.5 97.5q0 54 -23.5 95.5t-64.5 64.5t-95 23q-53 0 -93.5 -23t-63.5 -64.5t-23 -95.5
q0 -55 23 -97.5t63.5 -66.5t93.5 -24zM238 483q-16 0 -23 9t-7 18q0 11 7 19.5t23 8.5t23 -8.5t7 -19.5q0 -9 -7.5 -18t-22.5 -9zM146 628v20h184v-20h-184z" />
    <glyph glyph-name="uni0232" unicode="&#x232;" horiz-adv-x="615" 
d="M210 0v22h82v205l-209 314h-76v22h183v-22h-74l193 -289l191 289h-78v22h184v-22h-75l-209 -314v-205h83v-22h-195zM219 653v20h184v-20h-184z" />
    <glyph glyph-name="uni0233" unicode="&#x233;" horiz-adv-x="523" 
d="M115 -122v26h39q30 0 45.5 4t25.5 16t20 35l31 71h-18l-154 341h-81v22h182v-22h-71l147 -330l139 330h-83v22h177v-22h-64l-179 -418q-13 -30 -26.5 -46t-34 -22.5t-55.5 -6.5h-40zM179 483v20h184v-20h-184z" />
    <glyph glyph-name="uni0237" unicode="&#x237;" horiz-adv-x="199" 
d="M10 -122v22h32q37 0 51.5 17.5t14.5 61.5v392h-84v22h115v-413q0 -25 -6 -44.5t-18 -32t-30.5 -19t-44.5 -6.5h-30z" />
    <glyph glyph-name="uni0259" unicode="&#x259;" horiz-adv-x="474" 
d="M244 -11q-51 0 -94.5 22.5t-70 68.5t-26.5 118v6h367v-21h-340q0 -59 23.5 -97t61.5 -56.5t79 -18.5q47 0 85.5 22t62 63.5t23.5 97.5q0 55 -23.5 97t-64 66t-91.5 24q-46 0 -92 -21t-72 -52l-10 22q38 37 83.5 55.5t91.5 18.5q54 0 101 -24.5t76.5 -71t29.5 -112.5
q0 -68 -29 -114.5t-74.5 -69.5t-96.5 -23z" />
    <glyph glyph-name="uni02BB" unicode="&#x2bb;" horiz-adv-x="249" 
d="M149 593v-20q-17 0 -22.5 -11.5t-5.5 -38.5h28v-54h-49v45q0 37 9 58t40 21z" />
    <glyph glyph-name="uni02BC" unicode="&#x2bc;" horiz-adv-x="253" 
d="M100 449v12q20 3 26.5 15.5t6.5 52.5h-29v53h49l-1 -56q0 -31 -9.5 -54t-42.5 -23z" />
    <glyph glyph-name="uni02BE" unicode="&#x2be;" horiz-adv-x="260" 
d="M100 463v15q20 0 30.5 11.5t10.5 30.5t-10.5 29.5t-30.5 10.5v16q29 0 44 -15t16 -41t-15 -41.5t-45 -15.5z" />
    <glyph glyph-name="uni02BF" unicode="&#x2bf;" horiz-adv-x="260" 
d="M160 463q-28 0 -44.5 15.5t-15.5 41.5t16.5 41t43.5 15v-16q-19 0 -30 -10.5t-11 -29.5t11 -30.5t30 -11.5v-15z" />
    <glyph glyph-name="circumflex" unicode="&#x2c6;" horiz-adv-x="392" 
d="M100 453l86 151h21l85 -151h-24l-72 130l-72 -130h-24z" />
    <glyph glyph-name="caron" unicode="&#x2c7;" horiz-adv-x="389" 
d="M186 473l-86 150h24l71 -127l71 127h23l-84 -150h-19z" />
    <glyph glyph-name="uni02C8" unicode="&#x2c8;" horiz-adv-x="125" 
d="M50 393v200h25v-200h-25z" />
    <glyph glyph-name="uni02C9" unicode="&#x2c9;" horiz-adv-x="384" 
d="M100 483v20h184v-20h-184z" />
    <glyph glyph-name="uni02CA" unicode="&#x2ca;" horiz-adv-x="274" 
d="M100 483l44 123h30l-59 -123h-15z" />
    <glyph glyph-name="uni02CB" unicode="&#x2cb;" horiz-adv-x="274" 
d="M158 483l-58 123h30l44 -123h-16z" />
    <glyph glyph-name="uni02CC" unicode="&#x2cc;" horiz-adv-x="125" 
d="M50 -52v200h25v-200h-25z" />
    <glyph glyph-name="breve" unicode="&#x2d8;" horiz-adv-x="343" 
d="M172 483q-29 0 -47.5 17t-24.5 50h19q12 -46 53 -46q20 0 32.5 11.5t19.5 34.5h19q-6 -33 -24 -50t-47 -17z" />
    <glyph glyph-name="dotaccent" unicode="&#x2d9;" horiz-adv-x="260" 
d="M130 483q-16 0 -23 9t-7 18q0 11 7 19.5t23 8.5t23 -8.5t7 -19.5q0 -9 -7.5 -18t-22.5 -9z" />
    <glyph glyph-name="ring" unicode="&#x2da;" horiz-adv-x="318" 
d="M160 463q-28 0 -44.5 15.5t-15.5 41.5t16 41t43 15t43.5 -15t15.5 -41t-15 -41.5t-43 -15.5zM160 478q18 0 29 11.5t11 30.5t-11 29.5t-29 10.5q-19 0 -30 -10.5t-11 -29.5t11 -30.5t30 -11.5z" />
    <glyph glyph-name="ogonek" unicode="&#x2db;" horiz-adv-x="320" 
d="M165 -153q-26 0 -45.5 16t-19.5 44q0 23 14 46.5t41 46.5h22q-23 -23 -36 -44t-13 -42q0 -22 13 -33.5t32 -11.5q24 0 47 17v-20q-13 -9 -27 -14t-28 -5z" />
    <glyph glyph-name="tilde" unicode="&#x2dc;" horiz-adv-x="400" 
d="M253 483q-18 0 -36 10.5t-35 20.5t-35 10q-27 0 -27 -40h-20q0 26 12.5 44t34.5 18q19 0 36.5 -10t35 -20.5t34.5 -10.5q12 0 19.5 9.5t7.5 29.5h20q0 -30 -10.5 -45.5t-36.5 -15.5z" />
    <glyph glyph-name="hungarumlaut" unicode="&#x2dd;" horiz-adv-x="378" 
d="M100 483l54 145h30l-65 -145h-19zM195 483l53 145h30l-64 -145h-19z" />
    <glyph glyph-name="gravecomb" unicode="&#x300;" 
d="M-11 483l-58 123h30l44 -123h-16z" />
    <glyph glyph-name="acutecomb" unicode="&#x301;" 
d="M-5 483l44 123h30l-59 -123h-15z" />
    <glyph glyph-name="uni0302" unicode="&#x302;" 
d="M-96 453l86 151h21l85 -151h-24l-72 130l-72 -130h-24z" />
    <glyph glyph-name="tildecomb" unicode="&#x303;" 
d="M53 483q-18 0 -36 10.5t-35 20.5t-35 10q-27 0 -27 -40h-20q0 26 12.5 44t34.5 18q19 0 36.5 -10t35 -20.5t34.5 -10.5q12 0 19.5 9.5t7.5 29.5h20q0 -30 -10.5 -45.5t-36.5 -15.5z" />
    <glyph glyph-name="uni0304" unicode="&#x304;" 
d="M-92 483v20h184v-20h-184z" />
    <glyph glyph-name="uni0306" unicode="&#x306;" 
d="M0 483q-29 0 -47.5 17t-24.5 50h19q12 -46 53 -46q20 0 32.5 11.5t19.5 34.5h19q-6 -33 -24 -50t-47 -17z" />
    <glyph glyph-name="uni0307" unicode="&#x307;" 
d="M0 483q-16 0 -23 9t-7 18q0 11 7 19.5t23 8.5t23 -8.5t7 -19.5q0 -9 -7.5 -18t-22.5 -9z" />
    <glyph glyph-name="uni0308" unicode="&#x308;" 
d="M-78 484q-11 0 -17 6t-6 16t6 15.5t16 5.5q11 0 16.5 -5.5t5.5 -15.5t-5.5 -16t-15.5 -6zM79 484q-10 0 -16 5.5t-6 15.5q0 11 6 16.5t16 5.5t16 -5.5t6 -16.5q0 -10 -6 -15.5t-16 -5.5z" />
    <glyph glyph-name="hookabovecomb" unicode="&#x309;" 
d="M0 438l-9 21q13 5 21 13.5t8 21.5q0 14 -8.5 21.5t-25.5 7.5q-11 0 -21.5 -3.5t-21.5 -9.5l-10 22q12 6 25.5 10t29.5 4q27 0 42 -14t15 -36t-11.5 -36t-33.5 -22z" />
    <glyph glyph-name="uni030A" unicode="&#x30a;" 
d="M1 463q-28 0 -44.5 15.5t-15.5 41.5t16 41t43 15t43.5 -15t15.5 -41t-15 -41.5t-43 -15.5zM1 478q18 0 29 11.5t11 30.5t-11 29.5t-29 10.5q-19 0 -30 -10.5t-11 -29.5t11 -30.5t30 -11.5z" />
    <glyph glyph-name="uni030B" unicode="&#x30b;" 
d="M-47 483l54 145h30l-65 -145h-19zM48 483l53 145h30l-64 -145h-19z" />
    <glyph glyph-name="uni030C" unicode="&#x30c;" 
d="M-9 473l-86 150h24l71 -127l71 127h23l-84 -150h-19z" />
    <glyph glyph-name="uni030F" unicode="&#x30f;" 
d="M-64 483l-67 145h30l52 -145h-15zM31 483l-67 145h29l53 -145h-15z" />
    <glyph glyph-name="uni0311" unicode="&#x311;" 
d="M-72 473q7 33 25 50t47 17q30 0 48 -17t24 -50h-20q-13 45 -52 45q-40 0 -52 -45h-20z" />
    <glyph glyph-name="uni0312" unicode="&#x312;" 
d="M27 607v-12q-25 -2 -30 -23.5t-5 -52.5h28v-47h-48v53q0 32 9.5 57.5t45.5 24.5z" />
    <glyph glyph-name="uni031B" unicode="&#x31b;" 
d="M-6 376v17h6q28 0 48 15t23 50h30q-5 -38 -30 -60t-66 -22h-11z" />
    <glyph glyph-name="dotbelowcomb" unicode="&#x323;" 
d="M0 -107q-16 0 -23 9t-7 18q0 11 7 19.5t23 8.5t23 -8.5t7 -19.5q0 -9 -7.5 -18t-22.5 -9z" />
    <glyph glyph-name="uni0324" unicode="&#x324;" 
d="M-78 -95q-11 0 -17 6t-6 16t6 15.5t16 5.5q11 0 16.5 -5.5t5.5 -15.5t-5.5 -16t-15.5 -6zM79 -95q-10 0 -16 5.5t-6 15.5q0 11 6 16.5t16 5.5t16 -5.5t6 -16.5q0 -10 -6 -15.5t-16 -5.5z" />
    <glyph glyph-name="uni0326" unicode="&#x326;" 
d="M-28 -187v12q26 2 30.5 23.5t4.5 52.5h-28v47h48v-53q0 -32 -9.5 -57.5t-45.5 -24.5z" />
    <glyph glyph-name="uni0327" unicode="&#x327;" 
d="M-5 -145q-26 0 -50 13v15q11 -4 21.5 -5.5t18.5 -1.5q18 0 28 5t10 17q0 13 -12.5 19.5t-47.5 7.5l29 75h16l-18 -56q32 0 47.5 -12.5t15.5 -32.5q0 -23 -17.5 -33.5t-40.5 -10.5z" />
    <glyph glyph-name="uni0328" unicode="&#x328;" 
d="M-12 -153q-26 0 -45.5 16t-19.5 44q0 23 14 46.5t41 46.5h22q-23 -23 -36 -44t-13 -42q0 -22 13 -33.5t32 -11.5q24 0 47 17v-20q-13 -9 -27 -14t-28 -5z" />
    <glyph glyph-name="uni032E" unicode="&#x32e;" 
d="M0 -119q-29 0 -47.5 17t-24.5 50h19q12 -46 53 -46q20 0 32.5 11.5t19.5 34.5h19q-6 -33 -24 -50t-47 -17z" />
    <glyph glyph-name="uni0331" unicode="&#x331;" 
d="M-92 -72v20h184v-20h-184z" />
    <glyph glyph-name="uni0335" unicode="&#x335;" 
d="M-182 239v23h363v-23h-363z" />
    <glyph glyph-name="uni0394" unicode="&#x394;" horiz-adv-x="570" 
d="M41 0v16l221 547h30l237 -547v-16h-488zM70 22h428l-224 515z" />
    <glyph glyph-name="Sigma" unicode="&#x3a3;" horiz-adv-x="416" 
d="M57 0v19l209 259l-201 267v18h319v-23h-281l197 -262l-205 -255h306v-23h-344z" />
    <glyph glyph-name="uni03A9" unicode="&#x3a9;" horiz-adv-x="696" 
d="M89 0v22h155q-55 32 -91 78.5t-54 100t-18 106.5q0 69 30.5 130t90 98.5t146.5 37.5q88 0 147.5 -37.5t90 -98.5t30.5 -130q0 -53 -18 -106.5t-54 -100t-91 -78.5h154v-22h-183v23q55 33 91 80.5t54 101t18 105.5q0 63 -26.5 117.5t-79.5 88.5t-133 34q-79 0 -132.5 -34
t-80 -88.5t-26.5 -117.5q0 -52 18 -105.5t54.5 -101t90.5 -80.5v-23h-183z" />
    <glyph glyph-name="uni03BC" unicode="&#x3bc;" horiz-adv-x="502" 
d="M94 -150v336h30v-336h-30zM215 -11q-49 0 -75.5 20t-36 47t-9.5 47v268h-76v22h106v-289q0 -35 22 -63.5t71 -28.5q57 0 99 21t87 56l-26 -24v306h-73v22h103v-372h73v-21h-98l-4 62l26 6q-42 -37 -89 -58t-100 -21z" />
    <glyph glyph-name="pi" unicode="&#x3c0;" horiz-adv-x="546" 
d="M440 -5q-41 0 -63.5 29t-22.5 90q0 31 7.5 76t19 92.5t22.5 85.5h-190l-28 -252q-5 -43 -16 -69t-35.5 -37.5t-72.5 -11.5v19q36 0 54 11.5t26 34.5t13 56l37 249h-46q-19 0 -31.5 -14t-12.5 -50h-19q0 23 5.5 43.5t20 33t40.5 12.5h356v-25h-81q-9 -42 -18 -90.5
t-15.5 -90.5t-6.5 -67q0 -51 17.5 -77t51.5 -26q8 0 18 2t20 5v-19q-13 -4 -26 -7t-24 -3z" />
    <glyph glyph-name="uni1E02" unicode="&#x1e02;" horiz-adv-x="633" 
d="M60 0v22h85v519h-85v22h318q80 0 122.5 -34.5t42.5 -102.5q0 -51 -22.5 -85.5t-62.5 -42.5q46 -8 72 -30t36.5 -52t10.5 -62q0 -45 -18 -79.5t-52.5 -54.5t-82.5 -20h-364zM175 22h247q59 0 92.5 36.5t33.5 96.5q0 55 -33.5 92.5t-106.5 37.5h-233v-263zM175 307h231
q59 0 84 33.5t25 84.5q0 61 -36 88.5t-104 27.5h-200v-234zM285 653q-16 0 -23 9t-7 18q0 11 7 19.5t23 8.5t23 -8.5t7 -19.5q0 -9 -7.5 -18t-22.5 -9z" />
    <glyph glyph-name="uni1E03" unicode="&#x1e03;" horiz-adv-x="509" 
d="M270 -11q-46 0 -89 21t-72 58l20 -13v-55h-98v22h69v529h-65v22h94v-232l-23 -12q35 35 82 54.5t90 19.5q61 0 106 -24t70 -69.5t25 -108.5q0 -65 -26 -113t-73 -73.5t-110 -25.5zM268 11q83 0 132.5 49.5t49.5 134.5q0 86 -47.5 136t-127.5 50q-41 0 -87.5 -20.5
t-82.5 -55.5l24 31v-274l-21 32q30 -37 73.5 -60t86.5 -23zM295 483q-16 0 -23 9t-7 18q0 11 7 19.5t23 8.5t23 -8.5t7 -19.5q0 -9 -7.5 -18t-22.5 -9z" />
    <glyph glyph-name="uni1E08" unicode="&#x1e08;" horiz-adv-x="686" 
d="M348 -11q-51 0 -102 17.5t-94 53.5t-68.5 92t-25.5 132q0 80 36.5 145.5t102 104t152.5 38.5q68 0 113.5 -18.5t76.5 -52t53 -79.5l-14 6v135h27v-157l-21 -7q-37 76 -90 113t-145 37q-83 0 -141.5 -37.5t-89 -98t-30.5 -130.5q0 -68 22.5 -119t60.5 -84.5t84 -50
t94 -16.5q45 0 89 11.5t83 38.5t66 75l19 -13q-29 -49 -68.5 -79t-87 -43.5t-102.5 -13.5zM345 -145q-26 0 -50 13v15q11 -4 21.5 -5.5t18.5 -1.5q18 0 28 5t10 17q0 13 -12.5 19.5t-47.5 7.5l29 75h16l-18 -56q32 0 47.5 -12.5t15.5 -32.5q0 -23 -17.5 -33.5t-40.5 -10.5z
M347 653l44 123h30l-59 -123h-15z" />
    <glyph glyph-name="uni1E09" unicode="&#x1e09;" horiz-adv-x="467" 
d="M233 -11q-59 0 -105 27t-72 74t-26 108q0 60 26 106.5t72 72.5t105 26q53 0 93.5 -24t51.5 -62h-9v76h27v-115h-23q-7 45 -44.5 74t-93.5 29q-51 0 -91 -23.5t-62.5 -65t-22.5 -95.5t22.5 -95.5t62 -65.5t90.5 -24q47 0 83 16.5t70 49.5l11 -19q-33 -34 -72.5 -52
t-92.5 -18zM213 -145q-26 0 -50 13v15q11 -4 21.5 -5.5t18.5 -1.5q18 0 28 5t10 17q0 13 -12.5 19.5t-47.5 7.5l29 75h16l-18 -56q32 0 47.5 -12.5t15.5 -32.5q0 -23 -17.5 -33.5t-40.5 -10.5zM232 483l44 123h30l-59 -123h-15z" />
    <glyph glyph-name="uni1E0A" unicode="&#x1e0a;" horiz-adv-x="698" 
d="M60 0v22h85v519h-85v22h335q63 0 108.5 -26t75 -68.5t44 -92t14.5 -96.5q0 -48 -15 -97.5t-44.5 -90.5t-74.5 -66.5t-105 -25.5h-338zM175 22h218q54 0 94.5 22.5t67 60t40 83t13.5 91.5t-13.5 92t-40 84.5t-66 62t-92.5 23.5h-221v-519zM376 653q-16 0 -23 9t-7 18
q0 11 7 19.5t23 8.5t23 -8.5t7 -19.5q0 -9 -7.5 -18t-22.5 -9z" />
    <glyph glyph-name="uni1E0B" unicode="&#x1e0b;" horiz-adv-x="497" 
d="M238 -11q-60 0 -107 26.5t-74 73.5t-27 108q0 62 26.5 108t73 72t106.5 26q49 0 95.5 -19t71.5 -56l-20 15v208h-66v22h95v-551h67v-22h-96v52l20 10q-28 -31 -71.5 -52t-93.5 -21zM240 12q49 0 91.5 21t72.5 54l-21 -27v276l21 -33q-32 39 -75.5 58.5t-90.5 19.5
q-52 0 -92.5 -23.5t-63.5 -66t-23 -98.5q0 -53 23.5 -94t64.5 -64t93 -23zM398 663q-16 0 -23 9t-7 18q0 11 7 19.5t23 8.5t23 -8.5t7 -19.5q0 -9 -7.5 -18t-22.5 -9z" />
    <glyph glyph-name="uni1E0C" unicode="&#x1e0c;" horiz-adv-x="698" 
d="M60 0v22h85v519h-85v22h335q63 0 108.5 -26t75 -68.5t44 -92t14.5 -96.5q0 -48 -15 -97.5t-44.5 -90.5t-74.5 -66.5t-105 -25.5h-338zM175 22h218q54 0 94.5 22.5t67 60t40 83t13.5 91.5t-13.5 92t-40 84.5t-66 62t-92.5 23.5h-221v-519zM375 -107q-16 0 -23 9t-7 18
q0 11 7 19.5t23 8.5t23 -8.5t7 -19.5q0 -9 -7.5 -18t-22.5 -9z" />
    <glyph glyph-name="uni1E0D" unicode="&#x1e0d;" horiz-adv-x="497" 
d="M238 -11q-60 0 -107 26.5t-74 73.5t-27 108q0 62 26.5 108t73 72t106.5 26q49 0 95.5 -19t71.5 -56l-20 15v208h-66v22h95v-551h67v-22h-96v52l20 10q-28 -31 -71.5 -52t-93.5 -21zM240 12q49 0 91.5 21t72.5 54l-21 -27v276l21 -33q-32 39 -75.5 58.5t-90.5 19.5
q-52 0 -92.5 -23.5t-63.5 -66t-23 -98.5q0 -53 23.5 -94t64.5 -64t93 -23zM265 -107q-16 0 -23 9t-7 18q0 11 7 19.5t23 8.5t23 -8.5t7 -19.5q0 -9 -7.5 -18t-22.5 -9z" />
    <glyph glyph-name="uni1E0E" unicode="&#x1e0e;" horiz-adv-x="698" 
d="M60 0v22h85v519h-85v22h335q63 0 108.5 -26t75 -68.5t44 -92t14.5 -96.5q0 -48 -15 -97.5t-44.5 -90.5t-74.5 -66.5t-105 -25.5h-338zM175 22h218q54 0 94.5 22.5t67 60t40 83t13.5 91.5t-13.5 92t-40 84.5t-66 62t-92.5 23.5h-221v-519zM283 -72v20h184v-20h-184z" />
    <glyph glyph-name="uni1E0F" unicode="&#x1e0f;" horiz-adv-x="497" 
d="M238 -11q-60 0 -107 26.5t-74 73.5t-27 108q0 62 26.5 108t73 72t106.5 26q49 0 95.5 -19t71.5 -56l-20 15v208h-66v22h95v-551h67v-22h-96v52l20 10q-28 -31 -71.5 -52t-93.5 -21zM240 12q49 0 91.5 21t72.5 54l-21 -27v276l21 -33q-32 39 -75.5 58.5t-90.5 19.5
q-52 0 -92.5 -23.5t-63.5 -66t-23 -98.5q0 -53 23.5 -94t64.5 -64t93 -23zM173 -72v20h184v-20h-184z" />
    <glyph glyph-name="uni1E14" unicode="&#x1e14;" horiz-adv-x="597" 
d="M60 0v22h85v519h-85v22h459v-161h-26v139h-318v-243h205v83h23v-194h-22v89h-206v-254h330v141h26v-163h-471zM235 653v20h184v-20h-184zM316 752l-58 123h30l44 -123h-16z" />
    <glyph glyph-name="uni1E15" unicode="&#x1e15;" horiz-adv-x="474" 
d="M237 -11q-54 0 -101 24.5t-76.5 71.5t-29.5 112q0 69 29 115t75 69t96 23q51 0 94.5 -22t70 -68.5t26.5 -118.5v-6h-367v21h340q0 59 -23.5 97t-61 56.5t-79.5 18.5q-46 0 -85 -22t-62.5 -63t-23.5 -98q0 -55 23.5 -97t64.5 -66t91 -24q47 0 93 21t71 52l10 -22
q-37 -37 -83 -55.5t-92 -18.5zM146 483v20h184v-20h-184zM227 582l-58 123h30l44 -123h-16z" />
    <glyph glyph-name="uni1E16" unicode="&#x1e16;" horiz-adv-x="597" 
d="M60 0v22h85v519h-85v22h459v-161h-26v139h-318v-243h205v83h23v-194h-22v89h-206v-254h330v141h26v-163h-471zM235 653v20h184v-20h-184zM322 752l44 123h30l-59 -123h-15z" />
    <glyph glyph-name="uni1E17" unicode="&#x1e17;" horiz-adv-x="474" 
d="M237 -11q-54 0 -101 24.5t-76.5 71.5t-29.5 112q0 69 29 115t75 69t96 23q51 0 94.5 -22t70 -68.5t26.5 -118.5v-6h-367v21h340q0 59 -23.5 97t-61 56.5t-79.5 18.5q-46 0 -85 -22t-62.5 -63t-23.5 -98q0 -55 23.5 -97t64.5 -66t91 -24q47 0 93 21t71 52l10 -22
q-37 -37 -83 -55.5t-92 -18.5zM146 483v20h184v-20h-184zM233 582l44 123h30l-59 -123h-15z" />
    <glyph glyph-name="uni1E1C" unicode="&#x1e1c;" horiz-adv-x="597" 
d="M60 0v22h85v519h-85v22h459v-161h-26v139h-318v-243h205v83h23v-194h-22v89h-206v-254h330v141h26v-163h-471zM333 -145q-26 0 -50 13v15q11 -4 21.5 -5.5t18.5 -1.5q18 0 28 5t10 17q0 13 -12.5 19.5t-47.5 7.5l29 75h16l-18 -56q32 0 47.5 -12.5t15.5 -32.5
q0 -23 -17.5 -33.5t-40.5 -10.5zM327 653q-29 0 -47.5 17t-24.5 50h19q12 -46 53 -46q20 0 32.5 11.5t19.5 34.5h19q-6 -33 -24 -50t-47 -17z" />
    <glyph glyph-name="uni1E1D" unicode="&#x1e1d;" horiz-adv-x="474" 
d="M237 -11q-54 0 -101 24.5t-76.5 71.5t-29.5 112q0 69 29 115t75 69t96 23q51 0 94.5 -22t70 -68.5t26.5 -118.5v-6h-367v21h340q0 59 -23.5 97t-61 56.5t-79.5 18.5q-46 0 -85 -22t-62.5 -63t-23.5 -98q0 -55 23.5 -97t64.5 -66t91 -24q47 0 93 21t71 52l10 -22
q-37 -37 -83 -55.5t-92 -18.5zM233 -145q-26 0 -50 13v15q11 -4 21.5 -5.5t18.5 -1.5q18 0 28 5t10 17q0 13 -12.5 19.5t-47.5 7.5l29 75h16l-18 -56q32 0 47.5 -12.5t15.5 -32.5q0 -23 -17.5 -33.5t-40.5 -10.5zM238 483q-29 0 -47.5 17t-24.5 50h19q12 -46 53 -46
q20 0 32.5 11.5t19.5 34.5h19q-6 -33 -24 -50t-47 -17z" />
    <glyph glyph-name="uni1E1E" unicode="&#x1e1e;" horiz-adv-x="570" 
d="M60 0v22h85v519h-85v22h464v-174h-24v152h-325v-240h206v76h21v-186h-21v87h-206v-256h85v-22h-200zM314 653q-16 0 -23 9t-7 18q0 11 7 19.5t23 8.5t23 -8.5t7 -19.5q0 -9 -7.5 -18t-22.5 -9z" />
    <glyph glyph-name="uni1E1F" unicode="&#x1e1f;" horiz-adv-x="269" 
d="M54 0v22h73v349h-75v22h75v109q0 26 10 44t29 27.5t44 9.5q34 0 55 -17t24 -49l-22 -9q-4 26 -17.5 39.5t-37.5 13.5t-39 -15t-15 -45v-108h105v-22h-105v-349h95v-22h-199zM210 663q-16 0 -23 9t-7 18q0 11 7 19.5t23 8.5t23 -8.5t7 -19.5q0 -9 -7.5 -18t-22.5 -9z" />
    <glyph glyph-name="uni1E20" unicode="&#x1e20;" horiz-adv-x="681" 
d="M347 -11q-89 0 -154 36.5t-100.5 103t-35.5 156.5q0 89 35.5 153.5t100.5 99.5t154 35q75 0 137.5 -34.5t92.5 -98.5l-14 8v115h27v-151h-22q-28 66 -87.5 102t-133.5 36q-79 0 -137.5 -32.5t-90.5 -91.5t-32 -141q0 -83 32 -144.5t90.5 -94.5t137.5 -33q34 0 74.5 10.5
t77.5 36.5t60.5 72t23.5 116l7 -2h-131v22h153v-3q0 -87 -26.5 -141t-68 -83.5t-87 -40.5t-83.5 -11zM254 653v20h184v-20h-184z" />
    <glyph glyph-name="uni1E21" unicode="&#x1e21;" horiz-adv-x="497" 
d="M233 -184q-31 0 -66.5 6.5t-73.5 16.5l5 23q41 -12 74.5 -17.5t61.5 -5.5q78 0 116 39.5t38 106.5v77l19 12q-27 -34 -74.5 -55.5t-94.5 -21.5q-60 0 -106.5 26t-73.5 72t-27 106t25 105.5t69.5 70.5t101.5 25q50 0 101 -21.5t79 -54.5l-19 12v55h96v-22h-67v-379
q0 -60 -22.5 -99t-63.5 -58t-98 -19zM240 19q44 0 92 22t75 57l-19 -30v262l21 -25q-31 33 -82 54.5t-98 21.5q-50 0 -88 -23.5t-59.5 -64.5t-21.5 -96q0 -53 23 -93t64 -62.5t93 -22.5zM147 483v20h184v-20h-184z" />
    <glyph glyph-name="uni1E24" unicode="&#x1e24;" horiz-adv-x="730" 
d="M60 0v22h85v519h-85v22h200v-22h-85v-245h380v245h-85v22h199v-22h-85v-519h85v-22h-199v22h85v251h-380v-251h85v-22h-200zM364 -107q-16 0 -23 9t-7 18q0 11 7 19.5t23 8.5t23 -8.5t7 -19.5q0 -9 -7.5 -18t-22.5 -9z" />
    <glyph glyph-name="uni1E25" unicode="&#x1e25;" horiz-adv-x="482" 
d="M10 0v22h72v529h-69v22h98v-229h-7q48 27 88.5 43t83.5 16q55 0 87.5 -32.5t32.5 -88.5v-260h76v-22h-189v22h85v268q0 42 -26 66t-69 24q-37 0 -80.5 -16.5t-88.5 -40.5l7 8v-309h72v-22h-173zM233 -107q-16 0 -23 9t-7 18q0 11 7 19.5t23 8.5t23 -8.5t7 -19.5
q0 -9 -7.5 -18t-22.5 -9z" />
    <glyph glyph-name="uni1E2A" unicode="&#x1e2a;" horiz-adv-x="730" 
d="M60 0v22h85v519h-85v22h200v-22h-85v-245h380v245h-85v22h199v-22h-85v-519h85v-22h-199v22h85v251h-380v-251h85v-22h-200zM364 -119q-29 0 -47.5 17t-24.5 50h19q12 -46 53 -46q20 0 32.5 11.5t19.5 34.5h19q-6 -33 -24 -50t-47 -17z" />
    <glyph glyph-name="uni1E2B" unicode="&#x1e2b;" horiz-adv-x="482" 
d="M10 0v22h72v529h-69v22h98v-229h-7q48 27 88.5 43t83.5 16q55 0 87.5 -32.5t32.5 -88.5v-260h76v-22h-189v22h85v268q0 42 -26 66t-69 24q-37 0 -80.5 -16.5t-88.5 -40.5l7 8v-309h72v-22h-173zM233 -119q-29 0 -47.5 17t-24.5 50h19q12 -46 53 -46q20 0 32.5 11.5
t19.5 34.5h19q-6 -33 -24 -50t-47 -17z" />
    <glyph glyph-name="uni1E2E" unicode="&#x1e2e;" horiz-adv-x="311" 
d="M55 0v22h85v519h-85v22h200v-22h-85v-519h85v-22h-200zM79 654q-11 0 -17 6t-6 16t6 15.5t16 5.5q11 0 16.5 -5.5t5.5 -15.5t-5.5 -16t-15.5 -6zM236 654q-10 0 -16 5.5t-6 15.5q0 11 6 16.5t16 5.5t16 -5.5t6 -16.5q0 -10 -6 -15.5t-16 -5.5zM152 797l44 123h30
l-59 -123h-15z" />
    <glyph glyph-name="uni1E2F" unicode="&#x1e2f;" horiz-adv-x="236" 
d="M18 0v22h86v349h-85v22h114v-371h84v-22h-199zM33 484q-11 0 -17 6t-6 16t6 15.5t16 5.5q11 0 16.5 -5.5t5.5 -15.5t-5.5 -16t-15.5 -6zM190 484q-10 0 -16 5.5t-6 15.5q0 11 6 16.5t16 5.5t16 -5.5t6 -16.5q0 -10 -6 -15.5t-16 -5.5zM106 627l44 123h30l-59 -123h-15z
" />
    <glyph glyph-name="uni1E36" unicode="&#x1e36;" horiz-adv-x="517" 
d="M60 0v22h85v519h-85v22h200v-22h-85v-519h291v160h25v-182h-431zM313 -107q-16 0 -23 9t-7 18q0 11 7 19.5t23 8.5t23 -8.5t7 -19.5q0 -9 -7.5 -18t-22.5 -9z" />
    <glyph glyph-name="uni1E37" unicode="&#x1e37;" horiz-adv-x="224" 
d="M28 0v22h73v529h-70v22h98v-551h73v-22h-174zM116 -107q-16 0 -23 9t-7 18q0 11 7 19.5t23 8.5t23 -8.5t7 -19.5q0 -9 -7.5 -18t-22.5 -9z" />
    <glyph glyph-name="uni1E3A" unicode="&#x1e3a;" horiz-adv-x="517" 
d="M60 0v22h85v519h-85v22h200v-22h-85v-519h291v160h25v-182h-431zM221 -72v20h184v-20h-184z" />
    <glyph glyph-name="uni1E3B" unicode="&#x1e3b;" horiz-adv-x="224" 
d="M28 0v22h73v529h-70v22h98v-551h73v-22h-174zM24 -72v20h184v-20h-184z" />
    <glyph glyph-name="uni1E40" unicode="&#x1e40;" horiz-adv-x="711" 
d="M26 0v22h75v519h-75v22h109l226 -459l213 459h111v-22h-75v-519h75v-22h-181v22h77v492l-218 -466h-6l-229 466v-492h76v-22h-178zM350 653q-16 0 -23 9t-7 18q0 11 7 19.5t23 8.5t23 -8.5t7 -19.5q0 -9 -7.5 -18t-22.5 -9z" />
    <glyph glyph-name="uni1E41" unicode="&#x1e41;" horiz-adv-x="770" 
d="M18 0v22h86v349h-85v22h114v-47l-12 -1q44 27 90.5 42.5t80.5 15.5q59 0 89.5 -35t30.5 -88v-258h74v-22h-188v22h85v268q0 42 -26 66t-70 24q-28 0 -73 -15t-95 -42l14 15v-316h84v-22h-199zM579 0v22h85v268q0 42 -26.5 66t-70.5 24q-37 0 -81.5 -14.5t-85.5 -42.5
l-8 19q47 29 89 45t91 16q55 0 87.5 -32.5t32.5 -88.5v-260h75v-22h-188zM396 483q-16 0 -23 9t-7 18q0 11 7 19.5t23 8.5t23 -8.5t7 -19.5q0 -9 -7.5 -18t-22.5 -9z" />
    <glyph glyph-name="uni1E42" unicode="&#x1e42;" horiz-adv-x="711" 
d="M26 0v22h75v519h-75v22h109l226 -459l213 459h111v-22h-75v-519h75v-22h-181v22h77v492l-218 -466h-6l-229 466v-492h76v-22h-178zM360 -107q-16 0 -23 9t-7 18q0 11 7 19.5t23 8.5t23 -8.5t7 -19.5q0 -9 -7.5 -18t-22.5 -9z" />
    <glyph glyph-name="uni1E43" unicode="&#x1e43;" horiz-adv-x="770" 
d="M18 0v22h86v349h-85v22h114v-47l-12 -1q44 27 90.5 42.5t80.5 15.5q59 0 89.5 -35t30.5 -88v-258h74v-22h-188v22h85v268q0 42 -26 66t-70 24q-28 0 -73 -15t-95 -42l14 15v-316h84v-22h-199zM579 0v22h85v268q0 42 -26.5 66t-70.5 24q-37 0 -81.5 -14.5t-85.5 -42.5
l-8 19q47 29 89 45t91 16q55 0 87.5 -32.5t32.5 -88.5v-260h75v-22h-188zM398 -107q-16 0 -23 9t-7 18q0 11 7 19.5t23 8.5t23 -8.5t7 -19.5q0 -9 -7.5 -18t-22.5 -9z" />
    <glyph glyph-name="uni1E44" unicode="&#x1e44;" horiz-adv-x="705" 
d="M64 0v22h72v519h-72v22h100l413 -521v499h-75v22h165v-22h-63v-541h-30l-410 518v-496h73v-22h-173zM352 653q-16 0 -23 9t-7 18q0 11 7 19.5t23 8.5t23 -8.5t7 -19.5q0 -9 -7.5 -18t-22.5 -9z" />
    <glyph glyph-name="uni1E45" unicode="&#x1e45;" horiz-adv-x="497" 
d="M18 0v22h86v349h-85v22h114v-50h-9q43 26 87.5 43t87.5 17q55 0 87.5 -32.5t32.5 -88.5v-260h75v-22h-189v22h85v268q0 42 -26 66t-70 24q-35 0 -80 -17t-90 -43l9 15v-313h84v-22h-199zM264 483q-16 0 -23 9t-7 18q0 11 7 19.5t23 8.5t23 -8.5t7 -19.5q0 -9 -7.5 -18
t-22.5 -9z" />
    <glyph glyph-name="uni1E46" unicode="&#x1e46;" horiz-adv-x="705" 
d="M64 0v22h72v519h-72v22h100l413 -521v499h-75v22h165v-22h-63v-541h-30l-410 518v-496h73v-22h-173zM384 -107q-16 0 -23 9t-7 18q0 11 7 19.5t23 8.5t23 -8.5t7 -19.5q0 -9 -7.5 -18t-22.5 -9z" />
    <glyph glyph-name="uni1E47" unicode="&#x1e47;" horiz-adv-x="497" 
d="M18 0v22h86v349h-85v22h114v-50h-9q43 26 87.5 43t87.5 17q55 0 87.5 -32.5t32.5 -88.5v-260h75v-22h-189v22h85v268q0 42 -26 66t-70 24q-35 0 -80 -17t-90 -43l9 15v-313h84v-22h-199zM268 -107q-16 0 -23 9t-7 18q0 11 7 19.5t23 8.5t23 -8.5t7 -19.5q0 -9 -7.5 -18
t-22.5 -9z" />
    <glyph glyph-name="uni1E48" unicode="&#x1e48;" horiz-adv-x="705" 
d="M64 0v22h72v519h-72v22h100l413 -521v499h-75v22h165v-22h-63v-541h-30l-410 518v-496h73v-22h-173zM292 -72v20h184v-20h-184z" />
    <glyph glyph-name="uni1E49" unicode="&#x1e49;" horiz-adv-x="497" 
d="M18 0v22h86v349h-85v22h114v-50h-9q43 26 87.5 43t87.5 17q55 0 87.5 -32.5t32.5 -88.5v-260h75v-22h-189v22h85v268q0 42 -26 66t-70 24q-35 0 -80 -17t-90 -43l9 15v-313h84v-22h-199zM176 -72v20h184v-20h-184z" />
    <glyph glyph-name="uni1E4C" unicode="&#x1e4c;" horiz-adv-x="710" 
d="M354 -11q-75 0 -130.5 25.5t-91.5 67.5t-53.5 93.5t-17.5 103.5q0 53 18 105t54 94.5t91.5 68.5t130.5 26t130.5 -26t92 -68.5t54.5 -94.5t18 -105t-17.5 -104.5t-54 -93.5t-92.5 -67t-132 -25zM355 13q68 0 117.5 23t82.5 62t49 86t16 95t-16 95.5t-49 87.5t-82.5 64
t-117.5 24t-117.5 -24t-82 -64t-48.5 -87.5t-16 -95.5q0 -49 15.5 -96.5t48 -86t82 -61t118.5 -22.5zM407 653q-18 0 -36 10.5t-35 20.5t-35 10q-27 0 -27 -40h-20q0 26 12.5 44t34.5 18q19 0 36.5 -10t35 -20.5t34.5 -10.5q12 0 19.5 9.5t7.5 29.5h20q0 -30 -10.5 -45.5
t-36.5 -15.5zM349 792l44 123h30l-59 -123h-15z" />
    <glyph glyph-name="uni1E4D" unicode="&#x1e4d;" horiz-adv-x="481" 
d="M239 -12q-61 0 -108 27t-74 74.5t-27 109.5q0 60 27 106.5t74 72.5t108 26q62 0 110 -26t75 -72t27 -107q0 -62 -27 -109.5t-75 -74.5t-110 -27zM239 11q54 0 95 24t64.5 66.5t23.5 97.5q0 54 -23.5 95.5t-64.5 64.5t-95 23q-53 0 -93.5 -23t-63.5 -64.5t-23 -95.5
q0 -55 23 -97.5t63.5 -66.5t93.5 -24zM291 483q-18 0 -36 10.5t-35 20.5t-35 10q-27 0 -27 -40h-20q0 26 12.5 44t34.5 18q19 0 36.5 -10t35 -20.5t34.5 -10.5q12 0 19.5 9.5t7.5 29.5h20q0 -30 -10.5 -45.5t-36.5 -15.5zM233 622l44 123h30l-59 -123h-15z" />
    <glyph glyph-name="uni1E4E" unicode="&#x1e4e;" horiz-adv-x="710" 
d="M354 -11q-75 0 -130.5 25.5t-91.5 67.5t-53.5 93.5t-17.5 103.5q0 53 18 105t54 94.5t91.5 68.5t130.5 26t130.5 -26t92 -68.5t54.5 -94.5t18 -105t-17.5 -104.5t-54 -93.5t-92.5 -67t-132 -25zM355 13q68 0 117.5 23t82.5 62t49 86t16 95t-16 95.5t-49 87.5t-82.5 64
t-117.5 24t-117.5 -24t-82 -64t-48.5 -87.5t-16 -95.5q0 -49 15.5 -96.5t48 -86t82 -61t118.5 -22.5zM407 653q-18 0 -36 10.5t-35 20.5t-35 10q-27 0 -27 -40h-20q0 26 12.5 44t34.5 18q19 0 36.5 -10t35 -20.5t34.5 -10.5q12 0 19.5 9.5t7.5 29.5h20q0 -30 -10.5 -45.5
t-36.5 -15.5zM276 793q-11 0 -17 6t-6 16t6 15.5t16 5.5q11 0 16.5 -5.5t5.5 -15.5t-5.5 -16t-15.5 -6zM433 793q-10 0 -16 5.5t-6 15.5q0 11 6 16.5t16 5.5t16 -5.5t6 -16.5q0 -10 -6 -15.5t-16 -5.5z" />
    <glyph glyph-name="uni1E4F" unicode="&#x1e4f;" horiz-adv-x="481" 
d="M239 -12q-61 0 -108 27t-74 74.5t-27 109.5q0 60 27 106.5t74 72.5t108 26q62 0 110 -26t75 -72t27 -107q0 -62 -27 -109.5t-75 -74.5t-110 -27zM239 11q54 0 95 24t64.5 66.5t23.5 97.5q0 54 -23.5 95.5t-64.5 64.5t-95 23q-53 0 -93.5 -23t-63.5 -64.5t-23 -95.5
q0 -55 23 -97.5t63.5 -66.5t93.5 -24zM291 483q-18 0 -36 10.5t-35 20.5t-35 10q-27 0 -27 -40h-20q0 26 12.5 44t34.5 18q19 0 36.5 -10t35 -20.5t34.5 -10.5q12 0 19.5 9.5t7.5 29.5h20q0 -30 -10.5 -45.5t-36.5 -15.5zM160 623q-11 0 -17 6t-6 16t6 15.5t16 5.5
q11 0 16.5 -5.5t5.5 -15.5t-5.5 -16t-15.5 -6zM317 623q-10 0 -16 5.5t-6 15.5q0 11 6 16.5t16 5.5t16 -5.5t6 -16.5q0 -10 -6 -15.5t-16 -5.5z" />
    <glyph glyph-name="uni1E50" unicode="&#x1e50;" horiz-adv-x="710" 
d="M354 -11q-75 0 -130.5 25.5t-91.5 67.5t-53.5 93.5t-17.5 103.5q0 53 18 105t54 94.5t91.5 68.5t130.5 26t130.5 -26t92 -68.5t54.5 -94.5t18 -105t-17.5 -104.5t-54 -93.5t-92.5 -67t-132 -25zM355 13q68 0 117.5 23t82.5 62t49 86t16 95t-16 95.5t-49 87.5t-82.5 64
t-117.5 24t-117.5 -24t-82 -64t-48.5 -87.5t-16 -95.5q0 -49 15.5 -96.5t48 -86t82 -61t118.5 -22.5zM262 653v20h184v-20h-184zM343 752l-58 123h30l44 -123h-16z" />
    <glyph glyph-name="uni1E51" unicode="&#x1e51;" horiz-adv-x="481" 
d="M239 -12q-61 0 -108 27t-74 74.5t-27 109.5q0 60 27 106.5t74 72.5t108 26q62 0 110 -26t75 -72t27 -107q0 -62 -27 -109.5t-75 -74.5t-110 -27zM239 11q54 0 95 24t64.5 66.5t23.5 97.5q0 54 -23.5 95.5t-64.5 64.5t-95 23q-53 0 -93.5 -23t-63.5 -64.5t-23 -95.5
q0 -55 23 -97.5t63.5 -66.5t93.5 -24zM146 483v20h184v-20h-184zM227 582l-58 123h30l44 -123h-16z" />
    <glyph glyph-name="uni1E52" unicode="&#x1e52;" horiz-adv-x="710" 
d="M354 -11q-75 0 -130.5 25.5t-91.5 67.5t-53.5 93.5t-17.5 103.5q0 53 18 105t54 94.5t91.5 68.5t130.5 26t130.5 -26t92 -68.5t54.5 -94.5t18 -105t-17.5 -104.5t-54 -93.5t-92.5 -67t-132 -25zM355 13q68 0 117.5 23t82.5 62t49 86t16 95t-16 95.5t-49 87.5t-82.5 64
t-117.5 24t-117.5 -24t-82 -64t-48.5 -87.5t-16 -95.5q0 -49 15.5 -96.5t48 -86t82 -61t118.5 -22.5zM262 653v20h184v-20h-184zM349 752l44 123h30l-59 -123h-15z" />
    <glyph glyph-name="uni1E53" unicode="&#x1e53;" horiz-adv-x="481" 
d="M239 -12q-61 0 -108 27t-74 74.5t-27 109.5q0 60 27 106.5t74 72.5t108 26q62 0 110 -26t75 -72t27 -107q0 -62 -27 -109.5t-75 -74.5t-110 -27zM239 11q54 0 95 24t64.5 66.5t23.5 97.5q0 54 -23.5 95.5t-64.5 64.5t-95 23q-53 0 -93.5 -23t-63.5 -64.5t-23 -95.5
q0 -55 23 -97.5t63.5 -66.5t93.5 -24zM146 483v20h184v-20h-184zM233 582l44 123h30l-59 -123h-15z" />
    <glyph glyph-name="uni1E56" unicode="&#x1e56;" horiz-adv-x="593" 
d="M60 0v22h85v519h-85v22h301q78 0 121 -39t43 -110q0 -81 -42 -126t-118 -45h-144l1 21h143q62 0 96 39.5t34 109.5q0 61 -35 94.5t-98 33.5h-187v-519h85v-22h-200zM326 653q-16 0 -23 9t-7 18q0 11 7 19.5t23 8.5t23 -8.5t7 -19.5q0 -9 -7.5 -18t-22.5 -9z" />
    <glyph glyph-name="uni1E57" unicode="&#x1e57;" horiz-adv-x="507" 
d="M30 -154v21h69v504h-62v22h91v-51l-24 -13q31 33 79 53.5t96 20.5q59 0 103.5 -26t69 -72.5t24.5 -109.5q0 -62 -24.5 -108.5t-68.5 -72t-103 -25.5q-30 0 -63 10t-61.5 27.5t-46.5 39.5l19 -13l-1 -186h68v-21h-165zM278 11q77 0 123.5 51t46.5 133q0 83 -47.5 133.5
t-124.5 50.5q-29 0 -60 -9.5t-60 -26t-52 -38.5l24 32v-275l-20 30q29 -35 78 -58t92 -23zM275 483q-16 0 -23 9t-7 18q0 11 7 19.5t23 8.5t23 -8.5t7 -19.5q0 -9 -7.5 -18t-22.5 -9z" />
    <glyph glyph-name="uni1E5A" unicode="&#x1e5a;" horiz-adv-x="631" 
d="M60 0v22h85v519h-85v22h306q58 0 93 -22t51 -56.5t16 -71.5q0 -36 -15.5 -70t-53.5 -56t-105 -23l151 -242h83v-22h-103l-163 263h-111v22h131q65 0 98.5 20t46 50t12.5 58q0 31 -12 60t-40 48.5t-77 19.5h-193v-519h85v-22h-200zM347 -107q-16 0 -23 9t-7 18
q0 11 7 19.5t23 8.5t23 -8.5t7 -19.5q0 -9 -7.5 -18t-22.5 -9z" />
    <glyph glyph-name="uni1E5B" unicode="&#x1e5b;" horiz-adv-x="364" 
d="M55 0v22h87v349h-85v22h114v-123l-10 -1q7 50 24.5 79t40 41.5t46.5 12.5q20 0 38 -4.5t34 -14.5l-6 -23q-16 9 -30.5 14t-34.5 5q-40 0 -71 -40.5t-31 -112.5v-204h83v-22h-199zM160 -107q-16 0 -23 9t-7 18q0 11 7 19.5t23 8.5t23 -8.5t7 -19.5q0 -9 -7.5 -18t-22.5 -9
z" />
    <glyph glyph-name="uni1E5E" unicode="&#x1e5e;" horiz-adv-x="631" 
d="M60 0v22h85v519h-85v22h306q58 0 93 -22t51 -56.5t16 -71.5q0 -36 -15.5 -70t-53.5 -56t-105 -23l151 -242h83v-22h-103l-163 263h-111v22h131q65 0 98.5 20t46 50t12.5 58q0 31 -12 60t-40 48.5t-77 19.5h-193v-519h85v-22h-200zM255 -72v20h184v-20h-184z" />
    <glyph glyph-name="uni1E5F" unicode="&#x1e5f;" horiz-adv-x="364" 
d="M55 0v22h87v349h-85v22h114v-123l-10 -1q7 50 24.5 79t40 41.5t46.5 12.5q20 0 38 -4.5t34 -14.5l-6 -23q-16 9 -30.5 14t-34.5 5q-40 0 -71 -40.5t-31 -112.5v-204h83v-22h-199zM68 -72v20h184v-20h-184z" />
    <glyph glyph-name="uni1E60" unicode="&#x1e60;" horiz-adv-x="553" 
d="M311 -11q-54 0 -96 13.5t-69 38t-37 57.5h5v-98h-28v189h28q0 -53 18 -93t61 -61.5t118 -21.5q73 0 112 34.5t39 92.5q0 39 -12 64.5t-39.5 40.5t-76.5 21l-81 11q-82 11 -125 45t-43 106q0 44 20.5 76.5t60 50.5t96.5 18q73 0 121.5 -29t62.5 -76h-7v95h28v-151h-28
q0 40 -20 71t-59.5 49t-96.5 18q-72 0 -111 -33.5t-39 -87.5q0 -66 39.5 -92t104.5 -35l82 -11q53 -7 86.5 -25.5t49 -49t15.5 -74.5q0 -45 -21 -79.5t-60.5 -54t-97.5 -19.5zM283 653q-16 0 -23 9t-7 18q0 11 7 19.5t23 8.5t23 -8.5t7 -19.5q0 -9 -7.5 -18t-22.5 -9z" />
    <glyph glyph-name="uni1E61" unicode="&#x1e61;" horiz-adv-x="446" 
d="M246 -11q-38 0 -72.5 9.5t-57.5 25.5t-30 33l10 -12v-45h-26v117h24l3 -66l-17 37q23 -38 66.5 -57.5t98.5 -19.5q52 0 85 22.5t33 60.5q0 45 -28.5 62t-90.5 30l-65 13q-47 11 -76.5 32t-29.5 69q0 51 41 77t101 26q28 0 56.5 -8t52 -22.5t36.5 -35.5l-17 12v44h26v-128
h-24l-5 78l10 -26q-7 16 -27.5 30.5t-48 24t-57.5 9.5q-46 0 -80.5 -20t-34.5 -60q0 -38 27 -54t67 -24l65 -14q48 -10 76 -23.5t40.5 -34.5t12.5 -55q0 -37 -21 -60.5t-54 -35t-69 -11.5zM236 483q-16 0 -23 9t-7 18q0 11 7 19.5t23 8.5t23 -8.5t7 -19.5q0 -9 -7.5 -18
t-22.5 -9z" />
    <glyph glyph-name="uni1E62" unicode="&#x1e62;" horiz-adv-x="553" 
d="M311 -11q-54 0 -96 13.5t-69 38t-37 57.5h5v-98h-28v189h28q0 -53 18 -93t61 -61.5t118 -21.5q73 0 112 34.5t39 92.5q0 39 -12 64.5t-39.5 40.5t-76.5 21l-81 11q-82 11 -125 45t-43 106q0 44 20.5 76.5t60 50.5t96.5 18q73 0 121.5 -29t62.5 -76h-7v95h28v-151h-28
q0 40 -20 71t-59.5 49t-96.5 18q-72 0 -111 -33.5t-39 -87.5q0 -66 39.5 -92t104.5 -35l82 -11q53 -7 86.5 -25.5t49 -49t15.5 -74.5q0 -45 -21 -79.5t-60.5 -54t-97.5 -19.5zM313 -107q-16 0 -23 9t-7 18q0 11 7 19.5t23 8.5t23 -8.5t7 -19.5q0 -9 -7.5 -18t-22.5 -9z" />
    <glyph glyph-name="uni1E63" unicode="&#x1e63;" horiz-adv-x="446" 
d="M246 -11q-38 0 -72.5 9.5t-57.5 25.5t-30 33l10 -12v-45h-26v117h24l3 -66l-17 37q23 -38 66.5 -57.5t98.5 -19.5q52 0 85 22.5t33 60.5q0 45 -28.5 62t-90.5 30l-65 13q-47 11 -76.5 32t-29.5 69q0 51 41 77t101 26q28 0 56.5 -8t52 -22.5t36.5 -35.5l-17 12v44h26v-128
h-24l-5 78l10 -26q-7 16 -27.5 30.5t-48 24t-57.5 9.5q-46 0 -80.5 -20t-34.5 -60q0 -38 27 -54t67 -24l65 -14q48 -10 76 -23.5t40.5 -34.5t12.5 -55q0 -37 -21 -60.5t-54 -35t-69 -11.5zM230 -107q-16 0 -23 9t-7 18q0 11 7 19.5t23 8.5t23 -8.5t7 -19.5q0 -9 -7.5 -18
t-22.5 -9z" />
    <glyph glyph-name="uni1E64" unicode="&#x1e64;" horiz-adv-x="553" 
d="M311 -11q-54 0 -96 13.5t-69 38t-37 57.5h5v-98h-28v189h28q0 -53 18 -93t61 -61.5t118 -21.5q73 0 112 34.5t39 92.5q0 39 -12 64.5t-39.5 40.5t-76.5 21l-81 11q-82 11 -125 45t-43 106q0 44 20.5 76.5t60 50.5t96.5 18q73 0 121.5 -29t62.5 -76h-7v95h28v-151h-28
q0 40 -20 71t-59.5 49t-96.5 18q-72 0 -111 -33.5t-39 -87.5q0 -66 39.5 -92t104.5 -35l82 -11q53 -7 86.5 -25.5t49 -49t15.5 -74.5q0 -45 -21 -79.5t-60.5 -54t-97.5 -19.5zM278 653l44 123h30l-59 -123h-15zM283 891q-16 0 -23 9t-7 18q0 11 7 19.5t23 8.5t23 -8.5
t7 -19.5q0 -9 -7.5 -18t-22.5 -9z" />
    <glyph glyph-name="uni1E65" unicode="&#x1e65;" horiz-adv-x="446" 
d="M246 -11q-38 0 -72.5 9.5t-57.5 25.5t-30 33l10 -12v-45h-26v117h24l3 -66l-17 37q23 -38 66.5 -57.5t98.5 -19.5q52 0 85 22.5t33 60.5q0 45 -28.5 62t-90.5 30l-65 13q-47 11 -76.5 32t-29.5 69q0 51 41 77t101 26q28 0 56.5 -8t52 -22.5t36.5 -35.5l-17 12v44h26v-128
h-24l-5 78l10 -26q-7 16 -27.5 30.5t-48 24t-57.5 9.5q-46 0 -80.5 -20t-34.5 -60q0 -38 27 -54t67 -24l65 -14q48 -10 76 -23.5t40.5 -34.5t12.5 -55q0 -37 -21 -60.5t-54 -35t-69 -11.5zM231 483l44 123h30l-59 -123h-15zM236 721q-16 0 -23 9t-7 18q0 11 7 19.5t23 8.5
t23 -8.5t7 -19.5q0 -9 -7.5 -18t-22.5 -9z" />
    <glyph glyph-name="uni1E66" unicode="&#x1e66;" horiz-adv-x="553" 
d="M311 -11q-54 0 -96 13.5t-69 38t-37 57.5h5v-98h-28v189h28q0 -53 18 -93t61 -61.5t118 -21.5q73 0 112 34.5t39 92.5q0 39 -12 64.5t-39.5 40.5t-76.5 21l-81 11q-82 11 -125 45t-43 106q0 44 20.5 76.5t60 50.5t96.5 18q73 0 121.5 -29t62.5 -76h-7v95h28v-151h-28
q0 40 -20 71t-59.5 49t-96.5 18q-72 0 -111 -33.5t-39 -87.5q0 -66 39.5 -92t104.5 -35l82 -11q53 -7 86.5 -25.5t49 -49t15.5 -74.5q0 -45 -21 -79.5t-60.5 -54t-97.5 -19.5zM274 643l-86 150h24l71 -127l71 127h23l-84 -150h-19zM283 853q-16 0 -23 9t-7 18q0 11 7 19.5
t23 8.5t23 -8.5t7 -19.5q0 -9 -7.5 -18t-22.5 -9z" />
    <glyph glyph-name="uni1E67" unicode="&#x1e67;" horiz-adv-x="446" 
d="M246 -11q-38 0 -72.5 9.5t-57.5 25.5t-30 33l10 -12v-45h-26v117h24l3 -66l-17 37q23 -38 66.5 -57.5t98.5 -19.5q52 0 85 22.5t33 60.5q0 45 -28.5 62t-90.5 30l-65 13q-47 11 -76.5 32t-29.5 69q0 51 41 77t101 26q28 0 56.5 -8t52 -22.5t36.5 -35.5l-17 12v44h26v-128
h-24l-5 78l10 -26q-7 16 -27.5 30.5t-48 24t-57.5 9.5q-46 0 -80.5 -20t-34.5 -60q0 -38 27 -54t67 -24l65 -14q48 -10 76 -23.5t40.5 -34.5t12.5 -55q0 -37 -21 -60.5t-54 -35t-69 -11.5zM227 473l-86 150h24l71 -127l71 127h23l-84 -150h-19zM236 683q-16 0 -23 9t-7 18
q0 11 7 19.5t23 8.5t23 -8.5t7 -19.5q0 -9 -7.5 -18t-22.5 -9z" />
    <glyph glyph-name="uni1E68" unicode="&#x1e68;" horiz-adv-x="553" 
d="M311 -11q-54 0 -96 13.5t-69 38t-37 57.5h5v-98h-28v189h28q0 -53 18 -93t61 -61.5t118 -21.5q73 0 112 34.5t39 92.5q0 39 -12 64.5t-39.5 40.5t-76.5 21l-81 11q-82 11 -125 45t-43 106q0 44 20.5 76.5t60 50.5t96.5 18q73 0 121.5 -29t62.5 -76h-7v95h28v-151h-28
q0 40 -20 71t-59.5 49t-96.5 18q-72 0 -111 -33.5t-39 -87.5q0 -66 39.5 -92t104.5 -35l82 -11q53 -7 86.5 -25.5t49 -49t15.5 -74.5q0 -45 -21 -79.5t-60.5 -54t-97.5 -19.5zM313 -107q-16 0 -23 9t-7 18q0 11 7 19.5t23 8.5t23 -8.5t7 -19.5q0 -9 -7.5 -18t-22.5 -9z
M283 653q-16 0 -23 9t-7 18q0 11 7 19.5t23 8.5t23 -8.5t7 -19.5q0 -9 -7.5 -18t-22.5 -9z" />
    <glyph glyph-name="uni1E69" unicode="&#x1e69;" horiz-adv-x="446" 
d="M246 -11q-38 0 -72.5 9.5t-57.5 25.5t-30 33l10 -12v-45h-26v117h24l3 -66l-17 37q23 -38 66.5 -57.5t98.5 -19.5q52 0 85 22.5t33 60.5q0 45 -28.5 62t-90.5 30l-65 13q-47 11 -76.5 32t-29.5 69q0 51 41 77t101 26q28 0 56.5 -8t52 -22.5t36.5 -35.5l-17 12v44h26v-128
h-24l-5 78l10 -26q-7 16 -27.5 30.5t-48 24t-57.5 9.5q-46 0 -80.5 -20t-34.5 -60q0 -38 27 -54t67 -24l65 -14q48 -10 76 -23.5t40.5 -34.5t12.5 -55q0 -37 -21 -60.5t-54 -35t-69 -11.5zM230 -107q-16 0 -23 9t-7 18q0 11 7 19.5t23 8.5t23 -8.5t7 -19.5q0 -9 -7.5 -18
t-22.5 -9zM236 483q-16 0 -23 9t-7 18q0 11 7 19.5t23 8.5t23 -8.5t7 -19.5q0 -9 -7.5 -18t-22.5 -9z" />
    <glyph glyph-name="uni1E6A" unicode="&#x1e6a;" horiz-adv-x="560" 
d="M177 0v22h85v519h-211v-164h-26v186h510v-186h-27v164h-216v-519h84v-22h-199zM277 653q-16 0 -23 9t-7 18q0 11 7 19.5t23 8.5t23 -8.5t7 -19.5q0 -9 -7.5 -18t-22.5 -9z" />
    <glyph glyph-name="uni1E6B" unicode="&#x1e6b;" horiz-adv-x="282" 
d="M216 0q-53 0 -87.5 22.5t-34.5 84.5v264h-74v22h74v136l29 9v-145h115v-22h-115v-262q0 -49 22.5 -68t72.5 -19h39v-22h-41zM108 578q-16 0 -23 9t-7 18q0 11 7 19.5t23 8.5t23 -8.5t7 -19.5q0 -9 -7.5 -18t-22.5 -9z" />
    <glyph glyph-name="uni1E6C" unicode="&#x1e6c;" horiz-adv-x="560" 
d="M177 0v22h85v519h-211v-164h-26v186h510v-186h-27v164h-216v-519h84v-22h-199zM277 -107q-16 0 -23 9t-7 18q0 11 7 19.5t23 8.5t23 -8.5t7 -19.5q0 -9 -7.5 -18t-22.5 -9z" />
    <glyph glyph-name="uni1E6D" unicode="&#x1e6d;" horiz-adv-x="282" 
d="M216 0q-53 0 -87.5 22.5t-34.5 84.5v264h-74v22h74v136l29 9v-145h115v-22h-115v-262q0 -49 22.5 -68t72.5 -19h39v-22h-41zM192 -103q-16 0 -23 9t-7 18q0 11 7 19.5t23 8.5t23 -8.5t7 -19.5q0 -9 -7.5 -18t-22.5 -9z" />
    <glyph glyph-name="uni1E6E" unicode="&#x1e6e;" horiz-adv-x="560" 
d="M177 0v22h85v519h-211v-164h-26v186h510v-186h-27v164h-216v-519h84v-22h-199zM185 -72v20h184v-20h-184z" />
    <glyph glyph-name="uni1E6F" unicode="&#x1e6f;" horiz-adv-x="282" 
d="M216 0q-53 0 -87.5 22.5t-34.5 84.5v264h-74v22h74v136l29 9v-145h115v-22h-115v-262q0 -49 22.5 -68t72.5 -19h39v-22h-41zM100 -68v20h184v-20h-184z" />
    <glyph glyph-name="uni1E78" unicode="&#x1e78;" horiz-adv-x="729" 
d="M360 -11q-73 0 -128 24.5t-85.5 68t-30.5 101.5v358h-74v22h179v-22h-75v-358q0 -50 27 -88.5t75.5 -60t111.5 -21.5q69 0 120.5 21t80.5 59.5t29 88.5v359h-73v22h179v-22h-77v-359q0 -58 -33 -101.5t-91.5 -67.5t-134.5 -24zM419 653q-18 0 -36 10.5t-35 20.5t-35 10
q-27 0 -27 -40h-20q0 26 12.5 44t34.5 18q19 0 36.5 -10t35 -20.5t34.5 -10.5q12 0 19.5 9.5t7.5 29.5h20q0 -30 -10.5 -45.5t-36.5 -15.5zM361 792l44 123h30l-59 -123h-15z" />
    <glyph glyph-name="uni1E79" unicode="&#x1e79;" horiz-adv-x="502" 
d="M215 -11q-49 0 -75.5 20t-36 47t-9.5 47v268h-76v22h106v-289q0 -35 22 -63.5t71 -28.5q57 0 99 21t87 56l-26 -24v306h-73v22h103v-372h73v-21h-98l-4 62l26 6q-42 -37 -89 -58t-100 -21zM291 483q-18 0 -36 10.5t-35 20.5t-35 10q-27 0 -27 -40h-20q0 26 12.5 44
t34.5 18q19 0 36.5 -10t35 -20.5t34.5 -10.5q12 0 19.5 9.5t7.5 29.5h20q0 -30 -10.5 -45.5t-36.5 -15.5zM233 622l44 123h30l-59 -123h-15z" />
    <glyph glyph-name="uni1E7A" unicode="&#x1e7a;" horiz-adv-x="729" 
d="M360 -11q-73 0 -128 24.5t-85.5 68t-30.5 101.5v358h-74v22h179v-22h-75v-358q0 -50 27 -88.5t75.5 -60t111.5 -21.5q69 0 120.5 21t80.5 59.5t29 88.5v359h-73v22h179v-22h-77v-359q0 -58 -33 -101.5t-91.5 -67.5t-134.5 -24zM274 653v20h184v-20h-184zM288 753
q-11 0 -17 6t-6 16t6 15.5t16 5.5q11 0 16.5 -5.5t5.5 -15.5t-5.5 -16t-15.5 -6zM445 753q-10 0 -16 5.5t-6 15.5q0 11 6 16.5t16 5.5t16 -5.5t6 -16.5q0 -10 -6 -15.5t-16 -5.5z" />
    <glyph glyph-name="uni1E7B" unicode="&#x1e7b;" horiz-adv-x="502" 
d="M215 -11q-49 0 -75.5 20t-36 47t-9.5 47v268h-76v22h106v-289q0 -35 22 -63.5t71 -28.5q57 0 99 21t87 56l-26 -24v306h-73v22h103v-372h73v-21h-98l-4 62l26 6q-42 -37 -89 -58t-100 -21zM146 483v20h184v-20h-184zM160 583q-11 0 -17 6t-6 16t6 15.5t16 5.5
q11 0 16.5 -5.5t5.5 -15.5t-5.5 -16t-15.5 -6zM317 583q-10 0 -16 5.5t-6 15.5q0 11 6 16.5t16 5.5t16 -5.5t6 -16.5q0 -10 -6 -15.5t-16 -5.5z" />
    <glyph glyph-name="Wgrave" unicode="&#x1e80;" horiz-adv-x="953" 
d="M286 0l-183 541h-68v22h178v-22h-78l168 -503l164 496h23l162 -496l165 503h-76v22h177v-22h-71l-180 -541h-31l-158 480l-160 -480h-32zM468 624l-58 123h30l44 -123h-16z" />
    <glyph glyph-name="wgrave" unicode="&#x1e81;" horiz-adv-x="761" 
d="M215 0l-134 371h-65v22h170v-22h-76l124 -349l128 349h-70v22h174v-22h-72l130 -348l118 348h-68v22h163v-22h-67l-128 -371h-34l-129 346l-129 -346h-35zM368 483l-58 123h30l44 -123h-16z" />
    <glyph glyph-name="Wacute" unicode="&#x1e82;" horiz-adv-x="953" 
d="M286 0l-183 541h-68v22h178v-22h-78l168 -503l164 496h23l162 -496l165 503h-76v22h177v-22h-71l-180 -541h-31l-158 480l-160 -480h-32zM474 624l44 123h30l-59 -123h-15z" />
    <glyph glyph-name="wacute" unicode="&#x1e83;" horiz-adv-x="761" 
d="M215 0l-134 371h-65v22h170v-22h-76l124 -349l128 349h-70v22h174v-22h-72l130 -348l118 348h-68v22h163v-22h-67l-128 -371h-34l-129 346l-129 -346h-35zM374 483l44 123h30l-59 -123h-15z" />
    <glyph glyph-name="Wdieresis" unicode="&#x1e84;" horiz-adv-x="953" 
d="M286 0l-183 541h-68v22h178v-22h-78l168 -503l164 496h23l162 -496l165 503h-76v22h177v-22h-71l-180 -541h-31l-158 480l-160 -480h-32zM401 625q-11 0 -17 6t-6 16t6 15.5t16 5.5q11 0 16.5 -5.5t5.5 -15.5t-5.5 -16t-15.5 -6zM558 625q-10 0 -16 5.5t-6 15.5
q0 11 6 16.5t16 5.5t16 -5.5t6 -16.5q0 -10 -6 -15.5t-16 -5.5z" />
    <glyph glyph-name="wdieresis" unicode="&#x1e85;" horiz-adv-x="761" 
d="M215 0l-134 371h-65v22h170v-22h-76l124 -349l128 349h-70v22h174v-22h-72l130 -348l118 348h-68v22h163v-22h-67l-128 -371h-34l-129 346l-129 -346h-35zM301 484q-11 0 -17 6t-6 16t6 15.5t16 5.5q11 0 16.5 -5.5t5.5 -15.5t-5.5 -16t-15.5 -6zM458 484q-10 0 -16 5.5
t-6 15.5q0 11 6 16.5t16 5.5t16 -5.5t6 -16.5q0 -10 -6 -15.5t-16 -5.5z" />
    <glyph glyph-name="uni1E8E" unicode="&#x1e8e;" horiz-adv-x="615" 
d="M210 0v22h82v205l-209 314h-76v22h183v-22h-74l193 -289l191 289h-78v22h184v-22h-75l-209 -314v-205h83v-22h-195zM311 653q-16 0 -23 9t-7 18q0 11 7 19.5t23 8.5t23 -8.5t7 -19.5q0 -9 -7.5 -18t-22.5 -9z" />
    <glyph glyph-name="uni1E8F" unicode="&#x1e8f;" horiz-adv-x="523" 
d="M115 -122v26h39q30 0 45.5 4t25.5 16t20 35l31 71h-18l-154 341h-81v22h182v-22h-71l147 -330l139 330h-83v22h177v-22h-64l-179 -418q-13 -30 -26.5 -46t-34 -22.5t-55.5 -6.5h-40zM271 483q-16 0 -23 9t-7 18q0 11 7 19.5t23 8.5t23 -8.5t7 -19.5q0 -9 -7.5 -18
t-22.5 -9z" />
    <glyph glyph-name="uni1E92" unicode="&#x1e92;" horiz-adv-x="602" 
d="M69 0v23l415 518h-376v-149h-25v171h435v-22l-415 -519h403v156h25v-178h-462zM300 -107q-16 0 -23 9t-7 18q0 11 7 19.5t23 8.5t23 -8.5t7 -19.5q0 -9 -7.5 -18t-22.5 -9z" />
    <glyph glyph-name="uni1E93" unicode="&#x1e93;" horiz-adv-x="462" 
d="M70 0v25l281 347h-242v-95h-26v116h296v-28l-275 -344h257v109h25v-130h-316zM228 -107q-16 0 -23 9t-7 18q0 11 7 19.5t23 8.5t23 -8.5t7 -19.5q0 -9 -7.5 -18t-22.5 -9z" />
    <glyph glyph-name="uni1E97" unicode="&#x1e97;" horiz-adv-x="282" 
d="M216 0q-53 0 -87.5 22.5t-34.5 84.5v264h-74v22h74v136l29 9v-145h115v-22h-115v-262q0 -49 22.5 -68t72.5 -19h39v-22h-41zM30 579q-11 0 -17 6t-6 16t6 15.5t16 5.5q11 0 16.5 -5.5t5.5 -15.5t-5.5 -16t-15.5 -6zM187 579q-10 0 -16 5.5t-6 15.5q0 11 6 16.5t16 5.5
t16 -5.5t6 -16.5q0 -10 -6 -15.5t-16 -5.5z" />
    <glyph glyph-name="uni1E9E" unicode="&#x1e9e;" horiz-adv-x="604" 
d="M314 -10v22q104 0 154 37.5t50 110.5q0 72 -50.5 106.5t-163.5 34.5v18l157 189q-29 19 -64 30.5t-83 11.5q-85 0 -134.5 -43t-49.5 -134v-351h56v-22h-136v22h50v349q0 95 55 148.5t158 53.5q56 0 99 -16t75 -37v-18l-153 -181q104 0 159 -45t55 -116q0 -55 -27 -93
t-79 -57.5t-128 -19.5z" />
    <glyph glyph-name="uni1EA0" unicode="&#x1ea0;" horiz-adv-x="675" 
d="M42 0v22h76l193 519h-71v22h198v-22h-73l193 -519h75v-22h-179v22h72l-78 213h-221l-79 -213h73v-22h-179zM233 256h208l-103 282h-2zM338 -107q-16 0 -23 9t-7 18q0 11 7 19.5t23 8.5t23 -8.5t7 -19.5q0 -9 -7.5 -18t-22.5 -9z" />
    <glyph glyph-name="uni1EA1" unicode="&#x1ea1;" horiz-adv-x="442" 
d="M172 -11q-59 0 -95.5 32.5t-36.5 84.5q0 44 19 69t50.5 35.5t67.5 10.5q39 0 80 -6t81 -14l-14 -6v68q0 61 -32.5 89.5t-82.5 28.5q-35 0 -70.5 -9.5t-66.5 -22.5l-9 22q40 17 77.5 24.5t65.5 7.5q59 0 90.5 -20.5t44 -51t12.5 -60.5v-249h60v-22h-81l-8 46h12
q-48 -29 -88 -43t-76 -14zM173 11q37 0 74 14t92 45l-15 -15v135l15 -9q-43 9 -83 14.5t-78 5.5q-43 0 -76.5 -21.5t-33.5 -74.5q0 -37 27 -65.5t78 -28.5zM231 -107q-16 0 -23 9t-7 18q0 11 7 19.5t23 8.5t23 -8.5t7 -19.5q0 -9 -7.5 -18t-22.5 -9z" />
    <glyph glyph-name="uni1EA2" unicode="&#x1ea2;" horiz-adv-x="675" 
d="M42 0v22h76l193 519h-71v22h198v-22h-73l193 -519h75v-22h-179v22h72l-78 213h-221l-79 -213h73v-22h-179zM233 256h208l-103 282h-2zM338 608l-9 21q13 5 21 13.5t8 21.5q0 14 -8.5 21.5t-25.5 7.5q-11 0 -21.5 -3.5t-21.5 -9.5l-10 22q12 6 25.5 10t29.5 4q27 0 42 -14
t15 -36t-11.5 -36t-33.5 -22z" />
    <glyph glyph-name="uni1EA3" unicode="&#x1ea3;" horiz-adv-x="442" 
d="M172 -11q-59 0 -95.5 32.5t-36.5 84.5q0 44 19 69t50.5 35.5t67.5 10.5q39 0 80 -6t81 -14l-14 -6v68q0 61 -32.5 89.5t-82.5 28.5q-35 0 -70.5 -9.5t-66.5 -22.5l-9 22q40 17 77.5 24.5t65.5 7.5q59 0 90.5 -20.5t44 -51t12.5 -60.5v-249h60v-22h-81l-8 46h12
q-48 -29 -88 -43t-76 -14zM173 11q37 0 74 14t92 45l-15 -15v135l15 -9q-43 9 -83 14.5t-78 5.5q-43 0 -76.5 -21.5t-33.5 -74.5q0 -37 27 -65.5t78 -28.5zM218 438l-9 21q13 5 21 13.5t8 21.5q0 14 -8.5 21.5t-25.5 7.5q-11 0 -21.5 -3.5t-21.5 -9.5l-10 22q12 6 25.5 10
t29.5 4q27 0 42 -14t15 -36t-11.5 -36t-33.5 -22z" />
    <glyph glyph-name="uni1EA4" unicode="&#x1ea4;" horiz-adv-x="675" 
d="M42 0v22h76l193 519h-71v22h198v-22h-73l193 -519h75v-22h-179v22h72l-78 213h-221l-79 -213h73v-22h-179zM233 256h208l-103 282h-2zM242 623l86 121h21l85 -121h-24l-72 100l-72 -100h-24zM399 710l41 112h28l-53 -112h-16z" />
    <glyph glyph-name="uni1EA5" unicode="&#x1ea5;" horiz-adv-x="442" 
d="M172 -11q-59 0 -95.5 32.5t-36.5 84.5q0 44 19 69t50.5 35.5t67.5 10.5q39 0 80 -6t81 -14l-14 -6v68q0 61 -32.5 89.5t-82.5 28.5q-35 0 -70.5 -9.5t-66.5 -22.5l-9 22q40 17 77.5 24.5t65.5 7.5q59 0 90.5 -20.5t44 -51t12.5 -60.5v-249h60v-22h-81l-8 46h12
q-48 -29 -88 -43t-76 -14zM173 11q37 0 74 14t92 45l-15 -15v135l15 -9q-43 9 -83 14.5t-78 5.5q-43 0 -76.5 -21.5t-33.5 -74.5q0 -37 27 -65.5t78 -28.5zM122 453l86 121h21l85 -121h-24l-72 100l-72 -100h-24zM279 540l41 112h28l-53 -112h-16z" />
    <glyph glyph-name="uni1EA6" unicode="&#x1ea6;" horiz-adv-x="675" 
d="M42 0v22h76l193 519h-71v22h198v-22h-73l193 -519h75v-22h-179v22h72l-78 213h-221l-79 -213h73v-22h-179zM233 256h208l-103 282h-2zM242 623l86 121h21l85 -121h-24l-72 100l-72 -100h-24zM428 710h-16l-53 112h28z" />
    <glyph glyph-name="uni1EA7" unicode="&#x1ea7;" horiz-adv-x="442" 
d="M172 -11q-59 0 -95.5 32.5t-36.5 84.5q0 44 19 69t50.5 35.5t67.5 10.5q39 0 80 -6t81 -14l-14 -6v68q0 61 -32.5 89.5t-82.5 28.5q-35 0 -70.5 -9.5t-66.5 -22.5l-9 22q40 17 77.5 24.5t65.5 7.5q59 0 90.5 -20.5t44 -51t12.5 -60.5v-249h60v-22h-81l-8 46h12
q-48 -29 -88 -43t-76 -14zM173 11q37 0 74 14t92 45l-15 -15v135l15 -9q-43 9 -83 14.5t-78 5.5q-43 0 -76.5 -21.5t-33.5 -74.5q0 -37 27 -65.5t78 -28.5zM122 453l86 121h21l85 -121h-24l-72 100l-72 -100h-24zM308 540h-16l-53 112h28z" />
    <glyph glyph-name="uni1EA8" unicode="&#x1ea8;" horiz-adv-x="675" 
d="M42 0v22h76l193 519h-71v22h198v-22h-73l193 -519h75v-22h-179v22h72l-78 213h-221l-79 -213h73v-22h-179zM233 256h208l-103 282h-2zM242 623l86 121h21l85 -121h-24l-72 100l-72 -100h-24zM406 706l-9 21q13 5 21 13.5t8 21.5q0 14 -8.5 21.5t-25.5 7.5
q-11 0 -21.5 -3.5t-21.5 -9.5l-10 22q12 6 25.5 10t29.5 4q27 0 42 -14t15 -36t-11.5 -36t-33.5 -22z" />
    <glyph glyph-name="uni1EA9" unicode="&#x1ea9;" horiz-adv-x="442" 
d="M172 -11q-59 0 -95.5 32.5t-36.5 84.5q0 44 19 69t50.5 35.5t67.5 10.5q39 0 80 -6t81 -14l-14 -6v68q0 61 -32.5 89.5t-82.5 28.5q-35 0 -70.5 -9.5t-66.5 -22.5l-9 22q40 17 77.5 24.5t65.5 7.5q59 0 90.5 -20.5t44 -51t12.5 -60.5v-249h60v-22h-81l-8 46h12
q-48 -29 -88 -43t-76 -14zM173 11q37 0 74 14t92 45l-15 -15v135l15 -9q-43 9 -83 14.5t-78 5.5q-43 0 -76.5 -21.5t-33.5 -74.5q0 -37 27 -65.5t78 -28.5zM122 453l86 121h21l85 -121h-24l-72 100l-72 -100h-24zM286 536l-9 21q13 5 21 13.5t8 21.5q0 14 -8.5 21.5
t-25.5 7.5q-11 0 -21.5 -3.5t-21.5 -9.5l-10 22q12 6 25.5 10t29.5 4q27 0 42 -14t15 -36t-11.5 -36t-33.5 -22z" />
    <glyph glyph-name="uni1EAA" unicode="&#x1eaa;" horiz-adv-x="675" 
d="M42 0v22h76l193 519h-71v22h198v-22h-73l193 -519h75v-22h-179v22h72l-78 213h-221l-79 -213h73v-22h-179zM233 256h208l-103 282h-2zM242 623l86 121h21l85 -121h-24l-72 100l-72 -100h-24zM382 760q-16 0 -31 8t-29.5 15.5t-30.5 7.5q-24 0 -24 -30h-20q0 22 13 37
t34 15q17 0 31.5 -7.5t28.5 -15.5t29 -8q11 0 17.5 7t6.5 22h20q0 -25 -11 -38t-34 -13z" />
    <glyph glyph-name="uni1EAB" unicode="&#x1eab;" horiz-adv-x="442" 
d="M172 -11q-59 0 -95.5 32.5t-36.5 84.5q0 44 19 69t50.5 35.5t67.5 10.5q39 0 80 -6t81 -14l-14 -6v68q0 61 -32.5 89.5t-82.5 28.5q-35 0 -70.5 -9.5t-66.5 -22.5l-9 22q40 17 77.5 24.5t65.5 7.5q59 0 90.5 -20.5t44 -51t12.5 -60.5v-249h60v-22h-81l-8 46h12
q-48 -29 -88 -43t-76 -14zM173 11q37 0 74 14t92 45l-15 -15v135l15 -9q-43 9 -83 14.5t-78 5.5q-43 0 -76.5 -21.5t-33.5 -74.5q0 -37 27 -65.5t78 -28.5zM122 453l86 121h21l85 -121h-24l-72 100l-72 -100h-24zM262 590q-16 0 -31 8t-29.5 15.5t-30.5 7.5q-24 0 -24 -30
h-20q0 22 13 37t34 15q17 0 31.5 -7.5t28.5 -15.5t29 -8q11 0 17.5 7t6.5 22h20q0 -25 -11 -38t-34 -13z" />
    <glyph glyph-name="uni1EAC" unicode="&#x1eac;" horiz-adv-x="675" 
d="M42 0v22h76l193 519h-71v22h198v-22h-73l193 -519h75v-22h-179v22h72l-78 213h-221l-79 -213h73v-22h-179zM233 256h208l-103 282h-2zM242 623l86 151h21l85 -151h-24l-72 130l-72 -130h-24zM338 -107q-16 0 -23 9t-7 18q0 11 7 19.5t23 8.5t23 -8.5t7 -19.5
q0 -9 -7.5 -18t-22.5 -9z" />
    <glyph glyph-name="uni1EAD" unicode="&#x1ead;" horiz-adv-x="442" 
d="M172 -11q-59 0 -95.5 32.5t-36.5 84.5q0 44 19 69t50.5 35.5t67.5 10.5q39 0 80 -6t81 -14l-14 -6v68q0 61 -32.5 89.5t-82.5 28.5q-35 0 -70.5 -9.5t-66.5 -22.5l-9 22q40 17 77.5 24.5t65.5 7.5q59 0 90.5 -20.5t44 -51t12.5 -60.5v-249h60v-22h-81l-8 46h12
q-48 -29 -88 -43t-76 -14zM173 11q37 0 74 14t92 45l-15 -15v135l15 -9q-43 9 -83 14.5t-78 5.5q-43 0 -76.5 -21.5t-33.5 -74.5q0 -37 27 -65.5t78 -28.5zM231 -107q-16 0 -23 9t-7 18q0 11 7 19.5t23 8.5t23 -8.5t7 -19.5q0 -9 -7.5 -18t-22.5 -9zM122 453l86 151h21
l85 -151h-24l-72 130l-72 -130h-24z" />
    <glyph glyph-name="uni1EAE" unicode="&#x1eae;" horiz-adv-x="675" 
d="M42 0v22h76l193 519h-71v22h198v-22h-73l193 -519h75v-22h-179v22h72l-78 213h-221l-79 -213h73v-22h-179zM233 256h208l-103 282h-2zM338 633q-29 0 -48.5 17t-23.5 50h22q4 -23 17.5 -34.5t32.5 -11.5t32 11.5t17 34.5h22q-4 -33 -23 -50t-48 -17zM322 713l44 93h30
l-59 -93h-15z" />
    <glyph glyph-name="uni1EAF" unicode="&#x1eaf;" horiz-adv-x="442" 
d="M172 -11q-59 0 -95.5 32.5t-36.5 84.5q0 44 19 69t50.5 35.5t67.5 10.5q39 0 80 -6t81 -14l-14 -6v68q0 61 -32.5 89.5t-82.5 28.5q-35 0 -70.5 -9.5t-66.5 -22.5l-9 22q40 17 77.5 24.5t65.5 7.5q59 0 90.5 -20.5t44 -51t12.5 -60.5v-249h60v-22h-81l-8 46h12
q-48 -29 -88 -43t-76 -14zM173 11q37 0 74 14t92 45l-15 -15v135l15 -9q-43 9 -83 14.5t-78 5.5q-43 0 -76.5 -21.5t-33.5 -74.5q0 -37 27 -65.5t78 -28.5zM218 463q-29 0 -48.5 17t-23.5 50h22q4 -23 17.5 -34.5t32.5 -11.5t32 11.5t17 34.5h22q-4 -33 -23 -50t-48 -17z
M202 543l44 93h30l-59 -93h-15z" />
    <glyph glyph-name="uni1EB0" unicode="&#x1eb0;" horiz-adv-x="675" 
d="M42 0v22h76l193 519h-71v22h198v-22h-73l193 -519h75v-22h-179v22h72l-78 213h-221l-79 -213h73v-22h-179zM233 256h208l-103 282h-2zM338 633q-29 0 -48.5 17t-23.5 50h22q4 -23 17.5 -34.5t32.5 -11.5t32 11.5t17 34.5h22q-4 -33 -23 -50t-48 -17zM338 713l-59 93h30
l44 -93h-15z" />
    <glyph glyph-name="uni1EB1" unicode="&#x1eb1;" horiz-adv-x="442" 
d="M172 -11q-59 0 -95.5 32.5t-36.5 84.5q0 44 19 69t50.5 35.5t67.5 10.5q39 0 80 -6t81 -14l-14 -6v68q0 61 -32.5 89.5t-82.5 28.5q-35 0 -70.5 -9.5t-66.5 -22.5l-9 22q40 17 77.5 24.5t65.5 7.5q59 0 90.5 -20.5t44 -51t12.5 -60.5v-249h60v-22h-81l-8 46h12
q-48 -29 -88 -43t-76 -14zM173 11q37 0 74 14t92 45l-15 -15v135l15 -9q-43 9 -83 14.5t-78 5.5q-43 0 -76.5 -21.5t-33.5 -74.5q0 -37 27 -65.5t78 -28.5zM218 463q-29 0 -48.5 17t-23.5 50h22q4 -23 17.5 -34.5t32.5 -11.5t32 11.5t17 34.5h22q-4 -33 -23 -50t-48 -17z
M218 543l-59 93h30l44 -93h-15z" />
    <glyph glyph-name="uni1EB2" unicode="&#x1eb2;" horiz-adv-x="675" 
d="M42 0v22h76l193 519h-71v22h198v-22h-73l193 -519h75v-22h-179v22h72l-78 213h-221l-79 -213h73v-22h-179zM233 256h208l-103 282h-2zM339 701l-8 19q14 5 21.5 13.5t7.5 21.5q0 14 -8.5 21.5t-25.5 7.5q-10 0 -20 -3.5t-20 -9.5l-9 20q11 7 24 11.5t27 4.5q27 0 42 -14
t15 -36t-12 -35t-34 -21zM339 633q-29 0 -48.5 17t-23.5 50h22q4 -23 17.5 -34.5t32.5 -11.5t32 11.5t17 34.5h22q-4 -33 -23 -50t-48 -17z" />
    <glyph glyph-name="uni1EB3" unicode="&#x1eb3;" horiz-adv-x="442" 
d="M172 -11q-59 0 -95.5 32.5t-36.5 84.5q0 44 19 69t50.5 35.5t67.5 10.5q39 0 80 -6t81 -14l-14 -6v68q0 61 -32.5 89.5t-82.5 28.5q-35 0 -70.5 -9.5t-66.5 -22.5l-9 22q40 17 77.5 24.5t65.5 7.5q59 0 90.5 -20.5t44 -51t12.5 -60.5v-249h60v-22h-81l-8 46h12
q-48 -29 -88 -43t-76 -14zM173 11q37 0 74 14t92 45l-15 -15v135l15 -9q-43 9 -83 14.5t-78 5.5q-43 0 -76.5 -21.5t-33.5 -74.5q0 -37 27 -65.5t78 -28.5zM219 531l-8 19q14 5 21.5 13.5t7.5 21.5q0 14 -8.5 21.5t-25.5 7.5q-10 0 -20 -3.5t-20 -9.5l-9 20q11 7 24 11.5
t27 4.5q27 0 42 -14t15 -36t-12 -35t-34 -21zM219 463q-29 0 -48.5 17t-23.5 50h22q4 -23 17.5 -34.5t32.5 -11.5t32 11.5t17 34.5h22q-4 -33 -23 -50t-48 -17z" />
    <glyph glyph-name="uni1EB4" unicode="&#x1eb4;" horiz-adv-x="675" 
d="M42 0v22h76l193 519h-71v22h198v-22h-73l193 -519h75v-22h-179v22h72l-78 213h-221l-79 -213h73v-22h-179zM233 256h208l-103 282h-2zM382 726q-16 0 -31 8t-29.5 15.5t-30.5 7.5q-24 0 -24 -30h-20q0 22 13 37t34 15q17 0 31.5 -7.5t28.5 -15.5t29 -8q11 0 17.5 7
t6.5 22h20q0 -25 -11 -38t-34 -13zM338 633q-29 0 -48.5 17t-23.5 50h22q4 -23 17.5 -34.5t32.5 -11.5t32 11.5t17 34.5h22q-4 -33 -23 -50t-48 -17z" />
    <glyph glyph-name="uni1EB5" unicode="&#x1eb5;" horiz-adv-x="442" 
d="M172 -11q-59 0 -95.5 32.5t-36.5 84.5q0 44 19 69t50.5 35.5t67.5 10.5q39 0 80 -6t81 -14l-14 -6v68q0 61 -32.5 89.5t-82.5 28.5q-35 0 -70.5 -9.5t-66.5 -22.5l-9 22q40 17 77.5 24.5t65.5 7.5q59 0 90.5 -20.5t44 -51t12.5 -60.5v-249h60v-22h-81l-8 46h12
q-48 -29 -88 -43t-76 -14zM173 11q37 0 74 14t92 45l-15 -15v135l15 -9q-43 9 -83 14.5t-78 5.5q-43 0 -76.5 -21.5t-33.5 -74.5q0 -37 27 -65.5t78 -28.5zM262 556q-16 0 -31 8t-29.5 15.5t-30.5 7.5q-24 0 -24 -30h-20q0 22 13 37t34 15q17 0 31.5 -7.5t28.5 -15.5t29 -8
q11 0 17.5 7t6.5 22h20q0 -25 -11 -38t-34 -13zM218 463q-29 0 -48.5 17t-23.5 50h22q4 -23 17.5 -34.5t32.5 -11.5t32 11.5t17 34.5h22q-4 -33 -23 -50t-48 -17z" />
    <glyph glyph-name="uni1EB6" unicode="&#x1eb6;" horiz-adv-x="675" 
d="M42 0v22h76l193 519h-71v22h198v-22h-73l193 -519h75v-22h-179v22h72l-78 213h-221l-79 -213h73v-22h-179zM233 256h208l-103 282h-2zM338 653q-29 0 -47.5 17t-24.5 50h19q12 -46 53 -46q20 0 32.5 11.5t19.5 34.5h19q-6 -33 -24 -50t-47 -17zM338 -107q-16 0 -23 9
t-7 18q0 11 7 19.5t23 8.5t23 -8.5t7 -19.5q0 -9 -7.5 -18t-22.5 -9z" />
    <glyph glyph-name="uni1EB7" unicode="&#x1eb7;" horiz-adv-x="442" 
d="M172 -11q-59 0 -95.5 32.5t-36.5 84.5q0 44 19 69t50.5 35.5t67.5 10.5q39 0 80 -6t81 -14l-14 -6v68q0 61 -32.5 89.5t-82.5 28.5q-35 0 -70.5 -9.5t-66.5 -22.5l-9 22q40 17 77.5 24.5t65.5 7.5q59 0 90.5 -20.5t44 -51t12.5 -60.5v-249h60v-22h-81l-8 46h12
q-48 -29 -88 -43t-76 -14zM173 11q37 0 74 14t92 45l-15 -15v135l15 -9q-43 9 -83 14.5t-78 5.5q-43 0 -76.5 -21.5t-33.5 -74.5q0 -37 27 -65.5t78 -28.5zM231 -107q-16 0 -23 9t-7 18q0 11 7 19.5t23 8.5t23 -8.5t7 -19.5q0 -9 -7.5 -18t-22.5 -9zM218 483q-29 0 -47.5 17
t-24.5 50h19q12 -46 53 -46q20 0 32.5 11.5t19.5 34.5h19q-6 -33 -24 -50t-47 -17z" />
    <glyph glyph-name="uni1EB8" unicode="&#x1eb8;" horiz-adv-x="597" 
d="M60 0v22h85v519h-85v22h459v-161h-26v139h-318v-243h205v83h23v-194h-22v89h-206v-254h330v141h26v-163h-471zM338 -107q-16 0 -23 9t-7 18q0 11 7 19.5t23 8.5t23 -8.5t7 -19.5q0 -9 -7.5 -18t-22.5 -9z" />
    <glyph glyph-name="uni1EB9" unicode="&#x1eb9;" horiz-adv-x="474" 
d="M237 -11q-54 0 -101 24.5t-76.5 71.5t-29.5 112q0 69 29 115t75 69t96 23q51 0 94.5 -22t70 -68.5t26.5 -118.5v-6h-367v21h340q0 59 -23.5 97t-61 56.5t-79.5 18.5q-46 0 -85 -22t-62.5 -63t-23.5 -98q0 -55 23.5 -97t64.5 -66t91 -24q47 0 93 21t71 52l10 -22
q-37 -37 -83 -55.5t-92 -18.5zM238 -107q-16 0 -23 9t-7 18q0 11 7 19.5t23 8.5t23 -8.5t7 -19.5q0 -9 -7.5 -18t-22.5 -9z" />
    <glyph glyph-name="uni1EBA" unicode="&#x1eba;" horiz-adv-x="597" 
d="M60 0v22h85v519h-85v22h459v-161h-26v139h-318v-243h205v83h23v-194h-22v89h-206v-254h330v141h26v-163h-471zM327 608l-9 21q13 5 21 13.5t8 21.5q0 14 -8.5 21.5t-25.5 7.5q-11 0 -21.5 -3.5t-21.5 -9.5l-10 22q12 6 25.5 10t29.5 4q27 0 42 -14t15 -36t-11.5 -36
t-33.5 -22z" />
    <glyph glyph-name="uni1EBB" unicode="&#x1ebb;" horiz-adv-x="474" 
d="M237 -11q-54 0 -101 24.5t-76.5 71.5t-29.5 112q0 69 29 115t75 69t96 23q51 0 94.5 -22t70 -68.5t26.5 -118.5v-6h-367v21h340q0 59 -23.5 97t-61 56.5t-79.5 18.5q-46 0 -85 -22t-62.5 -63t-23.5 -98q0 -55 23.5 -97t64.5 -66t91 -24q47 0 93 21t71 52l10 -22
q-37 -37 -83 -55.5t-92 -18.5zM238 438l-9 21q13 5 21 13.5t8 21.5q0 14 -8.5 21.5t-25.5 7.5q-11 0 -21.5 -3.5t-21.5 -9.5l-10 22q12 6 25.5 10t29.5 4q27 0 42 -14t15 -36t-11.5 -36t-33.5 -22z" />
    <glyph glyph-name="uni1EBC" unicode="&#x1ebc;" horiz-adv-x="597" 
d="M60 0v22h85v519h-85v22h459v-161h-26v139h-318v-243h205v83h23v-194h-22v89h-206v-254h330v141h26v-163h-471zM380 653q-18 0 -36 10.5t-35 20.5t-35 10q-27 0 -27 -40h-20q0 26 12.5 44t34.5 18q19 0 36.5 -10t35 -20.5t34.5 -10.5q12 0 19.5 9.5t7.5 29.5h20
q0 -30 -10.5 -45.5t-36.5 -15.5z" />
    <glyph glyph-name="uni1EBD" unicode="&#x1ebd;" horiz-adv-x="474" 
d="M237 -11q-54 0 -101 24.5t-76.5 71.5t-29.5 112q0 69 29 115t75 69t96 23q51 0 94.5 -22t70 -68.5t26.5 -118.5v-6h-367v21h340q0 59 -23.5 97t-61 56.5t-79.5 18.5q-46 0 -85 -22t-62.5 -63t-23.5 -98q0 -55 23.5 -97t64.5 -66t91 -24q47 0 93 21t71 52l10 -22
q-37 -37 -83 -55.5t-92 -18.5zM291 483q-18 0 -36 10.5t-35 20.5t-35 10q-27 0 -27 -40h-20q0 26 12.5 44t34.5 18q19 0 36.5 -10t35 -20.5t34.5 -10.5q12 0 19.5 9.5t7.5 29.5h20q0 -30 -10.5 -45.5t-36.5 -15.5z" />
    <glyph glyph-name="uni1EBE" unicode="&#x1ebe;" horiz-adv-x="597" 
d="M60 0v22h85v519h-85v22h459v-161h-26v139h-318v-243h205v83h23v-194h-22v89h-206v-254h330v141h26v-163h-471zM231 623l86 121h21l85 -121h-24l-72 100l-72 -100h-24zM388 710l41 112h28l-53 -112h-16z" />
    <glyph glyph-name="uni1EBF" unicode="&#x1ebf;" horiz-adv-x="474" 
d="M237 -11q-54 0 -101 24.5t-76.5 71.5t-29.5 112q0 69 29 115t75 69t96 23q51 0 94.5 -22t70 -68.5t26.5 -118.5v-6h-367v21h340q0 59 -23.5 97t-61 56.5t-79.5 18.5q-46 0 -85 -22t-62.5 -63t-23.5 -98q0 -55 23.5 -97t64.5 -66t91 -24q47 0 93 21t71 52l10 -22
q-37 -37 -83 -55.5t-92 -18.5zM142 453l86 121h21l85 -121h-24l-72 100l-72 -100h-24zM299 540l41 112h28l-53 -112h-16z" />
    <glyph glyph-name="uni1EC0" unicode="&#x1ec0;" horiz-adv-x="597" 
d="M60 0v22h85v519h-85v22h459v-161h-26v139h-318v-243h205v83h23v-194h-22v89h-206v-254h330v141h26v-163h-471zM231 623l86 121h21l85 -121h-24l-72 100l-72 -100h-24zM417 710h-16l-53 112h28z" />
    <glyph glyph-name="uni1EC1" unicode="&#x1ec1;" horiz-adv-x="474" 
d="M237 -11q-54 0 -101 24.5t-76.5 71.5t-29.5 112q0 69 29 115t75 69t96 23q51 0 94.5 -22t70 -68.5t26.5 -118.5v-6h-367v21h340q0 59 -23.5 97t-61 56.5t-79.5 18.5q-46 0 -85 -22t-62.5 -63t-23.5 -98q0 -55 23.5 -97t64.5 -66t91 -24q47 0 93 21t71 52l10 -22
q-37 -37 -83 -55.5t-92 -18.5zM142 453l86 121h21l85 -121h-24l-72 100l-72 -100h-24zM328 540h-16l-53 112h28z" />
    <glyph glyph-name="uni1EC2" unicode="&#x1ec2;" horiz-adv-x="597" 
d="M60 0v22h85v519h-85v22h459v-161h-26v139h-318v-243h205v83h23v-194h-22v89h-206v-254h330v141h26v-163h-471zM231 623l86 121h21l85 -121h-24l-72 100l-72 -100h-24zM395 706l-9 21q13 5 21 13.5t8 21.5q0 14 -8.5 21.5t-25.5 7.5q-11 0 -21.5 -3.5t-21.5 -9.5l-10 22
q12 6 25.5 10t29.5 4q27 0 42 -14t15 -36t-11.5 -36t-33.5 -22z" />
    <glyph glyph-name="uni1EC3" unicode="&#x1ec3;" horiz-adv-x="474" 
d="M237 -11q-54 0 -101 24.5t-76.5 71.5t-29.5 112q0 69 29 115t75 69t96 23q51 0 94.5 -22t70 -68.5t26.5 -118.5v-6h-367v21h340q0 59 -23.5 97t-61 56.5t-79.5 18.5q-46 0 -85 -22t-62.5 -63t-23.5 -98q0 -55 23.5 -97t64.5 -66t91 -24q47 0 93 21t71 52l10 -22
q-37 -37 -83 -55.5t-92 -18.5zM142 453l86 121h21l85 -121h-24l-72 100l-72 -100h-24zM306 536l-9 21q13 5 21 13.5t8 21.5q0 14 -8.5 21.5t-25.5 7.5q-11 0 -21.5 -3.5t-21.5 -9.5l-10 22q12 6 25.5 10t29.5 4q27 0 42 -14t15 -36t-11.5 -36t-33.5 -22z" />
    <glyph glyph-name="uni1EC4" unicode="&#x1ec4;" horiz-adv-x="597" 
d="M60 0v22h85v519h-85v22h459v-161h-26v139h-318v-243h205v83h23v-194h-22v89h-206v-254h330v141h26v-163h-471zM231 623l86 121h21l85 -121h-24l-72 100l-72 -100h-24zM371 760q-16 0 -31 8t-29.5 15.5t-30.5 7.5q-24 0 -24 -30h-20q0 22 13 37t34 15q17 0 31.5 -7.5
t28.5 -15.5t29 -8q11 0 17.5 7t6.5 22h20q0 -25 -11 -38t-34 -13z" />
    <glyph glyph-name="uni1EC5" unicode="&#x1ec5;" horiz-adv-x="474" 
d="M237 -11q-54 0 -101 24.5t-76.5 71.5t-29.5 112q0 69 29 115t75 69t96 23q51 0 94.5 -22t70 -68.5t26.5 -118.5v-6h-367v21h340q0 59 -23.5 97t-61 56.5t-79.5 18.5q-46 0 -85 -22t-62.5 -63t-23.5 -98q0 -55 23.5 -97t64.5 -66t91 -24q47 0 93 21t71 52l10 -22
q-37 -37 -83 -55.5t-92 -18.5zM142 453l86 121h21l85 -121h-24l-72 100l-72 -100h-24zM282 590q-16 0 -31 8t-29.5 15.5t-30.5 7.5q-24 0 -24 -30h-20q0 22 13 37t34 15q17 0 31.5 -7.5t28.5 -15.5t29 -8q11 0 17.5 7t6.5 22h20q0 -25 -11 -38t-34 -13z" />
    <glyph glyph-name="uni1EC6" unicode="&#x1ec6;" horiz-adv-x="597" 
d="M60 0v22h85v519h-85v22h459v-161h-26v139h-318v-243h205v83h23v-194h-22v89h-206v-254h330v141h26v-163h-471zM231 623l86 151h21l85 -151h-24l-72 130l-72 -130h-24zM338 -107q-16 0 -23 9t-7 18q0 11 7 19.5t23 8.5t23 -8.5t7 -19.5q0 -9 -7.5 -18t-22.5 -9z" />
    <glyph glyph-name="uni1EC7" unicode="&#x1ec7;" horiz-adv-x="474" 
d="M237 -11q-54 0 -101 24.5t-76.5 71.5t-29.5 112q0 69 29 115t75 69t96 23q51 0 94.5 -22t70 -68.5t26.5 -118.5v-6h-367v21h340q0 59 -23.5 97t-61 56.5t-79.5 18.5q-46 0 -85 -22t-62.5 -63t-23.5 -98q0 -55 23.5 -97t64.5 -66t91 -24q47 0 93 21t71 52l10 -22
q-37 -37 -83 -55.5t-92 -18.5zM238 -107q-16 0 -23 9t-7 18q0 11 7 19.5t23 8.5t23 -8.5t7 -19.5q0 -9 -7.5 -18t-22.5 -9zM142 453l86 151h21l85 -151h-24l-72 130l-72 -130h-24z" />
    <glyph glyph-name="uni1EC8" unicode="&#x1ec8;" horiz-adv-x="311" 
d="M55 0v22h85v519h-85v22h200v-22h-85v-519h85v-22h-200zM157 608l-9 21q13 5 21 13.5t8 21.5q0 14 -8.5 21.5t-25.5 7.5q-11 0 -21.5 -3.5t-21.5 -9.5l-10 22q12 6 25.5 10t29.5 4q27 0 42 -14t15 -36t-11.5 -36t-33.5 -22z" />
    <glyph glyph-name="uni1EC9" unicode="&#x1ec9;" horiz-adv-x="236" 
d="M18 0v22h86v349h-85v22h114v-371h84v-22h-199zM111 438l-9 21q13 5 21 13.5t8 21.5q0 14 -8.5 21.5t-25.5 7.5q-11 0 -21.5 -3.5t-21.5 -9.5l-10 22q12 6 25.5 10t29.5 4q27 0 42 -14t15 -36t-11.5 -36t-33.5 -22z" />
    <glyph glyph-name="uni1ECA" unicode="&#x1eca;" horiz-adv-x="311" 
d="M55 0v22h85v519h-85v22h200v-22h-85v-519h85v-22h-200zM156 -107q-16 0 -23 9t-7 18q0 11 7 19.5t23 8.5t23 -8.5t7 -19.5q0 -9 -7.5 -18t-22.5 -9z" />
    <glyph glyph-name="uni1ECB" unicode="&#x1ecb;" horiz-adv-x="238" 
d="M18 0v22h86v349h-85v22h114v-371h86v-22h-201zM111 495q-12 0 -19 7t-7 18t7 17.5t19 6.5t19.5 -6.5t7.5 -17.5t-7.5 -18t-19.5 -7zM119 -107q-16 0 -23 9t-7 18q0 11 7 19.5t23 8.5t23 -8.5t7 -19.5q0 -9 -7.5 -18t-22.5 -9z" />
    </font>
</defs>
</svg>
